<svg width="44" height="41" viewBox="0 0 44 41" fill="none" xmlns="http://www.w3.org/2000/svg">
<path d="M26.171 0.421875C27.0204 0.421807 27.8551 0.643687 28.5924 1.06553C29.3297 1.48738 29.9439 2.09454 30.3743 2.82687L32.138 5.83204H36.6252C37.5499 5.83204 38.4656 6.01418 39.3199 6.36806C40.1742 6.72193 40.9505 7.24062 41.6044 7.8945C42.2583 8.54838 42.7769 9.32465 43.1308 10.179C43.4847 11.0333 43.6668 11.949 43.6668 12.8737V33.457C43.6668 34.3818 43.4847 35.2974 43.1308 36.1518C42.7769 37.0061 42.2583 37.7824 41.6044 38.4362C40.9505 39.0901 40.1742 39.6088 39.3199 39.9627C38.4656 40.3166 37.5499 40.4987 36.6252 40.4987H7.37516C5.5076 40.4987 3.71652 39.7568 2.39595 38.4362C1.07538 37.1157 0.333496 35.3246 0.333496 33.457V12.8737C0.333496 11.0061 1.07538 9.21507 2.39595 7.8945C3.71652 6.57393 5.5076 5.83204 7.37516 5.83204H11.8818L13.7777 2.74671C14.2136 2.03652 14.8242 1.44992 15.5514 1.04292C16.2785 0.635914 17.0979 0.422095 17.9312 0.421875H26.171ZM26.171 3.67187H17.9312C17.6941 3.67207 17.4599 3.72415 17.245 3.82446C17.0302 3.92477 16.8399 4.07088 16.6875 4.25254L16.5467 4.44754L14.1785 8.30421C14.0333 8.54107 13.8298 8.73675 13.5874 8.87255C13.345 9.00834 13.0718 9.07973 12.794 9.07987H7.37733C6.87904 9.07959 6.38557 9.17753 5.92515 9.36808C5.46474 9.55864 5.0464 9.83808 4.69405 10.1904C4.3417 10.5428 4.06226 10.9611 3.8717 11.4215C3.68115 11.882 3.58321 12.3754 3.5835 12.8737V33.457C3.5835 35.55 5.28216 37.2487 7.37516 37.2487H36.6252C37.6308 37.2487 38.5952 36.8492 39.3063 36.1381C40.0173 35.4271 40.4168 34.4627 40.4168 33.457V12.8737C40.4168 11.8681 40.0173 10.9037 39.3063 10.1926C38.5952 9.48152 37.6308 9.08204 36.6252 9.08204H31.2085C30.9252 9.08219 30.6468 9.00829 30.4009 8.86767C30.1551 8.72705 29.9502 8.52459 29.8067 8.28037L27.5707 4.47354C27.4273 4.22964 27.2228 4.02739 26.9773 3.88679C26.7318 3.74618 26.4539 3.6721 26.171 3.67187ZM22.0002 12.332C24.586 12.332 27.066 13.3593 28.8945 15.1878C30.7229 17.0162 31.7502 19.4962 31.7502 22.082C31.7502 24.6679 30.7229 27.1479 28.8945 28.9763C27.066 30.8048 24.586 31.832 22.0002 31.832C19.4143 31.832 16.9344 30.8048 15.1059 28.9763C13.2774 27.1479 12.2502 24.6679 12.2502 22.082C12.2502 19.4962 13.2774 17.0162 15.1059 15.1878C16.9344 13.3593 19.4143 12.332 22.0002 12.332ZM22.0002 15.582C21.1466 15.582 20.3013 15.7502 19.5127 16.0768C18.7241 16.4035 18.0075 16.8823 17.404 17.4858C16.8004 18.0894 16.3216 18.806 15.9949 19.5946C15.6683 20.3832 15.5002 21.2284 15.5002 22.082C15.5002 22.9356 15.6683 23.7809 15.9949 24.5695C16.3216 25.3581 16.8004 26.0747 17.404 26.6782C18.0075 27.2818 18.7241 27.7606 19.5127 28.0873C20.3013 28.4139 21.1466 28.582 22.0002 28.582C23.7241 28.582 25.3774 27.8972 26.5964 26.6782C27.8153 25.4592 28.5002 23.8059 28.5002 22.082C28.5002 20.3581 27.8153 18.7048 26.5964 17.4858C25.3774 16.2669 23.7241 15.582 22.0002 15.582Z" fill="#BFC2CD"/>
</svg>
