<svg width="13" height="12" viewBox="0 0 13 12" fill="current" xmlns="http://www.w3.org/2000/svg">
    <path d="M6.5 1C9.26142 1 11.5 3.23858 11.5 6C11.5 8.76142 9.26142 11 6.5 11C3.73858 11 1.5 8.76142 1.5 6C1.5 3.23858 3.73858 1 6.5 1ZM6.5 2C4.29086 2 2.5 3.79086 2.5 6C2.5 8.20914 4.29086 10 6.5 10C8.70914 10 10.5 8.20914 10.5 6C10.5 3.79086 8.70914 2 6.5 2ZM6 3.5C6.24546 3.5 6.44961 3.67688 6.49194 3.91012L6.5 4V6H8C8.27614 6 8.5 6.22386 8.5 6.5C8.5 6.74546 8.32312 6.94961 8.08988 6.99194L8 7H6C5.75454 7 5.55039 6.82312 5.50806 6.58988L5.5 6.5V4C5.5 3.72386 5.72386 3.5 6 3.5Z"
          fill="current"/>
</svg>
