<svg width="12" height="16" viewBox="0 0 12 16" fill="current" xmlns="http://www.w3.org/2000/svg">
<path d="M11.5 14.9989C11.7761 14.9989 12 15.2227 12 15.4989C12 15.7443 11.8231 15.9485 11.5899 15.9908L11.5 15.9989H0.5C0.223858 15.9989 0 15.775 0 15.4989C0 15.2534 0.176875 15.0493 0.410124 15.0069L0.5 14.9989H11.5ZM6.00014 0.00109863C6.2456 0.00109863 6.4497 0.178104 6.49197 0.411366L6.5 0.501244L6.496 12.2951L10.1414 8.64677C10.3148 8.47304 10.5842 8.45351 10.7792 8.58832L10.8485 8.64611C11.0222 8.81952 11.0418 9.08893 10.907 9.28392L10.8492 9.35322L6.35745 13.8532C6.28495 13.9259 6.19568 13.9715 6.10207 13.9902L5.99608 14C5.83511 14 5.69192 13.9239 5.60051 13.8057L1.14386 9.3538C0.948459 9.15868 0.948234 8.84209 1.14336 8.64669C1.3168 8.473 1.58621 8.45353 1.78117 8.58838L1.85046 8.64619L5.496 12.2871L5.5 0.500953C5.50008 0.224811 5.724 0.00109863 6.00014 0.00109863Z" fill="current"/>
</svg>
