<svg width="20" height="20" viewBox="0 0 20 20" fill="current" xmlns="http://www.w3.org/2000/svg">
    <path d="M5.707 10.0041L8.38909 7.32155C8.58435 7.12629 8.58435 6.8097 8.38909 6.61444C8.21552 6.44088 7.9461 6.42159 7.75123 6.55659L7.68198 6.61444L4.11603 10.1832L4.06639 10.2544L4.03875 10.3102L4.01597 10.3778L4.01109 10.3985C4.00383 10.4322 4 10.4674 4 10.5035L4.00546 10.4296L4.0018 10.461L4.0018 10.5461L4.01679 10.6324L4.03779 10.6946L4.07719 10.7705L4.13169 10.8417L7.68198 14.3926C7.87724 14.5879 8.19383 14.5879 8.38909 14.3926C8.56265 14.219 8.58194 13.9496 8.44694 13.7548L8.38909 13.6855L5.707 11.0041L10 11.0035C13.5218 11.0035 15.8854 9.02773 15.9959 6.21111L16 6.00353C16 5.72739 15.7761 5.50353 15.5 5.50353C15.2239 5.50353 15 5.72739 15 6.00353C15 8.2767 13.1925 9.90812 10.2615 9.99949L10 10.0035L5.707 10.0041L8.38909 7.32155L5.707 10.0041Z"
          fill="current"/>
</svg>
