<svg width="20" height="20" viewBox="0 0 20 20" fill="current" xmlns="http://www.w3.org/2000/svg">
    <path d="M3.5 5C3.77614 5 4 5.22386 4 5.5V14C4 14.2761 3.77614 14.5 3.5 14.5C3.22386 14.5 3 14.2761 3 14V5.5C3 5.22386 3.22386 5 3.5 5ZM12.6464 5.64645C12.8417 5.45118 13.1583 5.45118 13.3536 5.64645L16.8536 9.14645C17.0488 9.34171 17.0488 9.65829 16.8536 9.85355L13.3536 13.3536C13.1583 13.5488 12.8417 13.5488 12.6464 13.3536C12.4512 13.1583 12.4512 12.8417 12.6464 12.6464L15.2929 10H6.5C6.22386 10 6 9.77614 6 9.5C6 9.22386 6.22386 9 6.5 9H15.2929L12.6464 6.35355C12.4512 6.15829 12.4512 5.84171 12.6464 5.64645Z"
          fill="current"/>
</svg>
