<svg width="20" height="20" viewBox="0 0 20 20" fill="current" xmlns="http://www.w3.org/2000/svg">
  <path
    d="M10 9C10.2761 9 10.5 9.22386 10.5 9.5V12.5C10.5 12.7761 10.2761 13 10 13C9.72386 13 9.5 12.7761 9.5 12.5V9.5C9.5 9.22386 9.72386 9 10 9ZM10 8.24907C10.4137 8.24907 10.749 7.91371 10.749 7.50003C10.749 7.08635 10.4137 6.751 10 6.751C9.58633 6.751 9.25098 7.08635 9.25098 7.50003C9.25098 7.91371 9.58633 8.24907 10 8.24907ZM4 10C4 6.68629 6.68629 4 10 4C13.3137 4 16 6.68629 16 10C16 13.3137 13.3137 16 10 16C6.68629 16 4 13.3137 4 10ZM10 5C7.23858 5 5 7.23858 5 10C5 12.7614 7.23858 15 10 15C12.7614 15 15 12.7614 15 10C15 7.23858 12.7614 5 10 5Z"
    fill="current"/>
</svg>
