<svg xmlns="http://www.w3.org/2000/svg" width="47" height="24" viewBox="0 0 47 24" fill="current">
    <path d="M9.87517 8.31461H6.27614V18.1658H3.61676V8.31461H0V5.85183H9.87517V8.31461Z" fill="current"/>
    <path d="M13.9174 18.1658H11.258V5.85183H13.9174V18.1658Z" fill="current"/>
    <path d="M25.6557 14.7706C25.6557 15.4743 25.5079 16.0665 25.2125 16.5474C24.9288 17.0165 24.5447 17.3976 24.0601 17.6908C23.5755 17.9723 23.0199 18.1775 22.3935 18.3065C21.7789 18.4355 21.1466 18.5 20.4965 18.5C19.3618 18.5 18.369 18.2361 17.518 17.7084C16.6788 17.1806 15.9874 16.5122 15.4437 15.703L17.7839 14.3309C17.9139 14.5537 18.0735 14.7706 18.2626 14.9817C18.4635 15.1811 18.6822 15.3629 18.9186 15.5271C19.155 15.6795 19.4091 15.8085 19.6809 15.9141C19.9646 16.0079 20.2483 16.0548 20.532 16.0548C20.7683 16.0548 21.0284 16.0431 21.312 16.0196C21.5957 15.9844 21.8616 15.9258 22.1098 15.8437C22.3581 15.7499 22.5649 15.6267 22.7304 15.4743C22.8958 15.3218 22.9786 15.1166 22.9786 14.8586C22.9786 14.6358 22.9077 14.4481 22.7658 14.2957C22.6358 14.1432 22.4526 14.0083 22.2162 13.8911C21.9798 13.7738 21.7021 13.6741 21.383 13.592C21.0638 13.5099 20.7211 13.4278 20.3547 13.3457C19.8701 13.2402 19.3618 13.1112 18.8299 12.9587C18.2981 12.7945 17.8076 12.5717 17.3584 12.2903C16.9211 12.0088 16.5547 11.6452 16.2592 11.1996C15.9755 10.7422 15.8337 10.1617 15.8337 9.45805C15.8337 8.81304 15.9637 8.24425 16.2238 7.75169C16.4838 7.24741 16.8265 6.83108 17.252 6.50271C17.6775 6.17433 18.1621 5.92806 18.7058 5.76387C19.2495 5.58796 19.8051 5.5 20.3724 5.5C21.4125 5.5 22.3403 5.75214 23.1559 6.25643C23.9832 6.74898 24.6806 7.38814 25.2479 8.17388L23.0318 9.66915C22.9254 9.46978 22.7836 9.27041 22.6063 9.07104C22.429 8.87167 22.228 8.6899 22.0035 8.52571C21.7789 8.36152 21.5307 8.22666 21.2588 8.12111C20.9988 8.01556 20.7211 7.96279 20.4256 7.96279C20.201 7.96279 19.9764 7.99211 19.7519 8.05074C19.5273 8.10938 19.3205 8.19734 19.1313 8.31461C18.954 8.43189 18.8063 8.57848 18.6881 8.7544C18.5699 8.91858 18.5108 9.10622 18.5108 9.31732C18.5108 9.50496 18.5758 9.66915 18.7058 9.80988C18.8359 9.93888 19.0072 10.0562 19.22 10.1617C19.4446 10.2555 19.6987 10.3435 19.9823 10.4256C20.2778 10.5077 20.591 10.5898 20.922 10.6719C21.442 10.8009 21.9798 10.9533 22.5354 11.1292C23.0909 11.2934 23.5991 11.528 24.0601 11.8329C24.521 12.1261 24.8992 12.5072 25.1947 12.9763C25.502 13.4454 25.6557 14.0435 25.6557 14.7706Z"
          fill="current"/>
    <path d="M35.8882 9.14141C35.8882 9.80988 35.7405 10.4549 35.445 11.0765C35.1495 11.698 34.7772 12.2903 34.328 12.8532C33.8907 13.4044 33.412 13.9204 32.892 14.4012C32.3837 14.882 31.9051 15.316 31.4559 15.703H35.8173V18.1658H26.6513V16.864C27.4905 16.0665 28.2292 15.3687 28.8674 14.7706C29.5175 14.1608 30.0789 13.6272 30.5517 13.1698C31.0363 12.7124 31.4382 12.3137 31.7573 11.9736C32.0883 11.6218 32.3483 11.2993 32.5374 11.0061C32.7383 10.7129 32.8802 10.4373 32.9629 10.1793C33.0456 9.90956 33.087 9.62224 33.087 9.31732C33.087 9.16486 33.0515 9.0124 32.9806 8.85995C32.9097 8.69576 32.8033 8.54917 32.6615 8.42016C32.5315 8.29116 32.3601 8.18561 32.1474 8.10352C31.9464 8.02142 31.7159 7.98038 31.4559 7.98038C30.8413 7.98038 30.3153 8.14456 29.878 8.47294C29.4407 8.80131 29.1511 9.20005 29.0093 9.66915C28.6429 9.42287 28.306 9.19418 27.9987 8.98309C27.7387 8.80717 27.4905 8.64299 27.2541 8.49053C27.0177 8.32634 26.87 8.22079 26.8109 8.17388C27 7.72824 27.2482 7.34123 27.5555 7.01286C27.8746 6.67276 28.2292 6.39129 28.6192 6.16847C29.0211 5.94565 29.4525 5.78146 29.9135 5.67591C30.3744 5.55864 30.8472 5.5 31.3318 5.5C31.8164 5.5 32.3246 5.57037 32.8565 5.7111C33.4002 5.85183 33.8966 6.07465 34.3458 6.37957C34.7949 6.67276 35.1613 7.04804 35.445 7.50541C35.7405 7.96279 35.8882 8.50812 35.8882 9.14141Z"
          fill="current"/>
    <path d="M47 13.3633V15.7558H45.7412V18.1482H43.0818V15.7558H36.7348V13.3633L43.2059 5.85183H45.7412V13.3633H47ZM43.0818 9.54601L39.8197 13.3633H43.0818V9.54601Z"
          fill="current"/>
</svg>
