<svg width="79" height="24" viewBox="0 0 79 24" fill="current" xmlns="http://www.w3.org/2000/svg">
    <g clip-path="url(#clip0_3759_13471)">
        <path d="M41.8752 7.81461H38.2761V17.6658H35.6168V7.81461H32V5.35183H41.8752V7.81461Z" fill="current"/>
        <path d="M45.9174 17.6658H43.258V5.35183H45.9174V17.6658Z" fill="current"/>
        <path d="M57.6557 14.2706C57.6557 14.9743 57.5079 15.5665 57.2125 16.0474C56.9288 16.5165 56.5447 16.8976 56.0601 17.1908C55.5755 17.4723 55.0199 17.6775 54.3935 17.8065C53.7789 17.9355 53.1466 18 52.4965 18C51.3618 18 50.369 17.7361 49.518 17.2084C48.6788 16.6806 47.9874 16.0122 47.4437 15.203L49.7839 13.8309C49.9139 14.0537 50.0735 14.2706 50.2626 14.4817C50.4635 14.6811 50.6822 14.8629 50.9186 15.0271C51.155 15.1795 51.4091 15.3085 51.6809 15.4141C51.9646 15.5079 52.2483 15.5548 52.5319 15.5548C52.7683 15.5548 53.0284 15.5431 53.312 15.5196C53.5957 15.4844 53.8616 15.4258 54.1098 15.3437C54.3581 15.2499 54.5649 15.1267 54.7304 14.9743C54.8958 14.8218 54.9786 14.6166 54.9786 14.3586C54.9786 14.1358 54.9077 13.9481 54.7658 13.7957C54.6358 13.6432 54.4526 13.5083 54.2162 13.3911C53.9798 13.2738 53.7021 13.1741 53.383 13.092C53.0638 13.0099 52.7211 12.9278 52.3547 12.8457C51.8701 12.7402 51.3618 12.6112 50.8299 12.4587C50.2981 12.2945 49.8076 12.0717 49.3584 11.7903C48.9211 11.5088 48.5547 11.1452 48.2592 10.6996C47.9755 10.2422 47.8337 9.6617 47.8337 8.95805C47.8337 8.31304 47.9637 7.74425 48.2238 7.25169C48.4838 6.74741 48.8265 6.33108 49.252 6.00271C49.6775 5.67433 50.1621 5.42806 50.7058 5.26387C51.2495 5.08796 51.8051 5 52.3724 5C53.4125 5 54.3403 5.25214 55.1559 5.75643C55.9832 6.24898 56.6806 6.88814 57.2479 7.67388L55.0318 9.16915C54.9254 8.96978 54.7836 8.77041 54.6063 8.57104C54.429 8.37167 54.228 8.1899 54.0035 8.02571C53.7789 7.86152 53.5307 7.72666 53.2588 7.62111C52.9988 7.51556 52.7211 7.46279 52.4256 7.46279C52.201 7.46279 51.9764 7.49211 51.7519 7.55074C51.5273 7.60938 51.3205 7.69734 51.1313 7.81461C50.9541 7.93189 50.8063 8.07848 50.6881 8.2544C50.5699 8.41858 50.5108 8.60622 50.5108 8.81732C50.5108 9.00496 50.5758 9.16915 50.7058 9.30988C50.8359 9.43888 51.0072 9.55616 51.22 9.66171C51.4446 9.75553 51.6987 9.84348 51.9823 9.92557C52.2778 10.0077 52.591 10.0898 52.922 10.1719C53.442 10.3009 53.9798 10.4533 54.5354 10.6292C55.0909 10.7934 55.5991 11.028 56.0601 11.3329C56.521 11.6261 56.8992 12.0072 57.1947 12.4763C57.502 12.9454 57.6557 13.5435 57.6557 14.2706Z"
              fill="current"/>
        <path d="M67.8882 8.64141C67.8882 9.30988 67.7405 9.95489 67.445 10.5765C67.1495 11.198 66.7772 11.7903 66.328 12.3532C65.8907 12.9044 65.412 13.4204 64.892 13.9012C64.3837 14.382 63.9051 14.816 63.4559 15.203H67.8173V17.6658H58.6513V16.364C59.4905 15.5665 60.2292 14.8687 60.8674 14.2706C61.5175 13.6608 62.0789 13.1272 62.5517 12.6698C63.0363 12.2124 63.4382 11.8137 63.7573 11.4736C64.0883 11.1218 64.3483 10.7993 64.5374 10.5061C64.7383 10.2129 64.8802 9.9373 64.9629 9.6793C65.0456 9.40956 65.087 9.12224 65.087 8.81732C65.087 8.66486 65.0515 8.5124 64.9806 8.35995C64.9097 8.19576 64.8033 8.04917 64.6615 7.92016C64.5315 7.79116 64.3601 7.68561 64.1474 7.60352C63.9464 7.52142 63.7159 7.48038 63.4559 7.48038C62.8413 7.48038 62.3153 7.64456 61.878 7.97294C61.4407 8.30131 61.1511 8.70005 61.0093 9.16915C60.6429 8.92287 60.306 8.69418 59.9987 8.48309C59.7387 8.30717 59.4905 8.14299 59.2541 7.99053C59.0177 7.82634 58.87 7.72079 58.8109 7.67388C59 7.22824 59.2482 6.84123 59.5555 6.51286C59.8746 6.17276 60.2292 5.89129 60.6192 5.66847C61.0211 5.44565 61.4525 5.28146 61.9135 5.17591C62.3744 5.05864 62.8472 5 63.3318 5C63.8164 5 64.3246 5.07037 64.8565 5.2111C65.4002 5.35183 65.8966 5.57465 66.3458 5.87957C66.7949 6.17276 67.1613 6.54804 67.445 7.00541C67.7405 7.46279 67.8882 8.00812 67.8882 8.64141Z"
              fill="current"/>
        <path d="M79 12.8633V15.2558H77.7412V17.6482H75.0818V15.2558H68.7348V12.8633L75.2059 5.35183H77.7412V12.8633H79ZM75.0818 9.04601L71.8197 12.8633H75.0818V9.04601Z"
              fill="current"/>
        <path d="M0 6.4C0 4.15979 0 3.03969 0.435974 2.18404C0.819467 1.43139 1.43139 0.819467 2.18404 0.435974C3.03969 0 4.15979 0 6.4 0H17.6C19.8402 0 20.9603 0 21.816 0.435974C22.5686 0.819467 23.1805 1.43139 23.564 2.18404C24 3.03969 24 4.15979 24 6.4V17.6C24 19.8402 24 20.9603 23.564 21.816C23.1805 22.5686 22.5686 23.1805 21.816 23.564C20.9603 24 19.8402 24 17.6 24H6.4C4.15979 24 3.03969 24 2.18404 23.564C1.43139 23.1805 0.819467 22.5686 0.435974 21.816C0 20.9603 0 19.8402 0 17.6V6.4Z"
              fill="current"/>
        <path d="M6.79297 6.13369C6.79297 5.87243 7.00476 5.66064 7.26601 5.66064C7.52727 5.66064 7.73906 5.87243 7.73906 6.13369V17.8668C7.73906 18.1281 7.52727 18.3399 7.26601 18.3399C7.00476 18.3399 6.79297 18.1281 6.79297 17.8668V6.13369Z"
              fill="white"/>
        <path d="M9.67976 6.33989C9.67976 5.96475 9.98387 5.66064 10.359 5.66064H10.8927C11.2678 5.66064 11.5719 5.96475 11.5719 6.33989V17.6606C11.5719 18.0358 11.2678 18.3399 10.8927 18.3399H10.359C9.98387 18.3399 9.67976 18.0358 9.67976 17.6606V6.33989Z"
              fill="white"/>
        <path d="M13.5126 6.33989C13.5126 5.96475 13.8168 5.66064 14.1919 5.66064H16.6178C16.9929 5.66064 17.297 5.96475 17.297 6.33989V17.6606C17.297 18.0358 16.9929 18.3399 16.6178 18.3399H14.1919C13.8168 18.3399 13.5126 18.0358 13.5126 17.6606V6.33989Z"
              fill="white"/>
    </g>
    <defs>
        <clipPath id="clip0_3759_13471">
            <rect width="79" height="24" fill="white"/>
        </clipPath>
    </defs>
</svg>
