<svg width="24" height="24" viewBox="0 0 24 24" fill="current" xmlns="http://www.w3.org/2000/svg">
    <g clip-path="url(#clip0_1298_8772)">
        <g clip-path="url(#clip1_1298_8772)">
            <path d="M0 6.4C0 4.15979 0 3.03969 0.435974 2.18404C0.819467 1.43139 1.43139 0.819467 2.18404 0.435974C3.03969 0 4.15979 0 6.4 0H17.6C19.8402 0 20.9603 0 21.816 0.435974C22.5686 0.819467 23.1805 1.43139 23.564 2.18404C24 3.03969 24 4.15979 24 6.4V17.6C24 19.8402 24 20.9603 23.564 21.816C23.1805 22.5686 22.5686 23.1805 21.816 23.564C20.9603 24 19.8402 24 17.6 24H6.4C4.15979 24 3.03969 24 2.18404 23.564C1.43139 23.1805 0.819467 22.5686 0.435974 21.816C0 20.9603 0 19.8402 0 17.6V6.4Z"
                  fill="current"/>
            <path d="M6.79297 6.13369C6.79297 5.87243 7.00476 5.66064 7.26601 5.66064C7.52727 5.66064 7.73906 5.87243 7.73906 6.13369V17.8668C7.73906 18.1281 7.52727 18.3399 7.26601 18.3399C7.00476 18.3399 6.79297 18.1281 6.79297 17.8668V6.13369Z"
                  fill="white"/>
            <path d="M9.67976 6.33989C9.67976 5.96475 9.98387 5.66064 10.359 5.66064H10.8927C11.2678 5.66064 11.5719 5.96475 11.5719 6.33989V17.6606C11.5719 18.0358 11.2678 18.3399 10.8927 18.3399H10.359C9.98387 18.3399 9.67976 18.0358 9.67976 17.6606V6.33989Z"
                  fill="white"/>
            <path d="M13.5126 6.33989C13.5126 5.96475 13.8168 5.66064 14.1919 5.66064H16.6178C16.9929 5.66064 17.297 5.96475 17.297 6.33989V17.6606C17.297 18.0358 16.9929 18.3399 16.6178 18.3399H14.1919C13.8168 18.3399 13.5126 18.0358 13.5126 17.6606V6.33989Z"
                  fill="white"/>
        </g>
    </g>
    <defs>
        <clipPath id="clip0_1298_8772">
            <rect width="24" height="24" fill="white"/>
        </clipPath>
        <clipPath id="clip1_1298_8772">
            <rect width="24" height="24" fill="white"/>
        </clipPath>
    </defs>
</svg>
