<svg xmlns="http://www.w3.org/2000/svg" width="816" height="816" viewBox="0 0 816 816" fill="none">
    <g filter="url(#filter0_f_1447_96760)">
        <path d="M478.827 395.801C417.487 381.787 314.885 347.504 312 344L362.805 433.483L480.919 474.548L500.153 420.923L478.827 395.801Z"
              fill="#309199" fill-opacity="0.5"/>
    </g>
    <path fill-rule="evenodd" clip-rule="evenodd"
          d="M815.5 785.519L815.5 29.9816L816 29.9816L816 785.519L815.5 785.519ZM791.515 785.519L791.515 29.9816L792.015 29.9816L792.015 785.519L791.515 785.519ZM767.53 785.519L767.53 29.9816L768.029 29.9816L768.029 785.519L767.53 785.519ZM743.544 785.519L743.544 29.9816L744.044 29.9816L744.044 785.519L743.544 785.519ZM719.559 785.519L719.559 29.9816L720.059 29.9816L720.059 785.519L719.559 785.519ZM695.574 785.519L695.574 29.9816L696.074 29.9816L696.074 785.519L695.574 785.519ZM671.589 785.519L671.589 29.9816L672.088 29.9816L672.088 785.519L671.589 785.519ZM165.399 -2.84387e-05L650.102 7.74463e-06L650.102 0.499702L165.399 0.499665L165.399 -2.84387e-05ZM165.399 23.9853L650.102 23.9853L650.102 24.485L165.399 24.485L165.399 23.9853ZM648.103 47.9706L650.102 47.9706L650.102 48.4703L648.103 48.4703L648.103 71.956L650.102 71.956L650.102 72.4557L648.103 72.4557L648.103 95.9413L650.102 95.9413L650.102 96.441L648.103 96.441L648.103 119.927L650.102 119.927L650.102 120.426L648.103 120.426L648.103 143.912L650.102 143.912L650.102 144.412L648.103 144.412L648.103 167.897L650.102 167.897L650.102 168.397L648.103 168.397L648.103 191.883L650.102 191.883L650.102 192.382L648.103 192.382L648.103 215.868L650.102 215.868L650.102 216.368L648.103 216.368L648.103 239.853L650.102 239.853L650.102 240.353L648.103 240.353L648.103 263.839L650.102 263.839L650.102 264.338L648.103 264.338L648.103 287.824L650.102 287.824L650.102 288.324L648.103 288.324L648.103 311.809L650.102 311.809L650.102 312.309L648.103 312.309L648.103 335.794L650.101 335.794L650.101 336.294L648.103 336.294L648.103 359.78L650.101 359.78L650.101 360.279L648.103 360.279L648.103 383.765L650.101 383.765L650.101 384.265L648.103 384.265L648.103 407.75L650.101 407.75L650.101 408.25L648.103 408.25L648.103 431.736L650.101 431.736L650.101 432.235L648.103 432.235L648.103 455.721L650.101 455.721L650.101 456.221L648.103 456.221L648.103 479.706L650.101 479.706L650.101 480.206L648.103 480.206L648.103 503.692L650.101 503.692L650.101 504.191L648.103 504.191L648.103 527.677L650.101 527.677L650.101 528.177L648.103 528.177L648.103 551.662L650.101 551.662L650.101 552.162L648.103 552.162L648.103 575.647L650.101 575.647L650.101 576.147L648.103 576.147L648.103 599.633L650.101 599.633L650.101 600.132L648.103 600.132L648.103 623.618L650.101 623.618L650.101 624.118L648.103 624.118L648.103 647.603L650.101 647.603L650.101 648.103L648.103 648.103L648.103 671.589L650.101 671.589L650.101 672.088L648.103 672.088L648.103 695.574L650.101 695.574L650.101 696.074L648.103 696.074L648.103 719.559L650.101 719.559L650.101 720.059L648.103 720.059L648.103 743.545L650.101 743.545L650.101 744.044L648.103 744.044L648.103 767.53L650.101 767.53L650.101 768.03L648.103 768.03L648.103 785.519L647.603 785.519L647.603 768.03L624.118 768.03L624.118 785.519L623.618 785.519L623.618 768.03L600.132 768.03L600.132 785.519L599.633 785.519L599.633 768.03L576.147 768.03L576.147 785.519L575.647 785.519L575.647 768.03L552.162 768.03L552.162 785.519L551.662 785.519L551.662 768.03L528.177 768.03L528.177 785.519L527.677 785.519L527.677 768.03L504.191 768.03L504.191 785.519L503.692 785.519L503.692 768.03L480.206 768.03L480.206 785.519L479.706 785.519L479.706 768.03L456.221 768.03L456.221 785.519L455.721 785.519L455.721 768.03L432.235 768.03L432.235 785.519L431.736 785.519L431.736 768.03L408.25 768.03L408.25 785.519L407.75 785.519L407.75 768.03L384.265 768.03L384.265 785.519L383.765 785.519L383.765 768.03L360.279 768.03L360.279 785.519L359.78 785.519L359.78 768.03L336.294 768.03L336.294 785.519L335.794 785.519L335.794 768.03L312.309 768.03L312.309 785.519L311.809 785.519L311.809 768.03L288.323 768.03L288.323 785.519L287.824 785.519L287.824 768.03L264.338 768.03L264.338 785.519L263.838 785.519L263.838 768.03L240.353 768.03L240.353 785.519L239.853 785.519L239.853 768.03L216.367 768.03L216.367 785.519L215.868 785.519L215.868 768.03L192.382 768.03L192.382 785.519L191.882 785.519L191.882 768.03L168.397 768.03L168.397 785.519L167.897 785.519L167.897 768.03L165.399 768.03L165.399 767.53L167.897 767.53L167.897 744.044L165.399 744.044L165.399 743.545L167.897 743.545L167.897 720.059L165.399 720.059L165.399 719.559L167.897 719.559L167.897 696.074L165.399 696.074L165.399 695.574L167.897 695.574L167.897 672.088L165.399 672.088L165.399 671.589L167.897 671.589L167.897 648.103L165.399 648.103L165.399 647.603L167.897 647.603L167.897 624.118L165.399 624.118L165.399 623.618L167.897 623.618L167.897 600.132L165.399 600.132L165.399 599.633L167.897 599.633L167.897 576.147L165.399 576.147L165.399 575.647L167.897 575.647L167.897 552.162L165.399 552.162L165.399 551.662L167.897 551.662L167.897 528.177L165.399 528.177L165.399 527.677L167.897 527.677L167.897 504.191L165.399 504.191L165.399 503.692L167.897 503.692L167.897 480.206L165.399 480.206L165.399 479.706L167.897 479.706L167.897 456.221L165.399 456.221L165.399 455.721L167.897 455.721L167.897 432.235L165.399 432.235L165.399 431.736L167.897 431.736L167.897 408.25L165.399 408.25L165.399 407.75L167.897 407.75L167.897 384.265L165.399 384.265L165.399 383.765L167.897 383.765L167.897 360.279L165.399 360.279L165.399 359.78L167.897 359.78L167.897 336.294L165.399 336.294L165.399 335.794L167.897 335.794L167.897 312.309L165.399 312.309L165.399 311.809L167.897 311.809L167.897 288.323L165.399 288.323L165.399 287.824L167.897 287.824L167.897 264.338L165.399 264.338L165.399 263.838L167.897 263.838L167.897 240.353L165.399 240.353L165.399 239.853L167.897 239.853L167.897 216.368L165.399 216.368L165.399 215.868L167.897 215.868L167.897 192.382L165.399 192.382L165.399 191.883L167.897 191.883L167.897 168.397L165.399 168.397L165.399 167.897L167.897 167.897L167.897 144.412L165.399 144.412L165.399 143.912L167.897 143.912L167.897 120.426L165.399 120.426L165.399 119.927L167.897 119.927L167.897 96.4409L165.399 96.4409L165.399 95.9412L167.897 95.9412L167.897 72.4556L165.399 72.4556L165.399 71.9559L167.897 71.9559L167.897 48.4703L165.399 48.4703L165.399 47.9706L167.897 47.9706L167.897 29.9816L168.397 29.9816L168.397 47.9706L191.882 47.9706L191.882 29.9816L192.382 29.9816L192.382 47.9706L215.868 47.9706L215.868 29.9816L216.367 29.9816L216.367 47.9706L239.853 47.9706L239.853 29.9816L240.353 29.9816L240.353 47.9706L263.838 47.9706L263.838 29.9816L264.338 29.9816L264.338 47.9706L287.824 47.9706L287.824 29.9816L288.323 29.9816L288.323 47.9706L311.809 47.9706L311.809 29.9816L312.309 29.9816L312.309 47.9706L335.794 47.9706L335.794 29.9816L336.294 29.9816L336.294 47.9706L359.78 47.9706L359.78 29.9816L360.279 29.9816L360.279 47.9706L383.765 47.9706L383.765 29.9816L384.265 29.9816L384.265 47.9706L407.75 47.9706L407.75 29.9816L408.25 29.9816L408.25 47.9706L431.736 47.9706L431.736 29.9816L432.235 29.9816L432.235 47.9706L455.721 47.9706L455.721 29.9816L456.221 29.9816L456.221 47.9706L479.706 47.9706L479.706 29.9816L480.206 29.9816L480.206 47.9706L503.692 47.9706L503.692 29.9816L504.191 29.9816L504.191 47.9706L527.677 47.9706L527.677 29.9816L528.177 29.9816L528.177 47.9706L551.662 47.9706L551.662 29.9816L552.162 29.9816L552.162 47.9706L575.647 47.9706L575.647 29.9816L576.147 29.9816L576.147 47.9706L599.633 47.9706L599.633 29.9816L600.132 29.9816L600.132 47.9706L623.618 47.9706L623.618 29.9816L624.118 29.9816L624.118 47.9706L647.603 47.9706L647.603 29.9816L648.103 29.9816L648.103 47.9706ZM647.603 48.4703L624.118 48.4703L624.118 71.956L647.603 71.956L647.603 48.4703ZM647.603 72.4557L624.118 72.4557L624.118 95.9413L647.603 95.9413L647.603 72.4557ZM647.603 96.441L624.118 96.441L624.118 119.927L647.603 119.927L647.603 96.441ZM647.603 120.426L624.118 120.426L624.118 143.912L647.603 143.912L647.603 120.426ZM647.603 144.412L624.118 144.412L624.118 167.897L647.603 167.897L647.603 144.412ZM647.603 168.397L624.118 168.397L624.118 191.883L647.603 191.883L647.603 168.397ZM647.603 192.382L624.118 192.382L624.118 215.868L647.603 215.868L647.603 192.382ZM647.603 216.368L624.118 216.368L624.118 239.853L647.603 239.853L647.603 216.368ZM647.603 240.353L624.118 240.353L624.118 263.839L647.603 263.839L647.603 240.353ZM647.603 264.338L624.118 264.338L624.118 287.824L647.603 287.824L647.603 264.338ZM647.603 288.324L624.118 288.324L624.118 311.809L647.603 311.809L647.603 288.324ZM647.603 312.309L624.118 312.309L624.118 335.794L647.603 335.794L647.603 312.309ZM647.603 336.294L624.118 336.294L624.118 359.78L647.603 359.78L647.603 336.294ZM647.603 360.279L624.118 360.279L624.118 383.765L647.603 383.765L647.603 360.279ZM647.603 384.265L624.118 384.265L624.118 407.75L647.603 407.75L647.603 384.265ZM647.603 408.25L624.118 408.25L624.118 431.736L647.603 431.736L647.603 408.25ZM647.603 432.235L624.118 432.235L624.118 455.721L647.603 455.721L647.603 432.235ZM647.603 456.221L624.118 456.221L624.118 479.706L647.603 479.706L647.603 456.221ZM647.603 480.206L624.118 480.206L624.118 503.692L647.603 503.692L647.603 480.206ZM647.603 504.191L624.118 504.191L624.118 527.677L647.603 527.677L647.603 504.191ZM647.603 528.177L624.118 528.177L624.118 551.662L647.603 551.662L647.603 528.177ZM647.603 552.162L624.118 552.162L624.118 575.647L647.603 575.647L647.603 552.162ZM647.603 576.147L624.118 576.147L624.118 599.633L647.603 599.633L647.603 576.147ZM647.603 600.132L624.118 600.132L624.118 623.618L647.603 623.618L647.603 600.132ZM647.603 624.118L624.118 624.118L624.118 647.603L647.603 647.603L647.603 624.118ZM647.603 648.103L624.118 648.103L624.118 671.589L647.603 671.589L647.603 648.103ZM647.603 672.088L624.118 672.088L624.118 695.574L647.603 695.574L647.603 672.088ZM647.603 696.074L624.118 696.074L624.118 719.559L647.603 719.559L647.603 696.074ZM647.603 720.059L624.118 720.059L624.118 743.545L647.603 743.545L647.603 720.059ZM647.603 744.044L624.118 744.044L624.118 767.53L647.603 767.53L647.603 744.044ZM623.618 767.53L623.618 744.044L600.132 744.044L600.132 767.53L623.618 767.53ZM599.633 767.53L599.633 744.044L576.147 744.044L576.147 767.53L599.633 767.53ZM575.647 767.53L575.647 744.044L552.162 744.044L552.162 767.53L575.647 767.53ZM551.662 767.53L551.662 744.044L528.177 744.044L528.177 767.53L551.662 767.53ZM527.677 767.53L527.677 744.044L504.191 744.044L504.191 767.53L527.677 767.53ZM503.692 767.53L503.692 744.044L480.206 744.044L480.206 767.53L503.692 767.53ZM479.706 767.53L479.706 744.044L456.221 744.044L456.221 767.53L479.706 767.53ZM455.721 767.53L455.721 744.044L432.235 744.044L432.235 767.53L455.721 767.53ZM431.736 767.53L431.736 744.044L408.25 744.044L408.25 767.53L431.736 767.53ZM407.75 767.53L407.75 744.044L384.265 744.044L384.265 767.53L407.75 767.53ZM383.765 767.53L383.765 744.044L360.279 744.044L360.279 767.53L383.765 767.53ZM359.78 767.53L359.78 744.044L336.294 744.044L336.294 767.53L359.78 767.53ZM335.794 767.53L335.794 744.044L312.309 744.044L312.309 767.53L335.794 767.53ZM311.809 767.53L311.809 744.044L288.323 744.044L288.323 767.53L311.809 767.53ZM287.824 767.53L287.824 744.044L264.338 744.044L264.338 767.53L287.824 767.53ZM263.838 767.53L263.838 744.044L240.353 744.044L240.353 767.53L263.838 767.53ZM239.853 767.53L239.853 744.044L216.367 744.044L216.367 767.53L239.853 767.53ZM215.868 767.53L215.868 744.044L192.382 744.044L192.382 767.53L215.868 767.53ZM191.882 767.53L191.882 744.044L168.397 744.044L168.397 767.53L191.882 767.53ZM168.397 743.545L191.882 743.545L191.882 720.059L168.397 720.059L168.397 743.545ZM168.397 719.559L191.882 719.559L191.882 696.074L168.397 696.074L168.397 719.559ZM168.397 695.574L191.882 695.574L191.882 672.088L168.397 672.088L168.397 695.574ZM168.397 671.589L191.882 671.589L191.882 648.103L168.397 648.103L168.397 671.589ZM168.397 647.603L191.882 647.603L191.882 624.118L168.397 624.118L168.397 647.603ZM168.397 623.618L191.882 623.618L191.882 600.132L168.397 600.132L168.397 623.618ZM168.397 599.633L191.882 599.633L191.882 576.147L168.397 576.147L168.397 599.633ZM168.397 575.647L191.882 575.647L191.882 552.162L168.397 552.162L168.397 575.647ZM168.397 551.662L191.882 551.662L191.882 528.177L168.397 528.177L168.397 551.662ZM168.397 527.677L191.882 527.677L191.882 504.191L168.397 504.191L168.397 527.677ZM168.397 503.692L191.882 503.692L191.882 480.206L168.397 480.206L168.397 503.692ZM168.397 479.706L191.882 479.706L191.882 456.221L168.397 456.221L168.397 479.706ZM168.397 455.721L191.882 455.721L191.882 432.235L168.397 432.235L168.397 455.721ZM168.397 431.736L191.882 431.736L191.882 408.25L168.397 408.25L168.397 431.736ZM168.397 407.75L191.882 407.75L191.882 384.265L168.397 384.265L168.397 407.75ZM168.397 383.765L191.882 383.765L191.882 360.279L168.397 360.279L168.397 383.765ZM168.397 359.78L191.882 359.78L191.882 336.294L168.397 336.294L168.397 359.78ZM168.397 335.794L191.882 335.794L191.882 312.309L168.397 312.309L168.397 335.794ZM168.397 311.809L191.882 311.809L191.882 288.323L168.397 288.323L168.397 311.809ZM168.397 287.824L191.882 287.824L191.882 264.338L168.397 264.338L168.397 287.824ZM168.397 263.838L191.882 263.838L191.882 240.353L168.397 240.353L168.397 263.838ZM168.397 239.853L191.882 239.853L191.882 216.368L168.397 216.368L168.397 239.853ZM168.397 215.868L191.882 215.868L191.882 192.382L168.397 192.382L168.397 215.868ZM168.397 191.883L191.882 191.883L191.882 168.397L168.397 168.397L168.397 191.883ZM168.397 167.897L191.882 167.897L191.882 144.412L168.397 144.412L168.397 167.897ZM168.397 143.912L191.882 143.912L191.882 120.426L168.397 120.426L168.397 143.912ZM168.397 119.927L191.882 119.927L191.882 96.4409L168.397 96.4409L168.397 119.927ZM168.397 95.9412L191.882 95.9412L191.882 72.4556L168.397 72.4556L168.397 95.9412ZM168.397 71.9559L191.882 71.9559L191.882 48.4703L168.397 48.4703L168.397 71.9559ZM192.382 48.4703L192.382 71.9559L215.868 71.9559L215.868 48.4703L192.382 48.4703ZM216.367 48.4703L216.367 71.9559L239.853 71.9559L239.853 48.4703L216.367 48.4703ZM240.353 48.4703L240.353 71.9559L263.838 71.9559L263.838 48.4703L240.353 48.4703ZM264.338 48.4703L264.338 71.9559L287.824 71.9559L287.824 48.4703L264.338 48.4703ZM288.323 48.4703L288.323 71.9559L311.809 71.9559L311.809 48.4703L288.323 48.4703ZM312.309 48.4703L312.309 71.9559L335.794 71.9559L335.794 48.4703L312.309 48.4703ZM336.294 48.4703L336.294 71.9559L359.78 71.9559L359.78 48.4703L336.294 48.4703ZM360.279 48.4703L360.279 71.9559L383.765 71.9559L383.765 48.4703L360.279 48.4703ZM384.265 48.4703L384.265 71.9559L407.75 71.9559L407.75 48.4703L384.265 48.4703ZM408.25 48.4703L408.25 71.9559L431.736 71.9559L431.736 48.4703L408.25 48.4703ZM432.235 48.4703L432.235 71.9559L455.721 71.9559L455.721 48.4703L432.235 48.4703ZM456.221 48.4703L456.221 71.9559L479.706 71.9559L479.706 48.4703L456.221 48.4703ZM480.206 48.4703L480.206 71.9559L503.692 71.9559L503.692 48.4703L480.206 48.4703ZM504.191 48.4703L504.191 71.9559L527.677 71.9559L527.677 48.4703L504.191 48.4703ZM528.177 48.4703L528.177 71.9559L551.662 71.956L551.662 48.4703L528.177 48.4703ZM552.162 48.4703L552.162 71.956L575.647 71.956L575.647 48.4703L552.162 48.4703ZM576.147 48.4703L576.147 71.956L599.633 71.956L599.633 48.4703L576.147 48.4703ZM600.132 48.4703L600.132 71.956L623.618 71.956L623.618 48.4703L600.132 48.4703ZM623.618 72.4557L600.132 72.4557L600.132 95.9413L623.618 95.9413L623.618 72.4557ZM623.618 96.441L600.132 96.441L600.132 119.927L623.618 119.927L623.618 96.441ZM623.618 120.426L600.132 120.426L600.132 143.912L623.618 143.912L623.618 120.426ZM623.618 144.412L600.132 144.412L600.132 167.897L623.618 167.897L623.618 144.412ZM623.618 168.397L600.132 168.397L600.132 191.883L623.618 191.883L623.618 168.397ZM623.618 192.382L600.132 192.382L600.132 215.868L623.618 215.868L623.618 192.382ZM623.618 216.368L600.132 216.368L600.132 239.853L623.618 239.853L623.618 216.368ZM623.618 240.353L600.132 240.353L600.132 263.839L623.618 263.839L623.618 240.353ZM623.618 264.338L600.132 264.338L600.132 287.824L623.618 287.824L623.618 264.338ZM623.618 288.324L600.132 288.324L600.132 311.809L623.618 311.809L623.618 288.324ZM623.618 312.309L600.132 312.309L600.132 335.794L623.618 335.794L623.618 312.309ZM623.618 336.294L600.132 336.294L600.132 359.78L623.618 359.78L623.618 336.294ZM623.618 360.279L600.132 360.279L600.132 383.765L623.618 383.765L623.618 360.279ZM623.618 384.265L600.132 384.265L600.132 407.75L623.618 407.75L623.618 384.265ZM623.618 408.25L600.132 408.25L600.132 431.736L623.618 431.736L623.618 408.25ZM623.618 432.235L600.132 432.235L600.132 455.721L623.618 455.721L623.618 432.235ZM623.618 456.221L600.132 456.221L600.132 479.706L623.618 479.706L623.618 456.221ZM623.618 480.206L600.132 480.206L600.132 503.692L623.618 503.692L623.618 480.206ZM623.618 504.191L600.132 504.191L600.132 527.677L623.618 527.677L623.618 504.191ZM623.618 528.177L600.132 528.177L600.132 551.662L623.618 551.662L623.618 528.177ZM623.618 552.162L600.132 552.162L600.132 575.647L623.618 575.647L623.618 552.162ZM623.618 576.147L600.132 576.147L600.132 599.633L623.618 599.633L623.618 576.147ZM623.618 600.132L600.132 600.132L600.132 623.618L623.618 623.618L623.618 600.132ZM623.618 624.118L600.132 624.118L600.132 647.603L623.618 647.603L623.618 624.118ZM623.618 648.103L600.132 648.103L600.132 671.589L623.618 671.589L623.618 648.103ZM623.618 672.088L600.132 672.088L600.132 695.574L623.618 695.574L623.618 672.088ZM623.618 696.074L600.132 696.074L600.132 719.559L623.618 719.559L623.618 696.074ZM623.618 720.059L600.132 720.059L600.132 743.545L623.618 743.545L623.618 720.059ZM599.633 743.545L599.633 720.059L576.147 720.059L576.147 743.545L599.633 743.545ZM575.647 743.545L575.647 720.059L552.162 720.059L552.162 743.545L575.647 743.545ZM551.662 743.545L551.662 720.059L528.177 720.059L528.177 743.545L551.662 743.545ZM527.677 743.545L527.677 720.059L504.191 720.059L504.191 743.545L527.677 743.545ZM503.692 743.545L503.692 720.059L480.206 720.059L480.206 743.545L503.692 743.545ZM479.706 743.545L479.706 720.059L456.221 720.059L456.221 743.545L479.706 743.545ZM455.721 743.545L455.721 720.059L432.235 720.059L432.235 743.545L455.721 743.545ZM431.736 743.545L431.736 720.059L408.25 720.059L408.25 743.545L431.736 743.545ZM407.75 743.545L407.75 720.059L384.265 720.059L384.265 743.545L407.75 743.545ZM383.765 743.545L383.765 720.059L360.279 720.059L360.279 743.545L383.765 743.545ZM359.78 743.545L359.78 720.059L336.294 720.059L336.294 743.545L359.78 743.545ZM335.794 743.545L335.794 720.059L312.309 720.059L312.309 743.545L335.794 743.545ZM311.809 743.545L311.809 720.059L288.323 720.059L288.323 743.545L311.809 743.545ZM287.824 743.545L287.824 720.059L264.338 720.059L264.338 743.545L287.824 743.545ZM263.838 743.545L263.838 720.059L240.353 720.059L240.353 743.545L263.838 743.545ZM239.853 743.545L239.853 720.059L216.367 720.059L216.367 743.545L239.853 743.545ZM215.868 743.545L215.868 720.059L192.382 720.059L192.382 743.545L215.868 743.545ZM192.382 719.559L215.868 719.559L215.868 696.074L192.382 696.074L192.382 719.559ZM192.382 695.574L215.868 695.574L215.868 672.088L192.382 672.088L192.382 695.574ZM192.382 671.589L215.868 671.589L215.868 648.103L192.382 648.103L192.382 671.589ZM192.382 647.603L215.868 647.603L215.868 624.118L192.382 624.118L192.382 647.603ZM192.382 623.618L215.868 623.618L215.868 600.132L192.382 600.132L192.382 623.618ZM192.382 599.633L215.868 599.633L215.868 576.147L192.382 576.147L192.382 599.633ZM192.382 575.647L215.868 575.647L215.868 552.162L192.382 552.162L192.382 575.647ZM192.382 551.662L215.868 551.662L215.868 528.177L192.382 528.177L192.382 551.662ZM192.382 527.677L215.868 527.677L215.868 504.191L192.382 504.191L192.382 527.677ZM192.382 503.692L215.868 503.692L215.868 480.206L192.382 480.206L192.382 503.692ZM192.382 479.706L215.868 479.706L215.868 456.221L192.382 456.221L192.382 479.706ZM192.382 455.721L215.868 455.721L215.868 432.235L192.382 432.235L192.382 455.721ZM192.382 431.736L215.868 431.736L215.868 408.25L192.382 408.25L192.382 431.736ZM192.382 407.75L215.868 407.75L215.868 384.265L192.382 384.265L192.382 407.75ZM192.382 383.765L215.868 383.765L215.868 360.279L192.382 360.279L192.382 383.765ZM192.382 359.78L215.868 359.78L215.868 336.294L192.382 336.294L192.382 359.78ZM192.382 335.794L215.868 335.794L215.868 312.309L192.382 312.309L192.382 335.794ZM192.382 311.809L215.868 311.809L215.868 288.323L192.382 288.323L192.382 311.809ZM192.382 287.824L215.868 287.824L215.868 264.338L192.382 264.338L192.382 287.824ZM192.382 263.838L215.868 263.838L215.868 240.353L192.382 240.353L192.382 263.838ZM192.382 239.853L215.868 239.853L215.868 216.368L192.382 216.368L192.382 239.853ZM192.382 215.868L215.868 215.868L215.868 192.382L192.382 192.382L192.382 215.868ZM192.382 191.883L215.868 191.883L215.868 168.397L192.382 168.397L192.382 191.883ZM192.382 167.897L215.868 167.897L215.868 144.412L192.382 144.412L192.382 167.897ZM192.382 143.912L215.868 143.912L215.868 120.426L192.382 120.426L192.382 143.912ZM192.382 119.927L215.868 119.927L215.868 96.4409L192.382 96.4409L192.382 119.927ZM192.382 95.9412L215.868 95.9412L215.868 72.4556L192.382 72.4556L192.382 95.9412ZM216.367 72.4556L216.367 95.9412L239.853 95.9412L239.853 72.4556L216.367 72.4556ZM240.353 72.4556L240.353 95.9412L263.838 95.9412L263.838 72.4556L240.353 72.4556ZM264.338 72.4556L264.338 95.9412L287.824 95.9413L287.824 72.4556L264.338 72.4556ZM288.323 72.4556L288.323 95.9413L311.809 95.9413L311.809 72.4556L288.323 72.4556ZM312.309 72.4556L312.309 95.9413L335.794 95.9413L335.794 72.4556L312.309 72.4556ZM336.294 72.4556L336.294 95.9413L359.78 95.9413L359.78 72.4556L336.294 72.4556ZM360.279 72.4556L360.279 95.9413L383.765 95.9413L383.765 72.4556L360.279 72.4556ZM384.265 72.4556L384.265 95.9413L407.75 95.9413L407.75 72.4556L384.265 72.4556ZM408.25 72.4556L408.25 95.9413L431.736 95.9413L431.736 72.4556L408.25 72.4556ZM432.235 72.4556L432.235 95.9413L455.721 95.9413L455.721 72.4556L432.235 72.4556ZM456.221 72.4556L456.221 95.9413L479.706 95.9413L479.706 72.4556L456.221 72.4556ZM480.206 72.4556L480.206 95.9413L503.692 95.9413L503.692 72.4556L480.206 72.4556ZM504.191 72.4556L504.191 95.9413L527.677 95.9413L527.677 72.4556L504.191 72.4556ZM528.177 72.4556L528.177 95.9413L551.662 95.9413L551.662 72.4557L528.177 72.4556ZM552.162 72.4557L552.162 95.9413L575.647 95.9413L575.647 72.4557L552.162 72.4557ZM576.147 72.4557L576.147 95.9413L599.633 95.9413L599.633 72.4557L576.147 72.4557ZM599.633 96.441L576.147 96.441L576.147 119.927L599.633 119.927L599.633 96.441ZM599.633 120.426L576.147 120.426L576.147 143.912L599.633 143.912L599.633 120.426ZM599.633 144.412L576.147 144.412L576.147 167.897L599.633 167.897L599.633 144.412ZM599.633 168.397L576.147 168.397L576.147 191.883L599.633 191.883L599.633 168.397ZM599.633 192.382L576.147 192.382L576.147 215.868L599.633 215.868L599.633 192.382ZM599.633 216.368L576.147 216.368L576.147 239.853L599.633 239.853L599.633 216.368ZM599.633 240.353L576.147 240.353L576.147 263.839L599.633 263.839L599.633 240.353ZM599.633 264.338L576.147 264.338L576.147 287.824L599.633 287.824L599.633 264.338ZM599.633 288.324L576.147 288.324L576.147 311.809L599.633 311.809L599.633 288.324ZM599.633 312.309L576.147 312.309L576.147 335.794L599.633 335.794L599.633 312.309ZM599.633 336.294L576.147 336.294L576.147 359.78L599.633 359.78L599.633 336.294ZM599.633 360.279L576.147 360.279L576.147 383.765L599.633 383.765L599.633 360.279ZM599.633 384.265L576.147 384.265L576.147 407.75L599.633 407.75L599.633 384.265ZM599.633 408.25L576.147 408.25L576.147 431.736L599.633 431.736L599.633 408.25ZM599.633 432.235L576.147 432.235L576.147 455.721L599.633 455.721L599.633 432.235ZM599.633 456.221L576.147 456.221L576.147 479.706L599.633 479.706L599.633 456.221ZM599.633 480.206L576.147 480.206L576.147 503.692L599.633 503.692L599.633 480.206ZM599.633 504.191L576.147 504.191L576.147 527.677L599.633 527.677L599.633 504.191ZM599.633 528.177L576.147 528.177L576.147 551.662L599.633 551.662L599.633 528.177ZM599.633 552.162L576.147 552.162L576.147 575.647L599.633 575.647L599.633 552.162ZM599.633 576.147L576.147 576.147L576.147 599.633L599.633 599.633L599.633 576.147ZM599.633 600.132L576.147 600.132L576.147 623.618L599.633 623.618L599.633 600.132ZM599.633 624.118L576.147 624.118L576.147 647.603L599.633 647.603L599.633 624.118ZM599.633 648.103L576.147 648.103L576.147 671.589L599.633 671.589L599.633 648.103ZM599.633 672.088L576.147 672.088L576.147 695.574L599.633 695.574L599.633 672.088ZM599.633 696.074L576.147 696.074L576.147 719.559L599.633 719.559L599.633 696.074ZM575.647 719.559L575.647 696.074L552.162 696.074L552.162 719.559L575.647 719.559ZM551.662 719.559L551.662 696.074L528.177 696.074L528.177 719.559L551.662 719.559ZM527.677 719.559L527.677 696.074L504.191 696.074L504.191 719.559L527.677 719.559ZM503.692 719.559L503.692 696.074L480.206 696.074L480.206 719.559L503.692 719.559ZM479.706 719.559L479.706 696.074L456.221 696.074L456.221 719.559L479.706 719.559ZM455.721 719.559L455.721 696.074L432.235 696.074L432.235 719.559L455.721 719.559ZM431.736 719.559L431.736 696.074L408.25 696.074L408.25 719.559L431.736 719.559ZM407.75 719.559L407.75 696.074L384.265 696.074L384.265 719.559L407.75 719.559ZM383.765 719.559L383.765 696.074L360.279 696.074L360.279 719.559L383.765 719.559ZM359.78 719.559L359.78 696.074L336.294 696.074L336.294 719.559L359.78 719.559ZM335.794 719.559L335.794 696.074L312.309 696.074L312.309 719.559L335.794 719.559ZM311.809 719.559L311.809 696.074L288.323 696.074L288.323 719.559L311.809 719.559ZM287.824 719.559L287.824 696.074L264.338 696.074L264.338 719.559L287.824 719.559ZM263.838 719.559L263.838 696.074L240.353 696.074L240.353 719.559L263.838 719.559ZM239.853 719.559L239.853 696.074L216.367 696.074L216.367 719.559L239.853 719.559ZM216.367 695.574L239.853 695.574L239.853 672.088L216.367 672.088L216.367 695.574ZM216.367 671.589L239.853 671.589L239.853 648.103L216.367 648.103L216.367 671.589ZM216.367 647.603L239.853 647.603L239.853 624.118L216.367 624.118L216.367 647.603ZM216.367 623.618L239.853 623.618L239.853 600.132L216.367 600.132L216.367 623.618ZM216.367 599.633L239.853 599.633L239.853 576.147L216.367 576.147L216.367 599.633ZM216.367 575.647L239.853 575.647L239.853 552.162L216.367 552.162L216.367 575.647ZM216.367 551.662L239.853 551.662L239.853 528.177L216.367 528.177L216.367 551.662ZM216.367 527.677L239.853 527.677L239.853 504.191L216.367 504.191L216.367 527.677ZM216.367 503.692L239.853 503.692L239.853 480.206L216.367 480.206L216.367 503.692ZM216.367 479.706L239.853 479.706L239.853 456.221L216.367 456.221L216.367 479.706ZM216.367 455.721L239.853 455.721L239.853 432.235L216.367 432.235L216.367 455.721ZM216.367 431.736L239.853 431.736L239.853 408.25L216.367 408.25L216.367 431.736ZM216.367 407.75L239.853 407.75L239.853 384.265L216.367 384.265L216.367 407.75ZM216.367 383.765L239.853 383.765L239.853 360.279L216.367 360.279L216.367 383.765ZM216.367 359.78L239.853 359.78L239.853 336.294L216.367 336.294L216.367 359.78ZM216.367 335.794L239.853 335.794L239.853 312.309L216.367 312.309L216.367 335.794ZM216.367 311.809L239.853 311.809L239.853 288.323L216.367 288.323L216.367 311.809ZM216.367 287.824L239.853 287.824L239.853 264.338L216.367 264.338L216.367 287.824ZM216.367 263.838L239.853 263.838L239.853 240.353L216.367 240.353L216.367 263.838ZM216.367 239.853L239.853 239.853L239.853 216.368L216.367 216.368L216.367 239.853ZM216.367 215.868L239.853 215.868L239.853 192.382L216.367 192.382L216.367 215.868ZM216.367 191.883L239.853 191.883L239.853 168.397L216.367 168.397L216.367 191.883ZM216.367 167.897L239.853 167.897L239.853 144.412L216.367 144.412L216.367 167.897ZM216.367 143.912L239.853 143.912L239.853 120.426L216.367 120.426L216.367 143.912ZM216.367 119.927L239.853 119.927L239.853 96.4409L216.367 96.4409L216.367 119.927ZM240.353 96.4409L240.353 119.927L263.838 119.927L263.838 96.4409L240.353 96.4409ZM264.338 96.4409L264.338 119.927L287.824 119.927L287.824 96.441L264.338 96.4409ZM288.323 96.441L288.323 119.927L311.809 119.927L311.809 96.441L288.323 96.441ZM312.309 96.441L312.309 119.927L335.794 119.927L335.794 96.441L312.309 96.441ZM336.294 96.441L336.294 119.927L359.78 119.927L359.78 96.441L336.294 96.441ZM360.279 96.441L360.279 119.927L383.765 119.927L383.765 96.441L360.279 96.441ZM384.265 96.441L384.265 119.927L407.75 119.927L407.75 96.441L384.265 96.441ZM408.25 96.441L408.25 119.927L431.736 119.927L431.736 96.441L408.25 96.441ZM432.235 96.441L432.235 119.927L455.721 119.927L455.721 96.441L432.235 96.441ZM456.221 96.441L456.221 119.927L479.706 119.927L479.706 96.441L456.221 96.441ZM480.206 96.441L480.206 119.927L503.692 119.927L503.692 96.441L480.206 96.441ZM504.191 96.441L504.191 119.927L527.677 119.927L527.677 96.441L504.191 96.441ZM528.177 96.441L528.177 119.927L551.662 119.927L551.662 96.441L528.177 96.441ZM552.162 96.441L552.162 119.927L575.647 119.927L575.647 96.441L552.162 96.441ZM575.647 120.426L552.162 120.426L552.162 143.912L575.647 143.912L575.647 120.426ZM575.647 144.412L552.162 144.412L552.162 167.897L575.647 167.897L575.647 144.412ZM575.647 168.397L552.162 168.397L552.162 191.883L575.647 191.883L575.647 168.397ZM575.647 192.382L552.162 192.382L552.162 215.868L575.647 215.868L575.647 192.382ZM575.647 216.368L552.162 216.368L552.162 239.853L575.647 239.853L575.647 216.368ZM575.647 240.353L552.162 240.353L552.162 263.839L575.647 263.839L575.647 240.353ZM575.647 264.338L552.162 264.338L552.162 287.824L575.647 287.824L575.647 264.338ZM575.647 288.324L552.162 288.324L552.162 311.809L575.647 311.809L575.647 288.324ZM575.647 312.309L552.162 312.309L552.162 335.794L575.647 335.794L575.647 312.309ZM575.647 336.294L552.162 336.294L552.162 359.78L575.647 359.78L575.647 336.294ZM575.647 360.279L552.162 360.279L552.162 383.765L575.647 383.765L575.647 360.279ZM575.647 384.265L552.162 384.265L552.162 407.75L575.647 407.75L575.647 384.265ZM575.647 408.25L552.162 408.25L552.162 431.736L575.647 431.736L575.647 408.25ZM575.647 432.235L552.162 432.235L552.162 455.721L575.647 455.721L575.647 432.235ZM575.647 456.221L552.162 456.221L552.162 479.706L575.647 479.706L575.647 456.221ZM575.647 480.206L552.162 480.206L552.162 503.692L575.647 503.692L575.647 480.206ZM575.647 504.191L552.162 504.191L552.162 527.677L575.647 527.677L575.647 504.191ZM575.647 528.177L552.162 528.177L552.162 551.662L575.647 551.662L575.647 528.177ZM575.647 552.162L552.162 552.162L552.162 575.647L575.647 575.647L575.647 552.162ZM575.647 576.147L552.162 576.147L552.162 599.633L575.647 599.633L575.647 576.147ZM575.647 600.132L552.162 600.132L552.162 623.618L575.647 623.618L575.647 600.132ZM575.647 624.118L552.162 624.118L552.162 647.603L575.647 647.603L575.647 624.118ZM575.647 648.103L552.162 648.103L552.162 671.589L575.647 671.589L575.647 648.103ZM575.647 672.088L552.162 672.088L552.162 695.574L575.647 695.574L575.647 672.088ZM551.662 695.574L551.662 672.088L528.177 672.088L528.177 695.574L551.662 695.574ZM527.677 695.574L527.677 672.088L504.191 672.088L504.191 695.574L527.677 695.574ZM503.692 695.574L503.692 672.088L480.206 672.088L480.206 695.574L503.692 695.574ZM479.706 695.574L479.706 672.088L456.221 672.088L456.221 695.574L479.706 695.574ZM455.721 695.574L455.721 672.088L432.235 672.088L432.235 695.574L455.721 695.574ZM431.736 695.574L431.736 672.088L408.25 672.088L408.25 695.574L431.736 695.574ZM407.75 695.574L407.75 672.088L384.265 672.088L384.265 695.574L407.75 695.574ZM383.765 695.574L383.765 672.088L360.279 672.088L360.279 695.574L383.765 695.574ZM359.78 695.574L359.78 672.088L336.294 672.088L336.294 695.574L359.78 695.574ZM335.794 695.574L335.794 672.088L312.309 672.088L312.309 695.574L335.794 695.574ZM311.809 695.574L311.809 672.088L288.323 672.088L288.323 695.574L311.809 695.574ZM287.824 695.574L287.824 672.088L264.338 672.088L264.338 695.574L287.824 695.574ZM263.838 695.574L263.838 672.088L240.353 672.088L240.353 695.574L263.838 695.574ZM240.353 671.589L263.838 671.589L263.838 648.103L240.353 648.103L240.353 671.589ZM240.353 647.603L263.838 647.603L263.838 624.118L240.353 624.118L240.353 647.603ZM240.353 623.618L263.838 623.618L263.838 600.132L240.353 600.132L240.353 623.618ZM240.353 599.633L263.838 599.633L263.838 576.147L240.353 576.147L240.353 599.633ZM240.353 575.647L263.838 575.647L263.838 552.162L240.353 552.162L240.353 575.647ZM240.353 551.662L263.838 551.662L263.838 528.177L240.353 528.177L240.353 551.662ZM240.353 527.677L263.838 527.677L263.838 504.191L240.353 504.191L240.353 527.677ZM240.353 503.692L263.838 503.692L263.838 480.206L240.353 480.206L240.353 503.692ZM240.353 479.706L263.838 479.706L263.838 456.221L240.353 456.221L240.353 479.706ZM240.353 455.721L263.838 455.721L263.838 432.235L240.353 432.235L240.353 455.721ZM240.353 431.736L263.838 431.736L263.838 408.25L240.353 408.25L240.353 431.736ZM240.353 407.75L263.838 407.75L263.838 384.265L240.353 384.265L240.353 407.75ZM240.353 383.765L263.838 383.765L263.838 360.279L240.353 360.279L240.353 383.765ZM240.353 359.78L263.838 359.78L263.838 336.294L240.353 336.294L240.353 359.78ZM240.353 335.794L263.838 335.794L263.838 312.309L240.353 312.309L240.353 335.794ZM240.353 311.809L263.838 311.809L263.838 288.323L240.353 288.323L240.353 311.809ZM240.353 287.824L263.838 287.824L263.838 264.338L240.353 264.338L240.353 287.824ZM240.353 263.838L263.838 263.838L263.838 240.353L240.353 240.353L240.353 263.838ZM240.353 239.853L263.838 239.853L263.838 216.368L240.353 216.368L240.353 239.853ZM240.353 215.868L263.838 215.868L263.838 192.382L240.353 192.382L240.353 215.868ZM240.353 191.883L263.838 191.883L263.838 168.397L240.353 168.397L240.353 191.883ZM240.353 167.897L263.838 167.897L263.838 144.412L240.353 144.412L240.353 167.897ZM240.353 143.912L263.838 143.912L263.838 120.426L240.353 120.426L240.353 143.912ZM264.338 120.426L264.338 143.912L287.824 143.912L287.824 120.426L264.338 120.426ZM288.323 120.426L288.323 143.912L311.809 143.912L311.809 120.426L288.323 120.426ZM312.309 120.426L312.309 143.912L335.794 143.912L335.794 120.426L312.309 120.426ZM336.294 120.426L336.294 143.912L359.78 143.912L359.78 120.426L336.294 120.426ZM360.279 120.426L360.279 143.912L383.765 143.912L383.765 120.426L360.279 120.426ZM384.265 120.426L384.265 143.912L407.75 143.912L407.75 120.426L384.265 120.426ZM408.25 120.426L408.25 143.912L431.736 143.912L431.736 120.426L408.25 120.426ZM432.235 120.426L432.235 143.912L455.721 143.912L455.721 120.426L432.235 120.426ZM456.221 120.426L456.221 143.912L479.706 143.912L479.706 120.426L456.221 120.426ZM480.206 120.426L480.206 143.912L503.692 143.912L503.692 120.426L480.206 120.426ZM504.191 120.426L504.191 143.912L527.677 143.912L527.677 120.426L504.191 120.426ZM528.177 120.426L528.177 143.912L551.662 143.912L551.662 120.426L528.177 120.426ZM551.662 144.412L528.177 144.412L528.177 167.897L551.662 167.897L551.662 144.412ZM551.662 168.397L528.177 168.397L528.177 191.883L551.662 191.883L551.662 168.397ZM551.662 192.382L528.177 192.382L528.177 215.868L551.662 215.868L551.662 192.382ZM551.662 216.368L528.177 216.368L528.177 239.853L551.662 239.853L551.662 216.368ZM551.662 240.353L528.177 240.353L528.177 263.839L551.662 263.839L551.662 240.353ZM551.662 264.338L528.177 264.338L528.177 287.824L551.662 287.824L551.662 264.338ZM551.662 288.324L528.177 288.323L528.177 311.809L551.662 311.809L551.662 288.324ZM551.662 312.309L528.177 312.309L528.177 335.794L551.662 335.794L551.662 312.309ZM551.662 336.294L528.177 336.294L528.177 359.78L551.662 359.78L551.662 336.294ZM551.662 360.279L528.177 360.279L528.177 383.765L551.662 383.765L551.662 360.279ZM551.662 384.265L528.177 384.265L528.177 407.75L551.662 407.75L551.662 384.265ZM551.662 408.25L528.177 408.25L528.177 431.736L551.662 431.736L551.662 408.25ZM551.662 432.235L528.177 432.235L528.177 455.721L551.662 455.721L551.662 432.235ZM551.662 456.221L528.177 456.221L528.177 479.706L551.662 479.706L551.662 456.221ZM551.662 480.206L528.177 480.206L528.177 503.692L551.662 503.692L551.662 480.206ZM551.662 504.191L528.177 504.191L528.177 527.677L551.662 527.677L551.662 504.191ZM551.662 528.177L528.177 528.177L528.177 551.662L551.662 551.662L551.662 528.177ZM551.662 552.162L528.177 552.162L528.177 575.647L551.662 575.647L551.662 552.162ZM551.662 576.147L528.177 576.147L528.177 599.633L551.662 599.633L551.662 576.147ZM551.662 600.132L528.177 600.132L528.177 623.618L551.662 623.618L551.662 600.132ZM551.662 624.118L528.177 624.118L528.177 647.603L551.662 647.603L551.662 624.118ZM551.662 648.103L528.177 648.103L528.177 671.589L551.662 671.589L551.662 648.103ZM527.677 671.589L527.677 648.103L504.191 648.103L504.191 671.589L527.677 671.589ZM503.692 671.589L503.692 648.103L480.206 648.103L480.206 671.589L503.692 671.589ZM479.706 671.589L479.706 648.103L456.221 648.103L456.221 671.589L479.706 671.589ZM455.721 671.589L455.721 648.103L432.235 648.103L432.235 671.589L455.721 671.589ZM431.736 671.589L431.736 648.103L408.25 648.103L408.25 671.589L431.736 671.589ZM407.75 671.589L407.75 648.103L384.265 648.103L384.265 671.589L407.75 671.589ZM383.765 671.589L383.765 648.103L360.279 648.103L360.279 671.589L383.765 671.589ZM359.78 671.589L359.78 648.103L336.294 648.103L336.294 671.589L359.78 671.589ZM335.794 671.589L335.794 648.103L312.309 648.103L312.309 671.589L335.794 671.589ZM311.809 671.589L311.809 648.103L288.323 648.103L288.323 671.589L311.809 671.589ZM287.824 671.589L287.824 648.103L264.338 648.103L264.338 671.589L287.824 671.589ZM264.338 647.603L287.824 647.603L287.824 624.118L264.338 624.118L264.338 647.603ZM264.338 623.618L287.824 623.618L287.824 600.132L264.338 600.132L264.338 623.618ZM264.338 599.633L287.824 599.633L287.824 576.147L264.338 576.147L264.338 599.633ZM264.338 575.647L287.824 575.647L287.824 552.162L264.338 552.162L264.338 575.647ZM264.338 551.662L287.824 551.662L287.824 528.177L264.338 528.177L264.338 551.662ZM264.338 527.677L287.824 527.677L287.824 504.191L264.338 504.191L264.338 527.677ZM264.338 503.692L287.824 503.692L287.824 480.206L264.338 480.206L264.338 503.692ZM264.338 479.706L287.824 479.706L287.824 456.221L264.338 456.221L264.338 479.706ZM264.338 455.721L287.824 455.721L287.824 432.235L264.338 432.235L264.338 455.721ZM264.338 431.736L287.824 431.736L287.824 408.25L264.338 408.25L264.338 431.736ZM264.338 407.75L287.824 407.75L287.824 384.265L264.338 384.265L264.338 407.75ZM264.338 383.765L287.824 383.765L287.824 360.279L264.338 360.279L264.338 383.765ZM264.338 359.78L287.824 359.78L287.824 336.294L264.338 336.294L264.338 359.78ZM264.338 335.794L287.824 335.794L287.824 312.309L264.338 312.309L264.338 335.794ZM264.338 311.809L287.824 311.809L287.824 288.323L264.338 288.323L264.338 311.809ZM264.338 287.824L287.824 287.824L287.824 264.338L264.338 264.338L264.338 287.824ZM264.338 263.838L287.824 263.838L287.824 240.353L264.338 240.353L264.338 263.838ZM264.338 239.853L287.824 239.853L287.824 216.368L264.338 216.368L264.338 239.853ZM264.338 215.868L287.824 215.868L287.824 192.382L264.338 192.382L264.338 215.868ZM264.338 191.883L287.824 191.883L287.824 168.397L264.338 168.397L264.338 191.883ZM264.338 167.897L287.824 167.897L287.824 144.412L264.338 144.412L264.338 167.897ZM288.323 144.412L288.323 167.897L311.809 167.897L311.809 144.412L288.323 144.412ZM312.309 144.412L312.309 167.897L335.794 167.897L335.794 144.412L312.309 144.412ZM336.294 144.412L336.294 167.897L359.78 167.897L359.78 144.412L336.294 144.412ZM360.279 144.412L360.279 167.897L383.765 167.897L383.765 144.412L360.279 144.412ZM384.265 144.412L384.265 167.897L407.75 167.897L407.75 144.412L384.265 144.412ZM408.25 144.412L408.25 167.897L431.736 167.897L431.736 144.412L408.25 144.412ZM432.235 144.412L432.235 167.897L455.721 167.897L455.721 144.412L432.235 144.412ZM456.221 144.412L456.221 167.897L479.706 167.897L479.706 144.412L456.221 144.412ZM480.206 144.412L480.206 167.897L503.692 167.897L503.692 144.412L480.206 144.412ZM504.191 144.412L504.191 167.897L527.677 167.897L527.677 144.412L504.191 144.412ZM527.677 168.397L504.191 168.397L504.191 191.883L527.677 191.883L527.677 168.397ZM527.677 192.382L504.191 192.382L504.191 215.868L527.677 215.868L527.677 192.382ZM527.677 216.368L504.191 216.368L504.191 239.853L527.677 239.853L527.677 216.368ZM527.677 240.353L504.191 240.353L504.191 263.839L527.677 263.839L527.677 240.353ZM527.677 264.338L504.191 264.338L504.191 287.824L527.677 287.824L527.677 264.338ZM527.677 288.323L504.191 288.323L504.191 311.809L527.677 311.809L527.677 288.323ZM527.677 312.309L504.191 312.309L504.191 335.794L527.677 335.794L527.677 312.309ZM527.677 336.294L504.191 336.294L504.191 359.78L527.677 359.78L527.677 336.294ZM527.677 360.279L504.191 360.279L504.191 383.765L527.677 383.765L527.677 360.279ZM527.677 384.265L504.191 384.265L504.191 407.75L527.677 407.75L527.677 384.265ZM527.677 408.25L504.191 408.25L504.191 431.736L527.677 431.736L527.677 408.25ZM527.677 432.235L504.191 432.235L504.191 455.721L527.677 455.721L527.677 432.235ZM527.677 456.221L504.191 456.221L504.191 479.706L527.677 479.706L527.677 456.221ZM527.677 480.206L504.191 480.206L504.191 503.692L527.677 503.692L527.677 480.206ZM527.677 504.191L504.191 504.191L504.191 527.677L527.677 527.677L527.677 504.191ZM527.677 528.177L504.191 528.177L504.191 551.662L527.677 551.662L527.677 528.177ZM527.677 552.162L504.191 552.162L504.191 575.647L527.677 575.647L527.677 552.162ZM527.677 576.147L504.191 576.147L504.191 599.633L527.677 599.633L527.677 576.147ZM527.677 600.132L504.191 600.132L504.191 623.618L527.677 623.618L527.677 600.132ZM527.677 624.118L504.191 624.118L504.191 647.603L527.677 647.603L527.677 624.118ZM503.692 647.603L503.692 624.118L480.206 624.118L480.206 647.603L503.692 647.603ZM479.706 647.603L479.706 624.118L456.221 624.118L456.221 647.603L479.706 647.603ZM455.721 647.603L455.721 624.118L432.235 624.118L432.235 647.603L455.721 647.603ZM431.736 647.603L431.736 624.118L408.25 624.118L408.25 647.603L431.736 647.603ZM407.75 647.603L407.75 624.118L384.265 624.118L384.265 647.603L407.75 647.603ZM383.765 647.603L383.765 624.118L360.279 624.118L360.279 647.603L383.765 647.603ZM359.78 647.603L359.78 624.118L336.294 624.118L336.294 647.603L359.78 647.603ZM335.794 647.603L335.794 624.118L312.309 624.118L312.309 647.603L335.794 647.603ZM311.809 647.603L311.809 624.118L288.323 624.118L288.323 647.603L311.809 647.603ZM288.323 623.618L311.809 623.618L311.809 600.132L288.323 600.132L288.323 623.618ZM288.323 599.633L311.809 599.633L311.809 576.147L288.323 576.147L288.323 599.633ZM288.323 575.647L311.809 575.647L311.809 552.162L288.323 552.162L288.323 575.647ZM288.323 551.662L311.809 551.662L311.809 528.177L288.323 528.177L288.323 551.662ZM288.323 527.677L311.809 527.677L311.809 504.191L288.323 504.191L288.323 527.677ZM288.323 503.692L311.809 503.692L311.809 480.206L288.323 480.206L288.323 503.692ZM288.323 479.706L311.809 479.706L311.809 456.221L288.323 456.221L288.323 479.706ZM288.323 455.721L311.809 455.721L311.809 432.235L288.323 432.235L288.323 455.721ZM288.323 431.736L311.809 431.736L311.809 408.25L288.323 408.25L288.323 431.736ZM288.323 407.75L311.809 407.75L311.809 384.265L288.323 384.265L288.323 407.75ZM288.323 383.765L311.809 383.765L311.809 360.279L288.323 360.279L288.323 383.765ZM288.323 359.78L311.809 359.78L311.809 336.294L288.323 336.294L288.323 359.78ZM288.323 335.794L311.809 335.794L311.809 312.309L288.323 312.309L288.323 335.794ZM288.323 311.809L311.809 311.809L311.809 288.323L288.323 288.323L288.323 311.809ZM288.323 287.824L311.809 287.824L311.809 264.338L288.323 264.338L288.323 287.824ZM288.323 263.838L311.809 263.838L311.809 240.353L288.323 240.353L288.323 263.838ZM288.323 239.853L311.809 239.853L311.809 216.368L288.323 216.368L288.323 239.853ZM288.323 215.868L311.809 215.868L311.809 192.382L288.323 192.382L288.323 215.868ZM288.323 191.883L311.809 191.883L311.809 168.397L288.323 168.397L288.323 191.883ZM312.309 168.397L312.309 191.883L335.794 191.883L335.794 168.397L312.309 168.397ZM336.294 168.397L336.294 191.883L359.78 191.883L359.78 168.397L336.294 168.397ZM360.279 168.397L360.279 191.883L383.765 191.883L383.765 168.397L360.279 168.397ZM384.265 168.397L384.265 191.883L407.75 191.883L407.75 168.397L384.265 168.397ZM408.25 168.397L408.25 191.883L431.736 191.883L431.736 168.397L408.25 168.397ZM432.235 168.397L432.235 191.883L455.721 191.883L455.721 168.397L432.235 168.397ZM456.221 168.397L456.221 191.883L479.706 191.883L479.706 168.397L456.221 168.397ZM480.206 168.397L480.206 191.883L503.692 191.883L503.692 168.397L480.206 168.397ZM503.692 192.382L480.206 192.382L480.206 215.868L503.692 215.868L503.692 192.382ZM503.692 216.368L480.206 216.368L480.206 239.853L503.692 239.853L503.692 216.368ZM503.692 240.353L480.206 240.353L480.206 263.839L503.692 263.839L503.692 240.353ZM503.692 264.338L480.206 264.338L480.206 287.824L503.692 287.824L503.692 264.338ZM503.692 288.323L480.206 288.323L480.206 311.809L503.692 311.809L503.692 288.323ZM503.692 312.309L480.206 312.309L480.206 335.794L503.692 335.794L503.692 312.309ZM503.692 336.294L480.206 336.294L480.206 359.78L503.692 359.78L503.692 336.294ZM503.692 360.279L480.206 360.279L480.206 383.765L503.692 383.765L503.692 360.279ZM503.692 384.265L480.206 384.265L480.206 407.75L503.692 407.75L503.692 384.265ZM503.692 408.25L480.206 408.25L480.206 431.736L503.692 431.736L503.692 408.25ZM503.692 432.235L480.206 432.235L480.206 455.721L503.692 455.721L503.692 432.235ZM503.692 456.221L480.206 456.221L480.206 479.706L503.692 479.706L503.692 456.221ZM503.692 480.206L480.206 480.206L480.206 503.692L503.692 503.692L503.692 480.206ZM503.692 504.191L480.206 504.191L480.206 527.677L503.692 527.677L503.692 504.191ZM503.692 528.177L480.206 528.177L480.206 551.662L503.692 551.662L503.692 528.177ZM503.692 552.162L480.206 552.162L480.206 575.647L503.692 575.647L503.692 552.162ZM503.692 576.147L480.206 576.147L480.206 599.633L503.692 599.633L503.692 576.147ZM503.692 600.132L480.206 600.132L480.206 623.618L503.692 623.618L503.692 600.132ZM479.706 623.618L479.706 600.132L456.221 600.132L456.221 623.618L479.706 623.618ZM455.721 623.618L455.721 600.132L432.235 600.132L432.235 623.618L455.721 623.618ZM431.736 623.618L431.736 600.132L408.25 600.132L408.25 623.618L431.736 623.618ZM407.75 623.618L407.75 600.132L384.265 600.132L384.265 623.618L407.75 623.618ZM383.765 623.618L383.765 600.132L360.279 600.132L360.279 623.618L383.765 623.618ZM359.78 623.618L359.78 600.132L336.294 600.132L336.294 623.618L359.78 623.618ZM335.794 623.618L335.794 600.132L312.309 600.132L312.309 623.618L335.794 623.618ZM312.309 599.633L335.794 599.633L335.794 576.147L312.309 576.147L312.309 599.633ZM312.309 575.647L335.794 575.647L335.794 552.162L312.309 552.162L312.309 575.647ZM312.309 551.662L335.794 551.662L335.794 528.177L312.309 528.177L312.309 551.662ZM312.309 527.677L335.794 527.677L335.794 504.191L312.309 504.191L312.309 527.677ZM312.309 503.692L335.794 503.692L335.794 480.206L312.309 480.206L312.309 503.692ZM312.309 479.706L335.794 479.706L335.794 456.221L312.309 456.221L312.309 479.706ZM312.309 455.721L335.794 455.721L335.794 432.235L312.309 432.235L312.309 455.721ZM312.309 431.736L335.794 431.736L335.794 408.25L312.309 408.25L312.309 431.736ZM312.309 407.75L335.794 407.75L335.794 384.265L312.309 384.265L312.309 407.75ZM312.309 383.765L335.794 383.765L335.794 360.279L312.309 360.279L312.309 383.765ZM312.309 359.78L335.794 359.78L335.794 336.294L312.309 336.294L312.309 359.78ZM312.309 335.794L335.794 335.794L335.794 312.309L312.309 312.309L312.309 335.794ZM312.309 311.809L335.794 311.809L335.794 288.323L312.309 288.323L312.309 311.809ZM312.309 287.824L335.794 287.824L335.794 264.338L312.309 264.338L312.309 287.824ZM312.309 263.838L335.794 263.838L335.794 240.353L312.309 240.353L312.309 263.838ZM312.309 239.853L335.794 239.853L335.794 216.368L312.309 216.368L312.309 239.853ZM312.309 215.868L335.794 215.868L335.794 192.382L312.309 192.382L312.309 215.868ZM336.294 192.382L336.294 215.868L359.78 215.868L359.78 192.382L336.294 192.382ZM360.279 192.382L360.279 215.868L383.765 215.868L383.765 192.382L360.279 192.382ZM384.265 192.382L384.265 215.868L407.75 215.868L407.75 192.382L384.265 192.382ZM408.25 192.382L408.25 215.868L431.736 215.868L431.736 192.382L408.25 192.382ZM432.235 192.382L432.235 215.868L455.721 215.868L455.721 192.382L432.235 192.382ZM456.221 192.382L456.221 215.868L479.706 215.868L479.706 192.382L456.221 192.382ZM479.706 216.368L456.221 216.368L456.221 239.853L479.706 239.853L479.706 216.368ZM479.706 240.353L456.221 240.353L456.221 263.838L479.706 263.839L479.706 240.353ZM479.706 264.338L456.221 264.338L456.221 287.824L479.706 287.824L479.706 264.338ZM479.706 288.323L456.221 288.323L456.221 311.809L479.706 311.809L479.706 288.323ZM479.706 312.309L456.221 312.309L456.221 335.794L479.706 335.794L479.706 312.309ZM479.706 336.294L456.221 336.294L456.221 359.78L479.706 359.78L479.706 336.294ZM479.706 360.279L456.221 360.279L456.221 383.765L479.706 383.765L479.706 360.279ZM479.706 384.265L456.221 384.265L456.221 407.75L479.706 407.75L479.706 384.265ZM479.706 408.25L456.221 408.25L456.221 431.736L479.706 431.736L479.706 408.25ZM479.706 432.235L456.221 432.235L456.221 455.721L479.706 455.721L479.706 432.235ZM479.706 456.221L456.221 456.221L456.221 479.706L479.706 479.706L479.706 456.221ZM479.706 480.206L456.221 480.206L456.221 503.692L479.706 503.692L479.706 480.206ZM479.706 504.191L456.221 504.191L456.221 527.677L479.706 527.677L479.706 504.191ZM479.706 528.177L456.221 528.177L456.221 551.662L479.706 551.662L479.706 528.177ZM479.706 552.162L456.221 552.162L456.221 575.647L479.706 575.647L479.706 552.162ZM479.706 576.147L456.221 576.147L456.221 599.633L479.706 599.633L479.706 576.147ZM455.721 599.633L455.721 576.147L432.235 576.147L432.235 599.633L455.721 599.633ZM431.736 599.633L431.736 576.147L408.25 576.147L408.25 599.633L431.736 599.633ZM407.75 599.633L407.75 576.147L384.265 576.147L384.265 599.633L407.75 599.633ZM383.765 599.633L383.765 576.147L360.279 576.147L360.279 599.633L383.765 599.633ZM359.78 599.633L359.78 576.147L336.294 576.147L336.294 599.633L359.78 599.633ZM336.294 575.647L359.78 575.647L359.78 552.162L336.294 552.162L336.294 575.647ZM336.294 551.662L359.78 551.662L359.78 528.177L336.294 528.177L336.294 551.662ZM336.294 527.677L359.78 527.677L359.78 504.191L336.294 504.191L336.294 527.677ZM336.294 503.692L359.78 503.692L359.78 480.206L336.294 480.206L336.294 503.692ZM336.294 479.706L359.78 479.706L359.78 456.221L336.294 456.221L336.294 479.706ZM336.294 455.721L359.78 455.721L359.78 432.235L336.294 432.235L336.294 455.721ZM336.294 431.736L359.78 431.736L359.78 408.25L336.294 408.25L336.294 431.736ZM336.294 407.75L359.78 407.75L359.78 384.265L336.294 384.265L336.294 407.75ZM336.294 383.765L359.78 383.765L359.78 360.279L336.294 360.279L336.294 383.765ZM336.294 359.78L359.78 359.78L359.78 336.294L336.294 336.294L336.294 359.78ZM336.294 335.794L359.78 335.794L359.78 312.309L336.294 312.309L336.294 335.794ZM336.294 311.809L359.78 311.809L359.78 288.323L336.294 288.323L336.294 311.809ZM336.294 287.824L359.78 287.824L359.78 264.338L336.294 264.338L336.294 287.824ZM336.294 263.838L359.78 263.838L359.78 240.353L336.294 240.353L336.294 263.838ZM336.294 239.853L359.78 239.853L359.78 216.368L336.294 216.368L336.294 239.853ZM360.279 216.368L360.279 239.853L383.765 239.853L383.765 216.368L360.279 216.368ZM384.265 216.368L384.265 239.853L407.75 239.853L407.75 216.368L384.265 216.368ZM408.25 216.368L408.25 239.853L431.736 239.853L431.736 216.368L408.25 216.368ZM432.235 216.368L432.235 239.853L455.721 239.853L455.721 216.368L432.235 216.368ZM455.721 240.353L432.235 240.353L432.235 263.838L455.721 263.838L455.721 240.353ZM455.721 264.338L432.235 264.338L432.235 287.824L455.721 287.824L455.721 264.338ZM455.721 288.323L432.235 288.323L432.235 311.809L455.721 311.809L455.721 288.323ZM455.721 312.309L432.235 312.309L432.235 335.794L455.721 335.794L455.721 312.309ZM455.721 336.294L432.235 336.294L432.235 359.78L455.721 359.78L455.721 336.294ZM455.721 360.279L432.235 360.279L432.235 383.765L455.721 383.765L455.721 360.279ZM455.721 384.265L432.235 384.265L432.235 407.75L455.721 407.75L455.721 384.265ZM455.721 408.25L432.235 408.25L432.235 431.736L455.721 431.736L455.721 408.25ZM455.721 432.235L432.235 432.235L432.235 455.721L455.721 455.721L455.721 432.235ZM455.721 456.221L432.235 456.221L432.235 479.706L455.721 479.706L455.721 456.221ZM455.721 480.206L432.235 480.206L432.235 503.692L455.721 503.692L455.721 480.206ZM455.721 504.191L432.235 504.191L432.235 527.677L455.721 527.677L455.721 504.191ZM455.721 528.177L432.235 528.177L432.235 551.662L455.721 551.662L455.721 528.177ZM455.721 552.162L432.235 552.162L432.235 575.647L455.721 575.647L455.721 552.162ZM431.736 575.647L431.736 552.162L408.25 552.162L408.25 575.647L431.736 575.647ZM407.75 575.647L407.75 552.162L384.265 552.162L384.265 575.647L407.75 575.647ZM383.765 575.647L383.765 552.162L360.279 552.162L360.279 575.647L383.765 575.647ZM360.279 551.662L383.765 551.662L383.765 528.177L360.279 528.177L360.279 551.662ZM360.279 527.677L383.765 527.677L383.765 504.191L360.279 504.191L360.279 527.677ZM360.279 503.692L383.765 503.692L383.765 480.206L360.279 480.206L360.279 503.692ZM360.279 479.706L383.765 479.706L383.765 456.221L360.279 456.221L360.279 479.706ZM360.279 455.721L383.765 455.721L383.765 432.235L360.279 432.235L360.279 455.721ZM360.279 431.736L383.765 431.736L383.765 408.25L360.279 408.25L360.279 431.736ZM360.279 407.75L383.765 407.75L383.765 384.265L360.279 384.265L360.279 407.75ZM360.279 383.765L383.765 383.765L383.765 360.279L360.279 360.279L360.279 383.765ZM360.279 359.78L383.765 359.78L383.765 336.294L360.279 336.294L360.279 359.78ZM360.279 335.794L383.765 335.794L383.765 312.309L360.279 312.309L360.279 335.794ZM360.279 311.809L383.765 311.809L383.765 288.323L360.279 288.323L360.279 311.809ZM360.279 287.824L383.765 287.824L383.765 264.338L360.279 264.338L360.279 287.824ZM360.279 263.838L383.765 263.838L383.765 240.353L360.279 240.353L360.279 263.838ZM384.265 240.353L384.265 263.838L407.75 263.838L407.75 240.353L384.265 240.353ZM408.25 240.353L408.25 263.838L431.736 263.838L431.736 240.353L408.25 240.353ZM431.736 264.338L408.25 264.338L408.25 287.824L431.736 287.824L431.736 264.338ZM431.736 288.323L408.25 288.323L408.25 311.809L431.736 311.809L431.736 288.323ZM431.736 312.309L408.25 312.309L408.25 335.794L431.736 335.794L431.736 312.309ZM431.736 336.294L408.25 336.294L408.25 359.78L431.736 359.78L431.736 336.294ZM431.736 360.279L408.25 360.279L408.25 383.765L431.736 383.765L431.736 360.279ZM431.736 384.265L408.25 384.265L408.25 407.75L431.736 407.75L431.736 384.265ZM431.736 408.25L408.25 408.25L408.25 431.736L431.736 431.736L431.736 408.25ZM431.736 432.235L408.25 432.235L408.25 455.721L431.736 455.721L431.736 432.235ZM431.736 456.221L408.25 456.221L408.25 479.706L431.736 479.706L431.736 456.221ZM431.736 480.206L408.25 480.206L408.25 503.692L431.736 503.692L431.736 480.206ZM431.736 504.191L408.25 504.191L408.25 527.677L431.736 527.677L431.736 504.191ZM431.736 528.177L408.25 528.177L408.25 551.662L431.736 551.662L431.736 528.177ZM407.75 551.662L407.75 528.177L384.265 528.177L384.265 551.662L407.75 551.662ZM384.265 527.677L407.75 527.677L407.75 504.191L384.265 504.191L384.265 527.677ZM384.265 503.692L407.75 503.692L407.75 480.206L384.265 480.206L384.265 503.692ZM384.265 479.706L407.75 479.706L407.75 456.221L384.265 456.221L384.265 479.706ZM384.265 455.721L407.75 455.721L407.75 432.235L384.265 432.235L384.265 455.721ZM384.265 431.736L407.75 431.736L407.75 408.25L384.265 408.25L384.265 431.736ZM384.265 407.75L407.75 407.75L407.75 384.265L384.265 384.265L384.265 407.75ZM384.265 383.765L407.75 383.765L407.75 360.279L384.265 360.279L384.265 383.765ZM384.265 359.78L407.75 359.78L407.75 336.294L384.265 336.294L384.265 359.78ZM384.265 335.794L407.75 335.794L407.75 312.309L384.265 312.309L384.265 335.794ZM384.265 311.809L407.75 311.809L407.75 288.323L384.265 288.323L384.265 311.809ZM384.265 287.824L407.75 287.824L407.75 264.338L384.265 264.338L384.265 287.824ZM165.399 791.515L650.101 791.515L650.101 792.015L165.399 792.015L165.399 791.515ZM165.399 815.5L650.101 815.5L650.101 816L165.399 816L165.399 815.5ZM143.912 785.519L143.912 29.9816L144.412 29.9816L144.412 785.519L143.912 785.519ZM119.926 785.519L119.927 29.9816L120.426 29.9816L120.426 785.519L119.926 785.519ZM95.9412 785.519L95.9412 29.9816L96.4409 29.9816L96.4409 785.519L95.9412 785.519ZM71.9559 785.519L71.9559 29.9816L72.4556 29.9816L72.4556 785.519L71.9559 785.519ZM47.9706 785.519L47.9706 29.9816L48.4703 29.9816L48.4703 785.519L47.9706 785.519ZM23.9853 785.519L23.9853 29.9816L24.485 29.9816L24.485 785.519L23.9853 785.519ZM-5.35718e-05 785.519L-2.05463e-05 29.9816L0.499673 29.9816L0.49964 785.519L-5.35718e-05 785.519Z"
          fill="url(#paint0_radial_1447_96760)" fill-opacity="0.1"/>
    <g filter="url(#filter1_b_1447_96760)">
        <circle cx="408" cy="408" r="43" fill="url(#paint1_linear_1447_96760)"/>
        <circle cx="408" cy="408" r="42" stroke="url(#paint2_linear_1447_96760)" stroke-width="2"/>
    </g>
    <g filter="url(#filter2_d_1447_96760)">
        <path d="M422.984 401.771C422.984 403.935 422.593 405.005 421.795 405.005H411.989V425.719C411.989 426.208 411.649 426.538 410.946 426.726C410.09 426.905 409.21 426.997 408.333 426.997C408.223 426.997 408.109 426.994 408.001 426.994C407.871 426.994 407.735 427 407.603 427C406.732 427 405.857 426.912 405.014 426.702C404.34 426.533 404.003 426.185 404.003 425.732V405.022H394.196C393.401 405.022 393.007 403.935 393.007 401.787C393.003 401.674 393 401.558 393 401.443C393 400.717 393.101 399.991 393.297 399.293C393.492 398.776 393.792 398.517 394.196 398.517H421.795C422.218 398.517 422.529 398.776 422.705 399.303C422.895 399.999 422.992 400.717 422.992 401.439C422.992 401.555 422.989 401.672 422.983 401.787L422.984 401.771ZM394.196 395.52C393.401 395.52 393.007 394.434 393.007 392.269C393.003 392.15 393 392.03 393 391.91C393 391.189 393.1 390.469 393.299 389.776C393.489 389.259 393.792 389 394.196 389H421.795C422.218 389 422.526 389.262 422.717 389.786C422.905 390.487 423 391.209 423 391.934C423 392.046 422.997 392.158 422.994 392.269C422.994 394.434 422.599 395.52 421.805 395.52H394.196Z"
              fill="url(#paint3_linear_1447_96760)" shape-rendering="crispEdges"/>
    </g>
    <defs>
        <filter id="filter0_f_1447_96760" x="162" y="194" width="488.153" height="430.548" filterUnits="userSpaceOnUse"
                color-interpolation-filters="sRGB">
            <feFlood flood-opacity="0" result="BackgroundImageFix"/>
            <feBlend mode="normal" in="SourceGraphic" in2="BackgroundImageFix" result="shape"/>
            <feGaussianBlur stdDeviation="75" result="effect1_foregroundBlur_1447_96760"/>
        </filter>
        <filter id="filter1_b_1447_96760" x="347" y="347" width="122" height="122" filterUnits="userSpaceOnUse"
                color-interpolation-filters="sRGB">
            <feFlood flood-opacity="0" result="BackgroundImageFix"/>
            <feGaussianBlur in="BackgroundImageFix" stdDeviation="9"/>
            <feComposite in2="SourceAlpha" operator="in" result="effect1_backgroundBlur_1447_96760"/>
            <feBlend mode="normal" in="SourceGraphic" in2="effect1_backgroundBlur_1447_96760" result="shape"/>
        </filter>
        <filter id="filter2_d_1447_96760" x="388" y="389" width="38" height="46" filterUnits="userSpaceOnUse"
                color-interpolation-filters="sRGB">
            <feFlood flood-opacity="0" result="BackgroundImageFix"/>
            <feColorMatrix in="SourceAlpha" type="matrix" values="0 0 0 0 0 0 0 0 0 0 0 0 0 0 0 0 0 0 127 0"
                           result="hardAlpha"/>
            <feOffset dx="-1" dy="4"/>
            <feGaussianBlur stdDeviation="2"/>
            <feComposite in2="hardAlpha" operator="out"/>
            <feColorMatrix type="matrix" values="0 0 0 0 0.0235294 0 0 0 0 0.533333 0 0 0 0 0.564706 0 0 0 0.1 0"/>
            <feBlend mode="normal" in2="BackgroundImageFix" result="effect1_dropShadow_1447_96760"/>
            <feBlend mode="normal" in="SourceGraphic" in2="effect1_dropShadow_1447_96760" result="shape"/>
        </filter>
        <radialGradient id="paint0_radial_1447_96760" cx="0" cy="0" r="1" gradientUnits="userSpaceOnUse"
                        gradientTransform="translate(407.618 407.618) rotate(90) scale(323.895 323.895)">
            <stop/>
            <stop offset="1" stop-opacity="0"/>
        </radialGradient>
        <linearGradient id="paint1_linear_1447_96760" x1="369.855" y1="446.145" x2="446.145" y2="369.855"
                        gradientUnits="userSpaceOnUse">
            <stop stop-color="#CDE1E3"/>
            <stop offset="1" stop-color="#77BBBF"/>
        </linearGradient>
        <linearGradient id="paint2_linear_1447_96760" x1="371.071" y1="371.764" x2="442.958" y2="448.628"
                        gradientUnits="userSpaceOnUse">
            <stop stop-color="white"/>
            <stop offset="1" stop-color="white" stop-opacity="0"/>
        </linearGradient>
        <linearGradient id="paint3_linear_1447_96760" x1="408" y1="389" x2="408" y2="427"
                        gradientUnits="userSpaceOnUse">
            <stop stop-color="white"/>
            <stop offset="1" stop-color="white" stop-opacity="0.52"/>
        </linearGradient>
    </defs>
</svg>
