<svg width="21" height="20" viewBox="0 0 21 20" fill="current" xmlns="http://www.w3.org/2000/svg">
  <path
    d="M10.5 15C13.2614 15 15.5 12.7614 15.5 10C15.5 7.23858 13.2614 5 10.5 5C7.73858 5 5.5 7.23858 5.5 10C5.5 12.7614 7.73858 15 10.5 15ZM10.5 2C6.08172 2 2.5 5.58172 2.5 10C2.5 14.4183 6.08172 18 10.5 18C14.9183 18 18.5 14.4183 18.5 10C18.5 5.58172 14.9183 2 10.5 2ZM3.5 10C3.5 6.13401 6.63401 3 10.5 3C14.366 3 17.5 6.13401 17.5 10C17.5 13.866 14.366 17 10.5 17C6.63401 17 3.5 13.866 3.5 10Z"
    fill="current"/>
</svg>
