<svg width="20" height="20" viewBox="0 0 20 20" fill="current" xmlns="http://www.w3.org/2000/svg">
  <path
    d="M16.9343 9.04998C16.4096 5.21975 12.8793 2.54007 9.04906 3.06475C7.10631 3.33087 5.4602 4.36951 4.37695 5.82964L4.25058 5.99997H7.49997C7.77611 5.99997 7.99997 6.22383 7.99997 6.49997C7.99997 6.77611 7.77611 6.99997 7.49997 6.99997H3.49997C3.22383 6.99997 2.99997 6.77611 2.99997 6.49997V2.49997C2.99997 2.22383 3.22383 1.99997 3.49997 1.99997C3.77611 1.99997 3.99997 2.22383 3.99997 2.49997V4.70729C5.22428 3.31847 6.93475 2.34504 8.91335 2.074C13.2907 1.47437 17.3254 4.53686 17.9251 8.91426C18.5247 13.2917 15.4622 17.3263 11.0848 17.926C6.7074 18.5256 2.67272 15.4631 2.07309 11.0857C1.99894 10.5444 1.98079 10.0079 2.01438 9.48208C2.03198 9.2065 2.26965 8.99737 2.54523 9.01497C2.82081 9.03258 3.02995 9.27025 3.01234 9.54583C2.98299 10.0054 2.99879 10.4752 3.06383 10.95C3.58851 14.7802 7.11886 17.4599 10.9491 16.9352C14.7793 16.4105 17.459 12.8802 16.9343 9.04998Z"
    fill="current"/>
</svg>
