<svg width="103" height="64" viewBox="0 0 103 64" fill="none" xmlns="http://www.w3.org/2000/svg">
  <g clip-path="url(#clip0_1443_12955)">
    <path
      d="M51.5006 63.5244C79.7776 63.5244 102.701 58.5472 102.701 52.4075C102.701 46.2678 79.7776 41.2906 51.5006 41.2906C23.2236 41.2906 0.300617 46.2678 0.300617 52.4075C0.300617 58.5472 23.2236 63.5244 51.5006 63.5244Z"
      fill="#F5F5F5"/>
    <path
      d="M88.3 21.8641L72.0664 3.59753C71.2872 2.35244 70.1496 1.59967 68.9512 1.59967H34.0488C32.8504 1.59967 31.7128 2.35244 30.9336 3.59594L14.7 21.8657V36.5384H88.3V21.8641Z"
      stroke="#D6D6D6"/>
    <path
      d="M66.8808 26.9013C66.8808 24.3524 68.4712 22.2481 70.444 22.2465H88.3V51.0503C88.3 54.4219 86.188 57.1852 83.58 57.1852H19.42C16.812 57.1852 14.7 54.4203 14.7 51.0503V22.2465H32.556C34.5288 22.2465 36.1192 24.3476 36.1192 26.8965V26.9315C36.1192 29.4804 37.7272 31.5386 39.6984 31.5386H63.3016C65.2728 31.5386 66.8808 29.4614 66.8808 26.9124V26.9013Z"
      fill="#FAFAFA" stroke="#D6D6D6"/>
  </g>
  <defs>
    <clipPath id="clip0_1443_12955">
      <rect width="102.4" height="64" fill="white" transform="translate(0.299999)"/>
    </clipPath>
  </defs>
</svg>
