<svg width="103" height="64" viewBox="0 0 103 64" fill="none" xmlns="http://www.w3.org/2000/svg">
  <g clip-path="url(#clip0_3511_19258)">
    <path
      d="M51.5006 63.5242C79.7776 63.5242 102.701 58.5471 102.701 52.4074C102.701 46.2677 79.7776 41.2905 51.5006 41.2905C23.2236 41.2905 0.300598 46.2677 0.300598 52.4074C0.300598 58.5471 23.2236 63.5242 51.5006 63.5242Z"
      fill="#424242"/>
    <path
      d="M88.3 21.8641L72.0664 3.59747C71.2872 2.35238 70.1496 1.59961 68.9512 1.59961H34.0488C32.8504 1.59961 31.7128 2.35238 30.9336 3.59588L14.7 21.8657V36.5383H88.3V21.8641Z"
      stroke="#4D4D4D"/>
    <path
      d="M66.8808 26.9014C66.8808 24.3524 68.4712 22.2482 70.444 22.2466H88.3V51.0504C88.3 54.4219 86.188 57.1853 83.58 57.1853H19.42C16.812 57.1853 14.7 54.4204 14.7 51.0504V22.2466H32.556C34.5288 22.2466 36.1192 24.3477 36.1192 26.8966V26.9315C36.1192 29.4805 37.7272 31.5387 39.6984 31.5387H63.3016C65.2728 31.5387 66.8808 29.4614 66.8808 26.9125V26.9014Z"
      fill="#242424" stroke="#4D4D4D"/>
  </g>
  <defs>
    <clipPath id="clip0_3511_19258">
      <rect width="102.4" height="64" fill="white" transform="translate(0.299988)"/>
    </clipPath>
  </defs>
</svg>
