<svg width="21" height="20" viewBox="0 0 21 20" fill="current" xmlns="http://www.w3.org/2000/svg">
    <path d="M3.49707 3.49658C3.49707 3.22044 3.72093 2.99658 3.99707 2.99658H4.43543C5.16237 2.99658 5.57976 3.46966 5.82152 3.94123C5.9872 4.26438 6.1065 4.65862 6.20508 5H16.4999C17.1634 5 17.6429 5.63441 17.4619 6.27278L15.9664 11.5473C15.7225 12.4078 14.9368 13.0017 14.0423 13.0017H8.96306C8.06125 13.0017 7.27099 12.3982 7.0336 11.5282L6.39118 9.17387C6.38723 9.16317 6.38361 9.15226 6.38034 9.14116L5.351 5.64339C5.31568 5.52734 5.28318 5.41488 5.2518 5.30629C5.15195 4.96076 5.06346 4.65454 4.93165 4.39745C4.7723 4.08662 4.62597 3.99658 4.43543 3.99658H3.99707C3.72093 3.99658 3.49707 3.77272 3.49707 3.49658ZM9 17C9.82843 17 10.5 16.3284 10.5 15.5C10.5 14.6716 9.82843 14 9 14C8.17157 14 7.5 14.6716 7.5 15.5C7.5 16.3284 8.17157 17 9 17ZM14 17C14.8284 17 15.5 16.3284 15.5 15.5C15.5 14.6716 14.8284 14 14 14C13.1716 14 12.5 14.6716 12.5 15.5C12.5 16.3284 13.1716 17 14 17Z"
          fill="current"/>
</svg>
