<svg width="24" height="24" viewBox="0 0 24 24" fill="none" xmlns="http://www.w3.org/2000/svg">
  <path d="M20.0005 5.99982H17.0005V3.99982C17.0005 2.89682 16.1035 1.99982 15.0005 1.99982H9.00049C7.89749 1.99982 7.00049 2.89682 7.00049 3.99982V5.99982H4.00049C2.89749 5.99982 2.00049 6.89682 2.00049 7.99982V18.9998C2.00049 20.1028 2.89749 20.9998 4.00049 20.9998H20.0005C21.1035 20.9998 22.0005 20.1028 22.0005 18.9998V7.99982C22.0005 6.89682 21.1035 5.99982 20.0005 5.99982ZM15.0005 3.99982V5.99982H9.00049V3.99982H15.0005ZM8.00049 7.99982H20.0005V10.9998H4.00049V7.99982H8.00049ZM4.00049 18.9998V12.9998H10.0005V14.9998H14.0005V12.9998H20.0005L20.0015 18.9998H4.00049Z" fill="#A7B1CF"/>
</svg>
