<svg width="25" height="24" viewBox="0 0 25 24" fill="none" xmlns="http://www.w3.org/2000/svg">
<g id="bx:bx-block">
<path id="Vector" d="M12.5 2C6.986 2 2.5 6.486 2.5 12C2.5 17.514 6.986 22 12.5 22C18.014 22 22.5 17.514 22.5 12C22.5 6.486 18.014 2 12.5 2ZM4.5 12C4.5 10.154 5.134 8.458 6.188 7.103L17.397 18.312C15.999 19.4058 14.2751 20.0001 12.5 20C8.089 20 4.5 16.411 4.5 12ZM18.812 16.897L7.603 5.688C9.00105 4.5943 10.725 4.00006 12.5 4C16.911 4 20.5 7.589 20.5 12C20.4995 13.775 19.9053 15.4987 18.812 16.897Z" fill="#BE1111"/>
</g>
</svg>
