<svg width="18" height="18" viewBox="0 0 18 18" fill="none" xmlns="http://www.w3.org/2000/svg">
<path d="M8.502 11.25C8.502 10.7859 8.31763 10.3408 7.98944 10.0126C7.66125 9.68437 7.21613 9.5 6.752 9.5H4.752C4.28787 9.5 3.84275 9.68437 3.51456 10.0126C3.18637 10.3408 3.002 10.7859 3.002 11.25V13.25C3.002 14.216 3.786 15 4.752 15H6.752C7.21613 15 7.66125 14.8156 7.98944 14.4874C8.31763 14.1592 8.502 13.7141 8.502 13.25V11.25ZM4.752 11H6.752C6.8183 11 6.88189 11.0263 6.92878 11.0732C6.97566 11.1201 7.002 11.1837 7.002 11.25V13.25C7.002 13.3163 6.97566 13.3799 6.92878 13.4268C6.88189 13.4737 6.8183 13.5 6.752 13.5H4.752C4.6857 13.5 4.62211 13.4737 4.57522 13.4268C4.52834 13.3799 4.502 13.3163 4.502 13.25V11.25C4.502 11.1837 4.52834 11.1201 4.57522 11.0732C4.62211 11.0263 4.6857 11 4.752 11ZM15 11.25C15 10.7859 14.8156 10.3408 14.4874 10.0126C14.1592 9.68437 13.7141 9.5 13.25 9.5H11.25C10.7859 9.5 10.3408 9.68437 10.0126 10.0126C9.68437 10.3408 9.5 10.7859 9.5 11.25V13.25C9.5 14.216 10.283 15 11.25 15H13.25C13.7141 15 14.1592 14.8156 14.4874 14.4874C14.8156 14.1592 15 13.7141 15 13.25V11.25ZM11.25 11H13.25C13.3163 11 13.3799 11.0263 13.4268 11.0732C13.4737 11.1201 13.5 11.1837 13.5 11.25V13.25C13.5 13.3163 13.4737 13.3799 13.4268 13.4268C13.3799 13.4737 13.3163 13.5 13.25 13.5H11.25C11.1837 13.5 11.1201 13.4737 11.0732 13.4268C11.0263 13.3799 11 13.3163 11 13.25V11.25C11 11.1837 11.0263 11.1201 11.0732 11.0732C11.1201 11.0263 11.1837 11 11.25 11ZM8.5 4.75C8.5 4.28604 8.31576 3.84108 7.98779 3.51292C7.65982 3.18476 7.21496 3.00027 6.751 3H4.751C4.28687 3 3.84175 3.18437 3.51356 3.51256C3.18537 3.84075 3.001 4.28587 3.001 4.75V6.75C3.001 7.716 3.784 8.5 4.751 8.5H6.751C7.21513 8.5 7.66025 8.31563 7.98844 7.98744C8.31663 7.65925 8.501 7.21413 8.501 6.75V4.75H8.5ZM4.75 4.5H6.75C6.8163 4.5 6.87989 4.52634 6.92678 4.57322C6.97366 4.62011 7 4.6837 7 4.75V6.75C7 6.8163 6.97366 6.87989 6.92678 6.92678C6.87989 6.97366 6.8163 7 6.75 7H4.75C4.6837 7 4.62011 6.97366 4.57322 6.92678C4.52634 6.87989 4.5 6.8163 4.5 6.75V4.75C4.5 4.6837 4.52634 4.62011 4.57322 4.57322C4.62011 4.52634 4.6837 4.5 4.75 4.5ZM14.997 4.75C14.997 4.28604 14.8128 3.84108 14.4848 3.51292C14.1568 3.18476 13.712 3.00027 13.248 3H11.248C10.7839 3 10.3388 3.18437 10.0106 3.51256C9.68237 3.84075 9.498 4.28587 9.498 4.75V6.75C9.498 7.716 10.282 8.5 11.248 8.5H13.248C13.7121 8.5 14.1572 8.31563 14.4854 7.98744C14.8136 7.65925 14.998 7.21413 14.998 6.75L14.997 4.75ZM11.247 4.5H13.247C13.3133 4.5 13.3769 4.52634 13.4238 4.57322C13.4707 4.62011 13.497 4.6837 13.497 4.75V6.75C13.497 6.8163 13.4707 6.87989 13.4238 6.92678C13.3769 6.97366 13.3133 7 13.247 7H11.247C11.1807 7 11.1171 6.97366 11.0702 6.92678C11.0233 6.87989 10.997 6.8163 10.997 6.75V4.75C10.997 4.6837 11.0233 4.62011 11.0702 4.57322C11.1171 4.52634 11.1807 4.5 11.247 4.5ZM3.25 0C2.38805 0 1.5614 0.34241 0.951903 0.951903C0.34241 1.5614 0 2.38805 0 3.25V14.75C0 15.612 0.34241 16.4386 0.951903 17.0481C1.5614 17.6576 2.38805 18 3.25 18H14.75C15.612 18 16.4386 17.6576 17.0481 17.0481C17.6576 16.4386 18 15.612 18 14.75V3.25C18 2.38805 17.6576 1.5614 17.0481 0.951903C16.4386 0.34241 15.612 0 14.75 0H3.25ZM1.5 3.25C1.5 2.284 2.284 1.5 3.25 1.5H14.75C15.716 1.5 16.5 2.284 16.5 3.25V14.75C16.5 15.2141 16.3156 15.6592 15.9874 15.9874C15.6592 16.3156 15.2141 16.5 14.75 16.5H3.25C2.78587 16.5 2.34075 16.3156 2.01256 15.9874C1.68437 15.6592 1.5 15.2141 1.5 14.75V3.25Z" fill="#A7B1CF"/>
</svg>
