<svg width="32" height="32" viewBox="0 0 32 32" fill="none" xmlns="http://www.w3.org/2000/svg">
<path d="M15.9989 2.65733C8.64686 2.65867 2.66553 8.64 2.66553 15.992C2.66553 23.344 8.64686 29.3253 16.0002 29.3253C23.3509 29.3253 29.3322 23.344 29.3335 15.992C29.3335 8.64 23.3522 2.65867 15.9989 2.65733ZM16.0002 26.6587C10.1175 26.6587 5.33219 21.8733 5.33219 15.992C5.33219 10.1107 10.1175 5.32533 15.9989 5.324C21.8815 5.32533 26.6669 10.1107 26.6669 15.992C26.6655 21.8733 21.8802 26.6587 16.0002 26.6587Z" fill="white"/>
<path d="M15.9998 14.6587H10.6665V17.3253H15.9998V21.3333L21.3398 15.9933L15.9998 10.6547V14.6587Z" fill="white"/>
</svg>
