<svg width="48" height="49" viewBox="0 0 48 49" fill="none" xmlns="http://www.w3.org/2000/svg">
<rect y="0.5" width="48" height="48" rx="24" fill="black" fill-opacity="0.5"/>
<path d="M23.9987 11.1572C16.6467 11.1586 10.6653 17.1399 10.6653 24.4919C10.6653 31.8439 16.6467 37.8252 24 37.8252C31.3507 37.8252 37.332 31.8439 37.3333 24.4919C37.3333 17.1399 31.352 11.1586 23.9987 11.1572ZM24 35.1586C18.1173 35.1586 13.332 30.3732 13.332 24.4919C13.332 18.6106 18.1173 13.8252 23.9987 13.8239C29.8813 13.8252 34.6667 18.6106 34.6667 24.4919C34.6653 30.3732 29.88 35.1586 24 35.1586Z" fill="white"/>
<path d="M24 23.1588H18.6667V25.8255H24V29.8335L29.34 24.4935L24 19.1548V23.1588Z" fill="white"/>
</svg>
