<svg width="11" height="21" viewBox="0 0 11 21" fill="none" xmlns="http://www.w3.org/2000/svg">
<path d="M5.5 20.5C3.96667 20.5 2.66667 19.9667 1.6 18.9C0.533333 17.8333 0 16.5333 0 15V4.5C0 3.4 0.391667 2.45833 1.175 1.675C1.95833 0.891667 2.9 0.5 4 0.5C5.1 0.5 6.04167 0.891667 6.825 1.675C7.60833 2.45833 8 3.4 8 4.5V14C8 14.7 7.75833 15.2917 7.275 15.775C6.79167 16.2583 6.2 16.5 5.5 16.5C4.8 16.5 4.20833 16.2583 3.725 15.775C3.24167 15.2917 3 14.7 3 14V5.25C3 5.03333 3.071 4.85433 3.213 4.713C3.355 4.57167 3.534 4.50067 3.75 4.5C3.96667 4.5 4.146 4.571 4.288 4.713C4.43 4.855 4.50067 5.034 4.5 5.25V14C4.5 14.2833 4.596 14.521 4.788 14.713C4.98 14.905 5.21733 15.0007 5.5 15C5.78333 15 6.021 14.904 6.213 14.712C6.405 14.52 6.50067 14.2827 6.5 14V4.5C6.5 3.8 6.25833 3.20833 5.775 2.725C5.29167 2.24167 4.7 2 4 2C3.3 2 2.70833 2.24167 2.225 2.725C1.74167 3.20833 1.5 3.8 1.5 4.5V15C1.5 16.1 1.89167 17.0417 2.675 17.825C3.45833 18.6083 4.4 19 5.5 19C6.6 19 7.54167 18.6083 8.325 17.825C9.10833 17.0417 9.5 16.1 9.5 15V5.25C9.5 5.03333 9.571 4.85433 9.713 4.713C9.855 4.57167 10.034 4.50067 10.25 4.5C10.4667 4.5 10.646 4.571 10.788 4.713C10.93 4.855 11.0007 5.034 11 5.25V15C11 16.5333 10.4667 17.8333 9.4 18.9C8.33333 19.9667 7.03333 20.5 5.5 20.5Z" fill="black"/>
</svg>
