<svg width="19" height="20" viewBox="0 0 19 20" fill="none" xmlns="http://www.w3.org/2000/svg">
<path d="M11.356 1.59494C11.3771 1.56841 11.4034 1.54644 11.4332 1.53037C11.4631 1.5143 11.4959 1.50447 11.5296 1.50148C11.5634 1.49848 11.5974 1.50239 11.6296 1.51296C11.6618 1.52352 11.6916 1.54053 11.717 1.56294L12.638 2.37494L9.739 5.99994H11.66L13.766 3.36794L15.418 4.82494C15.4668 4.86811 15.4969 4.92865 15.5018 4.99366C15.5066 5.05866 15.4859 5.123 15.444 5.17294L14.754 5.99994H16.698C16.9388 5.64742 17.0424 5.21903 16.9894 4.79542C16.9363 4.37182 16.7303 3.98221 16.41 3.69994L12.71 0.436943C12.5315 0.279746 12.3228 0.160584 12.0968 0.0867352C11.8707 0.0128864 11.6319 -0.0140996 11.395 0.00742552C11.1581 0.0289507 10.9282 0.0985351 10.7191 0.211929C10.51 0.325323 10.3262 0.480146 10.179 0.666943L5.976 5.99994H7.886L11.356 1.59494ZM13.25 12.9999C13.0511 12.9999 12.8603 13.079 12.7197 13.2196C12.579 13.3603 12.5 13.551 12.5 13.7499C12.5 13.9489 12.579 14.1396 12.7197 14.2803C12.8603 14.4209 13.0511 14.4999 13.25 14.4999H15.25C15.4489 14.4999 15.6397 14.4209 15.7803 14.2803C15.921 14.1396 16 13.9489 16 13.7499C16 13.551 15.921 13.3603 15.7803 13.2196C15.6397 13.079 15.4489 12.9999 15.25 12.9999H13.25ZM1.5 6.24994C1.5 6.05103 1.57902 5.86026 1.71967 5.71961C1.86032 5.57896 2.05109 5.49994 2.25 5.49994H5.378L6.57 3.99994H2.25C1.65326 3.99994 1.08097 4.237 0.65901 4.65895C0.237053 5.08091 0 5.65321 0 6.24994V16.7499C0 17.6119 0.34241 18.4385 0.951903 19.048C1.5614 19.6575 2.38805 19.9999 3.25 19.9999H15.25C16.112 19.9999 16.9386 19.6575 17.5481 19.048C18.1576 18.4385 18.5 17.6119 18.5 16.7499V10.2499C18.5 9.38799 18.1576 8.56134 17.5481 7.95185C16.9386 7.34235 16.112 6.99994 15.25 6.99994H2.25C2.05109 6.99994 1.86032 6.92093 1.71967 6.78027C1.57902 6.63962 1.5 6.44885 1.5 6.24994ZM1.5 16.7499V8.37194C1.735 8.45494 1.987 8.49994 2.25 8.49994H15.25C16.216 8.49994 17 9.28394 17 10.2499V16.7499C17 17.2141 16.8156 17.6592 16.4874 17.9874C16.1592 18.3156 15.7141 18.4999 15.25 18.4999H3.25C2.78587 18.4999 2.34075 18.3156 2.01256 17.9874C1.68437 17.6592 1.5 17.2141 1.5 16.7499Z" fill="#A7B1CF"/>
</svg>
