<svg width="18" height="19" viewBox="0 0 18 19" fill="none" xmlns="http://www.w3.org/2000/svg">
<path d="M14.75 0.0235596C15.612 0.0235596 16.4386 0.365969 17.0481 0.975462C17.6576 1.58496 18 2.41161 18 3.27356V14.7736C18 15.6355 17.6576 16.4622 17.0481 17.0717C16.4386 17.6812 15.612 18.0236 14.75 18.0236H3.25C2.38805 18.0236 1.5614 17.6812 0.951903 17.0717C0.34241 16.4622 0 15.6355 0 14.7736V3.27356C0 2.41161 0.34241 1.58496 0.951903 0.975462C1.5614 0.365969 2.38805 0.0235596 3.25 0.0235596H14.75ZM16.5 5.52356H1.5V14.7736C1.5 15.7396 2.284 16.5236 3.25 16.5236H14.75C15.2141 16.5236 15.6592 16.3392 15.9874 16.011C16.3156 15.6828 16.5 15.2377 16.5 14.7736V5.52356ZM4.75 11.5236C5.08152 11.5236 5.39946 11.6553 5.63388 11.8897C5.8683 12.1241 6 12.442 6 12.7736C6 13.1051 5.8683 13.423 5.63388 13.6574C5.39946 13.8919 5.08152 14.0236 4.75 14.0236C4.41848 14.0236 4.10054 13.8919 3.86612 13.6574C3.6317 13.423 3.5 13.1051 3.5 12.7736C3.5 12.442 3.6317 12.1241 3.86612 11.8897C4.10054 11.6553 4.41848 11.5236 4.75 11.5236ZM9 11.5236C9.33152 11.5236 9.64946 11.6553 9.88388 11.8897C10.1183 12.1241 10.25 12.442 10.25 12.7736C10.25 13.1051 10.1183 13.423 9.88388 13.6574C9.64946 13.8919 9.33152 14.0236 9 14.0236C8.66848 14.0236 8.35054 13.8919 8.11612 13.6574C7.8817 13.423 7.75 13.1051 7.75 12.7736C7.75 12.442 7.8817 12.1241 8.11612 11.8897C8.35054 11.6553 8.66848 11.5236 9 11.5236ZM4.75 7.52356C5.08152 7.52356 5.39946 7.65526 5.63388 7.88968C5.8683 8.1241 6 8.44204 6 8.77356C6 9.10508 5.8683 9.42302 5.63388 9.65744C5.39946 9.89186 5.08152 10.0236 4.75 10.0236C4.41848 10.0236 4.10054 9.89186 3.86612 9.65744C3.6317 9.42302 3.5 9.10508 3.5 8.77356C3.5 8.44204 3.6317 8.1241 3.86612 7.88968C4.10054 7.65526 4.41848 7.52356 4.75 7.52356ZM9 7.52356C9.33152 7.52356 9.64946 7.65526 9.88388 7.88968C10.1183 8.1241 10.25 8.44204 10.25 8.77356C10.25 9.10508 10.1183 9.42302 9.88388 9.65744C9.64946 9.89186 9.33152 10.0236 9 10.0236C8.66848 10.0236 8.35054 9.89186 8.11612 9.65744C7.8817 9.42302 7.75 9.10508 7.75 8.77356C7.75 8.44204 7.8817 8.1241 8.11612 7.88968C8.35054 7.65526 8.66848 7.52356 9 7.52356ZM13.25 7.52356C13.5815 7.52356 13.8995 7.65526 14.1339 7.88968C14.3683 8.1241 14.5 8.44204 14.5 8.77356C14.5 9.10508 14.3683 9.42302 14.1339 9.65744C13.8995 9.89186 13.5815 10.0236 13.25 10.0236C12.9185 10.0236 12.6005 9.89186 12.3661 9.65744C12.1317 9.42302 12 9.10508 12 8.77356C12 8.44204 12.1317 8.1241 12.3661 7.88968C12.6005 7.65526 12.9185 7.52356 13.25 7.52356ZM14.75 1.52356H3.25C2.78587 1.52356 2.34075 1.70793 2.01256 2.03612C1.68437 2.36431 1.5 2.80943 1.5 3.27356V4.02356H16.5V3.27356C16.5 2.80943 16.3156 2.36431 15.9874 2.03612C15.6592 1.70793 15.2141 1.52356 14.75 1.52356Z" fill="white"/>
</svg>
