<svg width="5" height="9" viewBox="0 0 5 9" fill="none" xmlns="http://www.w3.org/2000/svg">
<path d="M0.152529 8.35372C0.0588642 8.26002 0.00624617 8.13297 0.00624617 8.00048C0.00624616 7.868 0.0588642 7.74094 0.152529 7.64725L3.29666 4.50312L0.152529 1.359C0.10481 1.31291 0.066747 1.25778 0.0405623 1.19682C0.0143775 1.13586 0.000595012 1.0703 1.85363e-05 1.00396C-0.00055794 0.937625 0.0120835 0.871835 0.037205 0.810433C0.0623265 0.749032 0.099425 0.693247 0.146336 0.646337C0.193247 0.599426 0.249031 0.562326 0.310432 0.537205C0.371834 0.512084 0.437624 0.499442 0.503964 0.500019C0.570303 0.500595 0.635864 0.514379 0.69682 0.540563C0.757776 0.566748 0.812907 0.60481 0.858995 0.652529L4.35636 4.14989C4.45002 4.24358 4.50264 4.37064 4.50264 4.50312C4.50264 4.63561 4.45002 4.76266 4.35636 4.85636L0.858996 8.35372C0.765303 8.44738 0.638244 8.5 0.505762 8.5C0.37328 8.5 0.246222 8.44738 0.152529 8.35372Z" fill="#060C1F"/>
</svg>
