<svg width="33" height="32" viewBox="0 0 33 32" fill="none" xmlns="http://www.w3.org/2000/svg">
<path d="M19.0665 3.33734C19.5892 3.3373 20.1029 3.47384 20.5566 3.73344C21.0103 3.99304 21.3883 4.36668 21.6532 4.81734L22.7385 6.66667H25.4998C26.0689 6.66667 26.6324 6.77876 27.1581 6.99653C27.6839 7.2143 28.1616 7.53349 28.564 7.93588C28.9664 8.33827 29.2855 8.81597 29.5033 9.34171C29.7211 9.86746 29.8332 10.4309 29.8332 11V23.6667C29.8332 24.2357 29.7211 24.7992 29.5033 25.325C29.2855 25.8507 28.9664 26.3284 28.564 26.7308C28.1616 27.1332 27.6839 27.4524 27.1581 27.6702C26.6324 27.8879 26.0689 28 25.4998 28H7.49984C6.35057 28 5.24837 27.5435 4.43571 26.7308C3.62305 25.9181 3.1665 24.8159 3.1665 23.6667V11C3.1665 9.85074 3.62305 8.74854 4.43571 7.93588C5.24837 7.12322 6.35057 6.66667 7.49984 6.66667H10.2732L11.4398 4.76801C11.7081 4.33097 12.0839 3.96998 12.5314 3.71952C12.9788 3.46906 13.483 3.33748 13.9958 3.33734H19.0665ZM19.0665 5.33734H13.9958C13.8499 5.33746 13.7058 5.36951 13.5736 5.43124C13.4414 5.49297 13.3243 5.58288 13.2305 5.69467L13.1438 5.81467L11.6865 8.18801C11.5971 8.33377 11.4719 8.45419 11.3227 8.53775C11.1736 8.62132 11.0055 8.66525 10.8345 8.66534H7.50117C7.19453 8.66517 6.89086 8.72543 6.60752 8.8427C6.32419 8.95997 6.06675 9.13193 5.84992 9.34876C5.63309 9.56559 5.46113 9.82303 5.34386 10.1064C5.2266 10.3897 5.16633 10.6934 5.1665 11V23.6667C5.1665 24.9547 6.21184 26 7.49984 26H25.4998C26.1187 26 26.7122 25.7542 27.1498 25.3166C27.5873 24.879 27.8332 24.2855 27.8332 23.6667V11C27.8332 10.3812 27.5873 9.78768 27.1498 9.35009C26.7122 8.91251 26.1187 8.66667 25.4998 8.66667H22.1665C21.9922 8.66677 21.8209 8.62129 21.6696 8.53475C21.5182 8.44822 21.3922 8.32363 21.3038 8.17334L19.9278 5.83067C19.8396 5.68058 19.7138 5.55612 19.5627 5.46959C19.4116 5.38307 19.2406 5.33748 19.0665 5.33734ZM16.4998 10.6667C18.0911 10.6667 19.6173 11.2988 20.7425 12.424C21.8677 13.5493 22.4998 15.0754 22.4998 16.6667C22.4998 18.258 21.8677 19.7841 20.7425 20.9093C19.6173 22.0345 18.0911 22.6667 16.4998 22.6667C14.9085 22.6667 13.3824 22.0345 12.2572 20.9093C11.132 19.7841 10.4998 18.258 10.4998 16.6667C10.4998 15.0754 11.132 13.5493 12.2572 12.424C13.3824 11.2988 14.9085 10.6667 16.4998 10.6667ZM16.4998 12.6667C15.9746 12.6667 15.4544 12.7701 14.9691 12.9712C14.4838 13.1722 14.0428 13.4668 13.6714 13.8382C13.3 14.2097 13.0053 14.6506 12.8043 15.1359C12.6033 15.6212 12.4998 16.1414 12.4998 16.6667C12.4998 17.192 12.6033 17.7121 12.8043 18.1974C13.0053 18.6827 13.3 19.1237 13.6714 19.4951C14.0428 19.8665 14.4838 20.1612 14.9691 20.3622C15.4544 20.5632 15.9746 20.6667 16.4998 20.6667C17.5607 20.6667 18.5781 20.2452 19.3283 19.4951C20.0784 18.745 20.4998 17.7275 20.4998 16.6667C20.4998 15.6058 20.0784 14.5884 19.3283 13.8382C18.5781 13.0881 17.5607 12.6667 16.4998 12.6667Z" fill="#BFC2CD"/>
</svg>
