<svg width="20" height="20" viewBox="0 0 20 20" fill="none" xmlns="http://www.w3.org/2000/svg">
<path d="M9.99984 3.33464C8.23173 3.33464 6.53603 4.03701 5.28579 5.28726C4.03555 6.5375 3.33317 8.23319 3.33317 10.0013C3.33317 11.7694 4.03555 13.4651 5.28579 14.7153C6.53603 15.9656 8.23173 16.668 9.99984 16.668C11.7679 16.668 13.4636 15.9656 14.7139 14.7153C15.9641 13.4651 16.6665 11.7694 16.6665 10.0013C16.6665 8.23319 15.9641 6.5375 14.7139 5.28726C13.4636 4.03701 11.7679 3.33464 9.99984 3.33464ZM1.6665 10.0013C1.6665 5.3988 5.39734 1.66797 9.99984 1.66797C14.6023 1.66797 18.3332 5.3988 18.3332 10.0013C18.3332 14.6038 14.6023 18.3346 9.99984 18.3346C5.39734 18.3346 1.6665 14.6038 1.6665 10.0013Z" fill="#BE1111"/>
<path d="M10 11.6667C9.77899 11.6667 9.56702 11.5789 9.41074 11.4226C9.25446 11.2663 9.16667 11.0543 9.16667 10.8333V5.83333C9.16667 5.61232 9.25446 5.40036 9.41074 5.24408C9.56702 5.0878 9.77899 5 10 5C10.221 5 10.433 5.0878 10.5893 5.24408C10.7455 5.40036 10.8333 5.61232 10.8333 5.83333V10.8333C10.8333 11.0543 10.7455 11.2663 10.5893 11.4226C10.433 11.5789 10.221 11.6667 10 11.6667ZM8.75 13.75C8.75 13.4185 8.8817 13.1005 9.11612 12.8661C9.35054 12.6317 9.66848 12.5 10 12.5C10.3315 12.5 10.6495 12.6317 10.8839 12.8661C11.1183 13.1005 11.25 13.4185 11.25 13.75C11.25 14.0815 11.1183 14.3995 10.8839 14.6339C10.6495 14.8683 10.3315 15 10 15C9.66848 15 9.35054 14.8683 9.11612 14.6339C8.8817 14.3995 8.75 14.0815 8.75 13.75Z" fill="#BE1111"/>
</svg>
