<svg width="33" height="32" viewBox="0 0 33 32" fill="none" xmlns="http://www.w3.org/2000/svg">
<path d="M16.4998 2.66666C13.8628 2.66666 11.2849 3.44864 9.09224 4.91373C6.89958 6.37881 5.19062 8.4612 4.18145 10.8975C3.17228 13.3339 2.90824 16.0148 3.42271 18.6012C3.93718 21.1876 5.20705 23.5634 7.07175 25.4281C8.93645 27.2928 11.3122 28.5627 13.8986 29.0771C16.4851 29.5916 19.1659 29.3276 21.6023 28.3184C24.0386 27.3092 26.121 25.6002 27.5861 23.4076C29.0512 21.2149 29.8332 18.6371 29.8332 16C29.8332 14.249 29.4883 12.5152 28.8182 10.8975C28.1482 9.27987 27.166 7.81001 25.9279 6.5719C24.6898 5.33379 23.22 4.35166 21.6023 3.6816C19.9846 3.01153 18.2508 2.66666 16.4998 2.66666ZM16.4998 26.6667C14.3902 26.6667 12.3279 26.0411 10.5738 24.869C8.81964 23.6969 7.45246 22.031 6.64513 20.0819C5.83779 18.1329 5.62656 15.9882 6.03813 13.919C6.44971 11.8499 7.46561 9.94928 8.95737 8.45752C10.4491 6.96576 12.3497 5.94986 14.4189 5.53828C16.488 5.1267 18.6327 5.33794 20.5818 6.14528C22.5309 6.95261 24.1968 8.31978 25.3689 10.0739C26.5409 11.828 27.1665 13.8903 27.1665 16C27.1665 18.829 26.0427 21.5421 24.0423 23.5425C22.0419 25.5429 19.3288 26.6667 16.4998 26.6667Z" fill="white"/>
<path d="M20.1133 12.3866C19.9893 12.2617 19.8418 12.1625 19.6794 12.0948C19.5169 12.0271 19.3426 11.9922 19.1666 11.9922C18.9906 11.9922 18.8163 12.0271 18.6538 12.0948C18.4913 12.1625 18.3439 12.2617 18.2199 12.3866L16.4999 14.12L14.7799 12.3866C14.5288 12.1356 14.1883 11.9945 13.8333 11.9945C13.4782 11.9945 13.1377 12.1356 12.8866 12.3866C12.6355 12.6377 12.4945 12.9782 12.4945 13.3333C12.4945 13.6884 12.6355 14.0289 12.8866 14.28L14.6199 16L12.8866 17.72C12.7616 17.8439 12.6624 17.9914 12.5947 18.1539C12.527 18.3164 12.4922 18.4906 12.4922 18.6666C12.4922 18.8427 12.527 19.0169 12.5947 19.1794C12.6624 19.3419 12.7616 19.4894 12.8866 19.6133C13.0105 19.7383 13.158 19.8375 13.3205 19.9052C13.483 19.9729 13.6572 20.0077 13.8333 20.0077C14.0093 20.0077 14.1835 19.9729 14.346 19.9052C14.5085 19.8375 14.656 19.7383 14.7799 19.6133L16.4999 17.88L18.2199 19.6133C18.3439 19.7383 18.4913 19.8375 18.6538 19.9052C18.8163 19.9729 18.9906 20.0077 19.1666 20.0077C19.3426 20.0077 19.5169 19.9729 19.6794 19.9052C19.8418 19.8375 19.9893 19.7383 20.1133 19.6133C20.2382 19.4894 20.3374 19.3419 20.4051 19.1794C20.4728 19.0169 20.5077 18.8427 20.5077 18.6666C20.5077 18.4906 20.4728 18.3164 20.4051 18.1539C20.3374 17.9914 20.2382 17.8439 20.1133 17.72L18.3799 16L20.1133 14.28C20.2382 14.156 20.3374 14.0086 20.4051 13.8461C20.4728 13.6836 20.5077 13.5093 20.5077 13.3333C20.5077 13.1573 20.4728 12.983 20.4051 12.8205C20.3374 12.6581 20.2382 12.5106 20.1133 12.3866Z" fill="white"/>
</svg>
