<svg width="24" height="25" viewBox="0 0 24 25" fill="none" xmlns="http://www.w3.org/2000/svg">
  <path d="M12 2.5C10.0222 2.5 8.08879 3.08649 6.4443 4.1853C4.79981 5.28412 3.51809 6.8459 2.76121 8.67317C2.00433 10.5004 1.8063 12.5111 2.19215 14.4509C2.578 16.3907 3.53041 18.1725 4.92894 19.5711C6.32746 20.9696 8.10929 21.922 10.0491 22.3079C11.9889 22.6937 13.9996 22.4957 15.8268 21.7388C17.6541 20.9819 19.2159 19.7002 20.3147 18.0557C21.4135 16.4112 22 14.4778 22 12.5C22 11.1868 21.7413 9.88642 21.2388 8.67317C20.7363 7.45991 19.9997 6.35752 19.0711 5.42893C18.1425 4.50035 17.0401 3.76375 15.8268 3.2612C14.6136 2.75866 13.3132 2.5 12 2.5ZM12 20.5C10.4178 20.5 8.87104 20.0308 7.55544 19.1518C6.23985 18.2727 5.21447 17.0233 4.60897 15.5615C4.00347 14.0997 3.84504 12.4911 4.15372 10.9393C4.4624 9.38743 5.22433 7.96197 6.34315 6.84315C7.46197 5.72433 8.88743 4.9624 10.4393 4.65372C11.9911 4.34504 13.5997 4.50346 15.0615 5.10896C16.5233 5.71447 17.7727 6.73985 18.6518 8.05544C19.5308 9.37103 20 10.9178 20 12.5C20 14.6217 19.1572 16.6566 17.6569 18.1569C16.1566 19.6571 14.1217 20.5 12 20.5Z" fill="#060C1F"/>
  <path d="M14.7099 9.78994C14.617 9.69621 14.5064 9.62182 14.3845 9.57105C14.2627 9.52028 14.132 9.49414 13.9999 9.49414C13.8679 9.49414 13.7372 9.52028 13.6154 9.57105C13.4935 9.62182 13.3829 9.69621 13.2899 9.78994L11.9999 11.0899L10.7099 9.78994C10.5216 9.60164 10.2662 9.49585 9.99994 9.49585C9.73364 9.49585 9.47824 9.60164 9.28994 9.78994C9.10164 9.97824 8.99585 10.2336 8.99585 10.4999C8.99585 10.7662 9.10164 11.0216 9.28994 11.2099L10.5899 12.4999L9.28994 13.7899C9.19621 13.8829 9.12182 13.9935 9.07105 14.1154C9.02028 14.2372 8.99414 14.3679 8.99414 14.4999C8.99414 14.632 9.02028 14.7627 9.07105 14.8845C9.12182 15.0064 9.19621 15.117 9.28994 15.2099C9.3829 15.3037 9.4935 15.3781 9.61536 15.4288C9.73722 15.4796 9.86793 15.5057 9.99994 15.5057C10.132 15.5057 10.2627 15.4796 10.3845 15.4288C10.5064 15.3781 10.617 15.3037 10.7099 15.2099L11.9999 13.9099L13.2899 15.2099C13.3829 15.3037 13.4935 15.3781 13.6154 15.4288C13.7372 15.4796 13.8679 15.5057 13.9999 15.5057C14.132 15.5057 14.2627 15.4796 14.3845 15.4288C14.5064 15.3781 14.617 15.3037 14.7099 15.2099C14.8037 15.117 14.8781 15.0064 14.9288 14.8845C14.9796 14.7627 15.0057 14.632 15.0057 14.4999C15.0057 14.3679 14.9796 14.2372 14.9288 14.1154C14.8781 13.9935 14.8037 13.8829 14.7099 13.7899L13.4099 12.4999L14.7099 11.2099C14.8037 11.117 14.8781 11.0064 14.9288 10.8845C14.9796 10.7627 15.0057 10.632 15.0057 10.4999C15.0057 10.3679 14.9796 10.2372 14.9288 10.1154C14.8781 9.9935 14.8037 9.8829 14.7099 9.78994Z" fill="#060C1F"/>
</svg>
