<svg width="24" height="24" viewBox="0 0 24 24" fill="none" xmlns="http://www.w3.org/2000/svg">
<g opacity="0.5">
<path d="M20 6H16.2493V5.25C16.2486 4.65347 16.0113 4.08156 15.5895 3.65975C15.1677 3.23794 14.5958 3.00067 13.9993 3H9.49925C8.90272 3.00067 8.33081 3.23794 7.909 3.65975C7.48719 4.08156 7.24992 4.65347 7.24925 5.25V6H3.5C3.10231 6.00045 2.72104 6.15863 2.43983 6.43983C2.15863 6.72104 2.00045 7.10231 2 7.5V19.5C2.00045 19.8977 2.15863 20.279 2.43983 20.5602C2.72104 20.8414 3.10231 20.9996 3.5 21H20C20.3977 20.9996 20.779 20.8414 21.0602 20.5602C21.3414 20.279 21.4996 19.8977 21.5 19.5V7.5C21.4996 7.10231 21.3414 6.72104 21.0602 6.43983C20.779 6.15863 20.3977 6.00045 20 6ZM8.74925 5.25C8.7495 5.05116 8.8286 4.86054 8.96919 4.71994C9.10979 4.57935 9.30041 4.50025 9.49925 4.5H13.9993C14.1981 4.50025 14.3887 4.57935 14.5293 4.71994C14.6699 4.86054 14.749 5.05116 14.7493 5.25V6H8.74925V5.25ZM14.7493 7.5V19.5H8.74925V7.5H14.7493ZM3.5 7.5H7.24925V19.5H3.5V7.5ZM20 19.5H16.2493V7.5H20L20.0009 19.5H20Z" fill="white"/>
</g>
</svg>
