<svg width="20" height="20" viewBox="0 0 20 20" fill="none" xmlns="http://www.w3.org/2000/svg">
<path d="M14.75 0C15.612 0 16.4386 0.34241 17.0481 0.951903C17.6576 1.5614 18 2.38805 18 3.25V9.022C17.5325 8.72228 17.0284 8.48399 16.5 8.313V5.5H1.5V14.75C1.5 15.716 2.284 16.5 3.25 16.5H8.313C8.486 17.034 8.725 17.537 9.022 18H3.25C2.38805 18 1.5614 17.6576 0.951903 17.0481C0.34241 16.4386 0 15.612 0 14.75V3.25C0 2.38805 0.34241 1.5614 0.951903 0.951903C1.5614 0.34241 2.38805 0 3.25 0H14.75ZM14.75 1.5H3.25C2.78587 1.5 2.34075 1.68437 2.01256 2.01256C1.68437 2.34075 1.5 2.78587 1.5 3.25V4H16.5V3.25C16.5 2.78587 16.3156 2.34075 15.9874 2.01256C15.6592 1.68437 15.2141 1.5 14.75 1.5ZM11.281 10.976C11.3556 11.2345 11.3773 11.5055 11.3447 11.7726C11.3122 12.0397 11.226 12.2975 11.0915 12.5306C10.957 12.7636 10.7768 12.9671 10.5617 13.1289C10.3467 13.2906 10.1012 13.4073 9.84 13.472L9.256 13.617C9.1624 14.2159 9.16442 14.8258 9.262 15.424L9.802 15.554C10.0656 15.6175 10.3135 15.7339 10.5307 15.8962C10.7479 16.0585 10.9298 16.2632 11.0654 16.4979C11.2011 16.7327 11.2875 16.9926 11.3196 17.2618C11.3517 17.531 11.3287 17.8039 11.252 18.064L11.065 18.695C11.505 19.081 12.005 19.395 12.549 19.617L13.043 19.098C13.2298 18.9015 13.4547 18.745 13.7038 18.6381C13.953 18.5312 14.2213 18.476 14.4925 18.476C14.7637 18.476 15.032 18.5312 15.2812 18.6381C15.5303 18.745 15.7552 18.9015 15.942 19.098L16.44 19.624C16.9815 19.4039 17.4826 19.0953 17.923 18.711L17.725 18.025C17.6504 17.7665 17.6287 17.4955 17.6613 17.2284C17.6938 16.9613 17.78 16.7035 17.9145 16.4704C18.049 16.2374 18.2292 16.0339 18.4443 15.8721C18.6593 15.7104 18.9048 15.5937 19.166 15.529L19.75 15.384C19.8436 14.7851 19.8416 14.1752 19.744 13.577L19.204 13.447C18.9404 13.3835 18.6925 13.2671 18.4753 13.1048C18.2581 12.9426 18.0762 12.7378 17.9406 12.5031C17.8049 12.2683 17.7185 12.0084 17.6864 11.7392C17.6543 11.47 17.6773 11.1971 17.754 10.937L17.941 10.306C17.501 9.91836 16.9995 9.60676 16.457 9.384L15.964 9.902C15.7772 10.0987 15.5523 10.2553 15.303 10.3623C15.0537 10.4693 14.7853 10.5245 14.514 10.5245C14.2427 10.5245 13.9743 10.4693 13.725 10.3623C13.4757 10.2553 13.2508 10.0987 13.064 9.902L12.566 9.377C12.022 9.597 11.522 9.907 11.083 10.29L11.281 10.976ZM14.503 16C13.703 16 13.053 15.329 13.053 14.5C13.053 13.672 13.703 13 14.503 13C15.303 13 15.953 13.672 15.953 14.5C15.953 15.329 15.303 16 14.503 16Z" fill="#A7B1CF"/>
</svg>
