<svg width="14" height="14" viewBox="0 0 14 14" fill="none" xmlns="http://www.w3.org/2000/svg">
  <path d="M7 1.4C5.51479 1.4 4.09041 1.99 3.0402 3.0402C1.99 4.09041 1.4 5.51479 1.4 7C1.4 8.48521 1.99 9.90959 3.0402 10.9598C4.09041 12.01 5.51479 12.6 7 12.6C8.48521 12.6 9.90959 12.01 10.9598 10.9598C12.01 9.90959 12.6 8.48521 12.6 7C12.6 5.51479 12.01 4.09041 10.9598 3.0402C9.90959 1.99 8.48521 1.4 7 1.4ZM0 7C0 3.1339 3.1339 0 7 0C10.8661 0 14 3.1339 14 7C14 10.8661 10.8661 14 7 14C3.1339 14 0 10.8661 0 7Z" fill="#BE1111"/>
  <path d="M7.00068 8.40014C6.81503 8.40014 6.63698 8.32639 6.50571 8.19512C6.37443 8.06384 6.30068 7.88579 6.30068 7.70014V3.50014C6.30068 3.31449 6.37443 3.13644 6.50571 3.00517C6.63698 2.87389 6.81503 2.80014 7.00068 2.80014C7.18634 2.80014 7.36438 2.87389 7.49566 3.00517C7.62693 3.13644 7.70068 3.31449 7.70068 3.50014V7.70014C7.70068 7.88579 7.62693 8.06384 7.49566 8.19512C7.36438 8.32639 7.18634 8.40014 7.00068 8.40014ZM5.95068 10.1501C5.95068 9.87166 6.06131 9.60459 6.25822 9.40768C6.45513 9.21077 6.72221 9.10014 7.00068 9.10014C7.27916 9.10014 7.54623 9.21077 7.74315 9.40768C7.94006 9.60459 8.05068 9.87166 8.05068 10.1501C8.05068 10.4286 7.94006 10.6957 7.74315 10.8926C7.54623 11.0895 7.27916 11.2001 7.00068 11.2001C6.72221 11.2001 6.45513 11.0895 6.25822 10.8926C6.06131 10.6957 5.95068 10.4286 5.95068 10.1501Z" fill="#BE1111"/>
</svg>
