<svg width="22" height="14" viewBox="0 0 22 14" fill="none" xmlns="http://www.w3.org/2000/svg">
<path d="M0 13.5C0.15 11.7166 0.696 10.075 1.638 8.57495C2.58 7.07495 3.834 5.88329 5.4 4.99995L3.55 1.79995C3.45 1.64995 3.425 1.49162 3.475 1.32495C3.525 1.15828 3.63333 1.03328 3.8 0.949951C3.93333 0.866618 4.08333 0.849951 4.25 0.899951C4.41667 0.949951 4.55 1.04995 4.65 1.19995L6.5 4.39995C7.93333 3.79995 9.43333 3.49995 11 3.49995C12.5667 3.49995 14.0667 3.79995 15.5 4.39995L17.35 1.19995C17.45 1.04995 17.5833 0.949951 17.75 0.899951C17.9167 0.849951 18.0667 0.866618 18.2 0.949951C18.3667 1.03328 18.475 1.15828 18.525 1.32495C18.575 1.49162 18.55 1.64995 18.45 1.79995L16.6 4.99995C18.1667 5.88329 19.4207 7.07495 20.362 8.57495C21.3033 10.075 21.8493 11.7166 22 13.5H0ZM6 10.75C6.35 10.75 6.646 10.629 6.888 10.387C7.13 10.145 7.25067 9.84929 7.25 9.49995C7.25 9.14995 7.129 8.85395 6.887 8.61195C6.645 8.36995 6.34933 8.24929 6 8.24995C5.65 8.24995 5.354 8.37095 5.112 8.61295C4.87 8.85495 4.74933 9.15062 4.75 9.49995C4.75 9.84995 4.871 10.146 5.113 10.388C5.355 10.63 5.65067 10.7506 6 10.75ZM16 10.75C16.35 10.75 16.646 10.629 16.888 10.387C17.13 10.145 17.2507 9.84929 17.25 9.49995C17.25 9.14995 17.129 8.85395 16.887 8.61195C16.645 8.36995 16.3493 8.24929 16 8.24995C15.65 8.24995 15.354 8.37095 15.112 8.61295C14.87 8.85495 14.7493 9.15062 14.75 9.49995C14.75 9.84995 14.871 10.146 15.113 10.388C15.355 10.63 15.6507 10.7506 16 10.75Z" fill="white"/>
</svg>
