<svg width="20" height="17" viewBox="0 0 20 17" fill="none" xmlns="http://www.w3.org/2000/svg">
<path d="M3.25 0.0235291H16.75C17.5801 0.0234747 18.3788 0.341083 18.9822 0.911201C19.5856 1.48132 19.948 2.26072 19.995 3.08953L20 3.27353V12.7735C20.0001 13.6037 19.6824 14.4024 19.1123 15.0058C18.5422 15.6092 17.7628 15.9715 16.934 16.0185L16.75 16.0235H3.25C2.41986 16.0236 1.62117 15.706 1.01777 15.1359C0.414367 14.5657 0.0519987 13.7863 0.00500012 12.9575L6.97518e-09 12.7735V3.27353C-5.43467e-05 2.44339 0.317554 1.6447 0.887672 1.0413C1.45779 0.437896 2.23719 0.0755277 3.066 0.0285292L3.25 0.0235291H16.75H3.25ZM18.5 5.39653L10.35 9.68653C10.258 9.73514 10.1568 9.76407 10.053 9.77147C9.94921 9.77888 9.84499 9.76459 9.747 9.72953L9.651 9.68753L1.5 5.39753V12.7735C1.50002 13.2127 1.66517 13.6358 1.96268 13.9589C2.26019 14.282 2.6683 14.4814 3.106 14.5175L3.25 14.5235H16.75C17.1893 14.5235 17.6126 14.3582 17.9357 14.0605C18.2588 13.7628 18.4581 13.3544 18.494 12.9165L18.5 12.7735V5.39653ZM16.75 1.52353H3.25C2.81081 1.52355 2.38768 1.6887 2.06461 1.98621C1.74154 2.28372 1.54214 2.69183 1.506 3.12953L1.5 3.27353V3.70253L10 8.17553L18.5 3.70153V3.27353C18.5 2.83418 18.3347 2.41092 18.037 2.08782C17.7392 1.76472 17.3309 1.56543 16.893 1.52953L16.75 1.52353Z" fill="#7C86A8"/>
</svg>
