<svg width="24" height="24" viewBox="0 0 24 24" fill="none" xmlns="http://www.w3.org/2000/svg">
<g opacity="0.5">
<path d="M9 5C7.93913 5 6.92172 5.42143 6.17157 6.17157C5.42143 6.92172 5 7.93913 5 9C5 10.0609 5.42143 11.0783 6.17157 11.8284C6.92172 12.5786 7.93913 13 9 13C10.0609 13 11.0783 12.5786 11.8284 11.8284C12.5786 11.0783 13 10.0609 13 9C13 7.93913 12.5786 6.92172 11.8284 6.17157C11.0783 5.42143 10.0609 5 9 5ZM3 9C3 7.4087 3.63214 5.88258 4.75736 4.75736C5.88258 3.63214 7.4087 3 9 3C10.5913 3 12.1174 3.63214 13.2426 4.75736C14.3679 5.88258 15 7.4087 15 9C15 10.5913 14.3679 12.1174 13.2426 13.2426C12.1174 14.3679 10.5913 15 9 15C7.4087 15 5.88258 14.3679 4.75736 13.2426C3.63214 12.1174 3 10.5913 3 9Z" fill="white"/>
<path d="M3.124 19H14.876C14.329 16.803 12.016 15 9 15C5.984 15 3.671 16.803 3.124 19ZM1 20C1 15.995 4.732 13 9 13C13.268 13 17 15.995 17 20C17 20.2652 16.8946 20.5196 16.7071 20.7071C16.5196 20.8946 16.2652 21 16 21H2C1.73478 21 1.48043 20.8946 1.29289 20.7071C1.10536 20.5196 1 20.2652 1 20ZM16.001 12.874C15.8822 13.0886 15.7534 13.2975 15.615 13.5C16.238 14.05 16.792 14.676 17.262 15.364C19.133 15.999 20.476 17.394 20.876 19H18.8C18.931 19.646 19 20.315 19 21H22C22.2652 21 22.5196 20.8946 22.7071 20.7071C22.8946 20.5196 23 20.2652 23 20C23 17.208 21.186 14.907 18.642 13.769C19.6851 12.9728 20.4384 11.8566 20.7865 10.5914C21.1346 9.32623 21.0584 7.98178 20.5695 6.76405C20.0805 5.54632 19.2059 4.52245 18.0795 3.84929C16.9531 3.17613 15.637 2.8908 14.333 3.037C15.0015 3.63568 15.565 4.34212 16 5.127C16.8578 5.34978 17.6174 5.85099 18.1596 6.55202C18.7018 7.25306 18.996 8.11424 18.996 9.0005C18.996 9.88676 18.7018 10.7479 18.1596 11.449C17.6174 12.15 16.8588 12.6512 16.001 12.874Z" fill="white"/>
</g>
</svg>
