<svg width="14" height="15" viewBox="0 0 14 15" fill="none" xmlns="http://www.w3.org/2000/svg">
<path d="M7.00016 10.8335C7.18905 10.8335 7.3475 10.7695 7.4755 10.6415C7.6035 10.5135 7.66727 10.3553 7.66683 10.1668V7.50016C7.66683 7.31127 7.60283 7.15283 7.47483 7.02483C7.34683 6.89683 7.18861 6.83305 7.00016 6.8335C6.81127 6.8335 6.65283 6.8975 6.52483 7.0255C6.39683 7.1535 6.33305 7.31172 6.3335 7.50016V10.1668C6.3335 10.3557 6.3975 10.5142 6.5255 10.6422C6.6535 10.7702 6.81172 10.8339 7.00016 10.8335ZM7.00016 5.50016C7.18905 5.50016 7.3475 5.43616 7.4755 5.30816C7.6035 5.18016 7.66727 5.02194 7.66683 4.8335C7.66683 4.64461 7.60283 4.48616 7.47483 4.35816C7.34683 4.23016 7.18861 4.16639 7.00016 4.16683C6.81127 4.16683 6.65283 4.23083 6.52483 4.35883C6.39683 4.48683 6.33305 4.64505 6.3335 4.8335C6.3335 5.02239 6.3975 5.18083 6.5255 5.30883C6.6535 5.43683 6.81172 5.50061 7.00016 5.50016ZM7.00016 14.1668C6.07794 14.1668 5.21127 13.9917 4.40016 13.6415C3.58905 13.2913 2.8835 12.8164 2.2835 12.2168C1.6835 11.6168 1.20861 10.9113 0.858829 10.1002C0.509052 9.28905 0.333941 8.42239 0.333496 7.50016C0.333496 6.57794 0.508607 5.71127 0.858829 4.90016C1.20905 4.08905 1.68394 3.3835 2.2835 2.7835C2.8835 2.1835 3.58905 1.70861 4.40016 1.35883C5.21127 1.00905 6.07794 0.833941 7.00016 0.833496C7.92239 0.833496 8.78905 1.00861 9.60016 1.35883C10.4113 1.70905 11.1168 2.18394 11.7168 2.7835C12.3168 3.3835 12.7919 4.08905 13.1422 4.90016C13.4924 5.71127 13.6673 6.57794 13.6668 7.50016C13.6668 8.42239 13.4917 9.28905 13.1415 10.1002C12.7913 10.9113 12.3164 11.6168 11.7168 12.2168C11.1168 12.8168 10.4113 13.2919 9.60016 13.6422C8.78905 13.9924 7.92239 14.1673 7.00016 14.1668Z" fill="#A7B1CF"/>
</svg>
