<svg width="16" height="20" viewBox="0 0 16 20" fill="none" xmlns="http://www.w3.org/2000/svg">
<path d="M0.5 0.25V5.5H2V1.75H14V5.5H15.5V0.25H0.5ZM2 7L3.5 10L2 13H3.5L4.25 11.5L5 13H6.5L5 10L6.5 7H5L4.25 8.5L3.5 7H2ZM7.25 7V13H10.25V11.5H8.75V7H7.25ZM12.875 7C11.8378 7 11 7.83775 11 8.875C11 9.91225 11.8378 10.75 12.875 10.75C13.0378 10.75 13.25 10.9622 13.25 11.125C13.25 11.35 13.16 11.5 12.875 11.5C12.599 11.5 12.557 11.44 12.5465 11.4295C12.5367 11.4198 12.5 11.3695 12.5 11.1955H11C11 11.62 11.1222 12.0955 11.4688 12.4608C11.8153 12.8267 12.326 13.0007 12.875 13.0007C13.94 13.0007 14.75 12.1007 14.75 11.1257C14.75 10.0885 13.9122 9.25075 12.875 9.25075C12.7122 9.25075 12.5 9.0385 12.5 8.87575C12.5 8.713 12.7122 8.50075 12.875 8.50075C13.0752 8.50075 13.136 8.548 13.1795 8.5945C13.2245 8.641 13.25 8.722 13.25 8.8045H14.75C14.75 8.36425 14.5887 7.9105 14.258 7.56325C13.9265 7.216 13.4255 7.00075 12.875 7.00075V7ZM0.5 14.5V19.75H15.5V14.5H14V18.25H2V14.5H0.5Z" fill="#060C1F"/>
</svg>
