<svg width="18" height="19" viewBox="0 0 18 19" fill="none" xmlns="http://www.w3.org/2000/svg">
<path d="M14.75 0.0235291C15.612 0.0235291 16.4386 0.365939 17.0481 0.975432C17.6576 1.58493 18 2.41158 18 3.27353V14.7735C18 15.6355 17.6576 16.4621 17.0481 17.0716C16.4386 17.6811 15.612 18.0235 14.75 18.0235H3.25C2.38805 18.0235 1.5614 17.6811 0.951903 17.0716C0.34241 16.4621 0 15.6355 0 14.7735V3.27353C0 2.41158 0.34241 1.58493 0.951903 0.975432C1.5614 0.365939 2.38805 0.0235291 3.25 0.0235291H14.75ZM16.5 5.52353H1.5V14.7735C1.5 15.7395 2.284 16.5235 3.25 16.5235H14.75C15.2141 16.5235 15.6592 16.3392 15.9874 16.011C16.3156 15.6828 16.5 15.2377 16.5 14.7735V5.52353ZM4.75 11.5235C5.08152 11.5235 5.39946 11.6552 5.63388 11.8896C5.8683 12.1241 6 12.442 6 12.7735C6 13.1051 5.8683 13.423 5.63388 13.6574C5.39946 13.8918 5.08152 14.0235 4.75 14.0235C4.41848 14.0235 4.10054 13.8918 3.86612 13.6574C3.6317 13.423 3.5 13.1051 3.5 12.7735C3.5 12.442 3.6317 12.1241 3.86612 11.8896C4.10054 11.6552 4.41848 11.5235 4.75 11.5235ZM9 11.5235C9.33152 11.5235 9.64946 11.6552 9.88388 11.8896C10.1183 12.1241 10.25 12.442 10.25 12.7735C10.25 13.1051 10.1183 13.423 9.88388 13.6574C9.64946 13.8918 9.33152 14.0235 9 14.0235C8.66848 14.0235 8.35054 13.8918 8.11612 13.6574C7.8817 13.423 7.75 13.1051 7.75 12.7735C7.75 12.442 7.8817 12.1241 8.11612 11.8896C8.35054 11.6552 8.66848 11.5235 9 11.5235ZM4.75 7.52353C5.08152 7.52353 5.39946 7.65523 5.63388 7.88965C5.8683 8.12407 6 8.44201 6 8.77353C6 9.10505 5.8683 9.42299 5.63388 9.65741C5.39946 9.89183 5.08152 10.0235 4.75 10.0235C4.41848 10.0235 4.10054 9.89183 3.86612 9.65741C3.6317 9.42299 3.5 9.10505 3.5 8.77353C3.5 8.44201 3.6317 8.12407 3.86612 7.88965C4.10054 7.65523 4.41848 7.52353 4.75 7.52353ZM9 7.52353C9.33152 7.52353 9.64946 7.65523 9.88388 7.88965C10.1183 8.12407 10.25 8.44201 10.25 8.77353C10.25 9.10505 10.1183 9.42299 9.88388 9.65741C9.64946 9.89183 9.33152 10.0235 9 10.0235C8.66848 10.0235 8.35054 9.89183 8.11612 9.65741C7.8817 9.42299 7.75 9.10505 7.75 8.77353C7.75 8.44201 7.8817 8.12407 8.11612 7.88965C8.35054 7.65523 8.66848 7.52353 9 7.52353ZM13.25 7.52353C13.5815 7.52353 13.8995 7.65523 14.1339 7.88965C14.3683 8.12407 14.5 8.44201 14.5 8.77353C14.5 9.10505 14.3683 9.42299 14.1339 9.65741C13.8995 9.89183 13.5815 10.0235 13.25 10.0235C12.9185 10.0235 12.6005 9.89183 12.3661 9.65741C12.1317 9.42299 12 9.10505 12 8.77353C12 8.44201 12.1317 8.12407 12.3661 7.88965C12.6005 7.65523 12.9185 7.52353 13.25 7.52353ZM14.75 1.52353H3.25C2.78587 1.52353 2.34075 1.7079 2.01256 2.03609C1.68437 2.36428 1.5 2.8094 1.5 3.27353V4.02353H16.5V3.27353C16.5 2.8094 16.3156 2.36428 15.9874 2.03609C15.6592 1.7079 15.2141 1.52353 14.75 1.52353Z" fill="#A7B1CF"/>
</svg>
