<svg width="16" height="16" viewBox="0 0 16 16" fill="none" xmlns="http://www.w3.org/2000/svg">
<path d="M13.3335 4H11.3335V2.66667C11.3335 1.93134 10.7355 1.33334 10.0002 1.33334H6.00016C5.26483 1.33334 4.66683 1.93134 4.66683 2.66667V4H2.66683C1.9315 4 1.3335 4.598 1.3335 5.33334V12.6667C1.3335 13.402 1.9315 14 2.66683 14H13.3335C14.0688 14 14.6668 13.402 14.6668 12.6667V5.33334C14.6668 4.598 14.0688 4 13.3335 4ZM10.0002 2.66667V4H6.00016V2.66667H10.0002ZM5.3335 5.33334H13.3335V7.33334H2.66683V5.33334H5.3335ZM2.66683 12.6667V8.66667H6.66683V10H9.3335V8.66667H13.3335L13.3342 12.6667H2.66683Z" fill="#A7B1CF"/>
</svg>
