<svg width="36" height="36" viewBox="0 0 36 36" fill="none" xmlns="http://www.w3.org/2000/svg">
<rect width="36" height="36" rx="8" fill="#EEF0F7"/>
<path d="M8 12C8 10.9391 8.42143 9.92171 9.17157 9.17157C9.92172 8.42142 10.9391 8 12 8H24C25.0609 8 26.0783 8.42142 26.8284 9.17157C27.5786 9.92171 28 10.9391 28 12V23.9999C28 25.0608 27.5786 26.0782 26.8284 26.8283C26.0783 27.5784 25.0609 27.9999 24 27.9999H12C10.9391 27.9999 9.92172 27.5784 9.17157 26.8283C8.42143 26.0782 8 25.0608 8 23.9999V12Z" stroke="#4057E7" stroke-width="2" stroke-linecap="round" stroke-linejoin="round"/>
<path d="M14.5 17C15.8807 17 17 15.8807 17 14.5C17 13.1193 15.8807 12 14.5 12C13.1193 12 12 13.1193 12 14.5C12 15.8807 13.1193 17 14.5 17Z" stroke="#4057E7" stroke-width="2" stroke-linecap="round" stroke-linejoin="round"/>
<path d="M20.526 18.6213L12 28.0002H24.133C25.1586 28.0002 26.1422 27.5928 26.8674 26.8676C27.5926 26.1424 28 25.1588 28 24.1333V24.0003C28 23.5343 27.825 23.3553 27.51 23.0103L23.48 18.6153C23.2922 18.4104 23.0637 18.2469 22.8092 18.1353C22.5546 18.0236 22.2796 17.9662 22.0017 17.9668C21.7237 17.9674 21.449 18.0259 21.1949 18.1385C20.9408 18.2512 20.713 18.4156 20.526 18.6213V18.6213Z" stroke="#4057E7" stroke-width="2" stroke-linecap="round" stroke-linejoin="round"/>
</svg>
