<svg width="24" height="24" viewBox="0 0 24 24" fill="none" xmlns="http://www.w3.org/2000/svg">
<path d="M6.5 20.0016C4.98333 20.0016 3.68767 19.4766 2.613 18.4266C1.53833 17.3766 1.00067 16.0932 1 14.5766C1 13.2766 1.39167 12.1182 2.175 11.1016C2.95833 10.0849 3.98333 9.4349 5.25 9.15156C5.53333 7.95156 6.24167 6.8099 7.375 5.72656C8.50833 4.64323 9.71667 4.10156 11 4.10156C11.55 4.10156 12.021 4.29756 12.413 4.68956C12.805 5.08156 13.0007 5.55223 13 6.10156V12.1516L14.6 10.6016L16 12.0016L12 16.0016L8 12.0016L9.4 10.6016L11 12.1516V6.10156C9.73333 6.3349 8.75 6.94756 8.05 7.93956C7.35 8.93156 7 9.95223 7 11.0016H6.5C5.53333 11.0016 4.70833 11.3432 4.025 12.0266C3.34167 12.7099 3 13.5349 3 14.5016C3 15.4682 3.34167 16.2932 4.025 16.9766C4.70833 17.6599 5.53333 18.0016 6.5 18.0016H18.5C19.2 18.0016 19.7917 17.7599 20.275 17.2766C20.7583 16.7932 21 16.2016 21 15.5016C21 14.8016 20.7583 14.2099 20.275 13.7266C19.7917 13.2432 19.2 13.0016 18.5 13.0016H17V11.0016C17 10.2016 16.8167 9.45556 16.45 8.76356C16.0833 8.07156 15.6 7.48423 15 7.00156V4.67656C16.2333 5.2599 17.2083 6.12256 17.925 7.26456C18.6417 8.40656 19 9.65223 19 11.0016C20.15 11.1349 21.1043 11.6309 21.863 12.4896C22.6217 13.3482 23.0007 14.3522 23 15.5016C23 16.7516 22.5627 17.8142 21.688 18.6896C20.8133 19.5649 19.7507 20.0022 18.5 20.0016H6.5Z" fill="#060C1F"/>
</svg>
