<svg width="22" height="21" viewBox="0 0 22 21" fill="none" xmlns="http://www.w3.org/2000/svg">
<path d="M11 0.022583C16.524 0.022583 21.002 4.50058 21.002 10.0246C21.002 15.5476 16.524 20.0256 11 20.0256C5.47599 20.0256 0.997986 15.5476 0.997986 10.0246C0.997986 4.50058 5.47599 0.022583 11 0.022583ZM11 1.52258C9.87579 1.51039 8.76035 1.72128 7.7182 2.14305C6.67606 2.56483 5.72792 3.1891 4.92865 3.97975C4.12938 4.7704 3.49486 5.71172 3.06181 6.74922C2.62876 7.78673 2.40578 8.89983 2.40578 10.0241C2.40578 11.1483 2.62876 12.2614 3.06181 13.2989C3.49486 14.3365 4.12938 15.2778 4.92865 16.0684C5.72792 16.8591 6.67606 17.4833 7.7182 17.9051C8.76035 18.3269 9.87579 18.5378 11 18.5256C13.232 18.4913 15.361 17.5806 16.9273 15.9901C18.4937 14.3996 19.3716 12.2569 19.3716 10.0246C19.3716 7.7923 18.4937 5.64956 16.9273 4.05904C15.361 2.46852 13.232 1.55782 11 1.52358V1.52258ZM10.996 8.52258C11.1774 8.52235 11.3527 8.58788 11.4895 8.70702C11.6263 8.82617 11.7153 8.99086 11.74 9.17058L11.747 9.27258L11.75 14.7746C11.7499 14.9646 11.6777 15.1475 11.548 15.2864C11.4183 15.4252 11.2407 15.5097 11.0511 15.5226C10.8615 15.5356 10.6741 15.4761 10.5267 15.3562C10.3793 15.2362 10.2829 15.0648 10.257 14.8766L10.25 14.7756L10.247 9.27358C10.247 9.07467 10.326 8.88391 10.4667 8.74325C10.6073 8.6026 10.7981 8.52358 10.997 8.52358L10.996 8.52258ZM11 5.02658C11.1338 5.02235 11.267 5.04504 11.3919 5.09332C11.5167 5.14159 11.6306 5.21446 11.7267 5.3076C11.8229 5.40073 11.8993 5.51224 11.9515 5.63549C12.0037 5.75875 12.0306 5.89123 12.0306 6.02508C12.0306 6.15893 12.0037 6.29142 11.9515 6.41467C11.8993 6.53793 11.8229 6.64943 11.7267 6.74257C11.6306 6.83571 11.5167 6.90858 11.3919 6.95685C11.267 7.00512 11.1338 7.02782 11 7.02358C10.7406 7.01537 10.4947 6.90658 10.3141 6.72022C10.1335 6.53386 10.0326 6.28456 10.0326 6.02508C10.0326 5.7656 10.1335 5.51631 10.3141 5.32995C10.4947 5.14359 10.7406 5.03479 11 5.02658V5.02658Z" fill="#A7B1CF"/>
</svg>
