<svg width="22" height="21" viewBox="0 0 22 21" fill="none" xmlns="http://www.w3.org/2000/svg">
<path d="M11 -0.000976562C16.524 -0.000976562 21.002 4.47702 21.002 10.001C21.002 15.524 16.524 20.002 11 20.002C5.47599 20.002 0.997986 15.524 0.997986 10.001C0.997986 4.47702 5.47599 -0.000976562 11 -0.000976562ZM11 1.49902C9.87579 1.48683 8.76035 1.69772 7.7182 2.1195C6.67606 2.54127 5.72792 3.16554 4.92865 3.95619C4.12938 4.74684 3.49486 5.68816 3.06181 6.72566C2.62876 7.76317 2.40578 8.87627 2.40578 10.0005C2.40578 11.1248 2.62876 12.2379 3.06181 13.2754C3.49486 14.3129 4.12938 15.2542 4.92865 16.0449C5.72792 16.8355 6.67606 17.4598 7.7182 17.8816C8.76035 18.3033 9.87579 18.5142 11 18.502C13.232 18.4678 15.361 17.5571 16.9273 15.9666C18.4937 14.376 19.3716 12.2333 19.3716 10.001C19.3716 7.76874 18.4937 5.626 16.9273 4.03548C15.361 2.44496 13.232 1.53426 11 1.50002V1.49902ZM10.996 8.49902C11.1774 8.49879 11.3527 8.56432 11.4895 8.68346C11.6263 8.80261 11.7153 8.9673 11.74 9.14702L11.747 9.24902L11.75 14.751C11.7499 14.941 11.6777 15.124 11.548 15.2628C11.4183 15.4017 11.2407 15.4861 11.0511 15.499C10.8615 15.512 10.6741 15.4525 10.5267 15.3326C10.3793 15.2127 10.2829 15.0413 10.257 14.853L10.25 14.752L10.247 9.25002C10.247 9.05111 10.326 8.86035 10.4667 8.71969C10.6073 8.57904 10.7981 8.50002 10.997 8.50002L10.996 8.49902ZM11 5.00302C11.1338 4.99879 11.267 5.02148 11.3919 5.06976C11.5167 5.11803 11.6306 5.1909 11.7267 5.28404C11.8229 5.37717 11.8993 5.48868 11.9515 5.61193C12.0037 5.73519 12.0306 5.86767 12.0306 6.00152C12.0306 6.13537 12.0037 6.26786 11.9515 6.39111C11.8993 6.51437 11.8229 6.62587 11.7267 6.71901C11.6306 6.81215 11.5167 6.88502 11.3919 6.93329C11.267 6.98156 11.1338 7.00426 11 7.00002C10.7406 6.99181 10.4947 6.88302 10.3141 6.69666C10.1335 6.5103 10.0326 6.261 10.0326 6.00152C10.0326 5.74204 10.1335 5.49275 10.3141 5.30639C10.4947 5.12003 10.7406 5.01123 11 5.00302Z" fill="white"/>
</svg>
