<svg width="20" height="16" viewBox="0 0 20 16" fill="none" xmlns="http://www.w3.org/2000/svg">
<path d="M12.193 10.751C12.326 10.8988 12.5123 10.9878 12.7109 10.9983C12.9095 11.0088 13.1041 10.94 13.252 10.807L15.752 8.557C15.83 8.48668 15.8923 8.40076 15.935 8.30481C15.9777 8.20886 15.9998 8.10501 15.9998 8C15.9998 7.89499 15.9777 7.79114 15.935 7.69519C15.8923 7.59924 15.83 7.51332 15.752 7.443L13.252 5.193C13.1041 5.05986 12.9095 4.99091 12.7108 5.00132C12.5121 5.01173 12.3256 5.10064 12.1925 5.2485C12.0594 5.39636 11.9904 5.59105 12.0008 5.78974C12.0112 5.98844 12.1001 6.17486 12.248 6.308L13.296 7.25H9.75C9.55109 7.25 9.36032 7.32902 9.21967 7.46967C9.07902 7.61032 9 7.80109 9 8C9 8.19891 9.07902 8.38968 9.21967 8.53033C9.36032 8.67098 9.55109 8.75 9.75 8.75H13.296L12.248 9.692C12.1747 9.75795 12.1152 9.8377 12.0727 9.92668C12.0303 10.0157 12.0059 10.1121 12.0007 10.2106C11.9956 10.309 12.01 10.4075 12.043 10.5004C12.076 10.5933 12.1269 10.6778 12.193 10.751ZM0 2.75C0 2.02065 0.289731 1.32118 0.805456 0.805456C1.32118 0.289731 2.02065 0 2.75 0H17.25C17.9793 0 18.6788 0.289731 19.1945 0.805456C19.7103 1.32118 20 2.02065 20 2.75V13.25C20 13.6111 19.9289 13.9687 19.7907 14.3024C19.6525 14.636 19.4499 14.9392 19.1945 15.1945C18.9392 15.4499 18.636 15.6525 18.3024 15.7907C17.9687 15.9289 17.6111 16 17.25 16H2.75C2.38886 16 2.03127 15.9289 1.69762 15.7907C1.36398 15.6525 1.06082 15.4499 0.805456 15.1945C0.550095 14.9392 0.347532 14.636 0.209331 14.3024C0.0711308 13.9687 0 13.6111 0 13.25V2.75ZM2.75 1.5C2.06 1.5 1.5 2.06 1.5 2.75V13.25C1.5 13.94 2.06 14.5 2.75 14.5H6.004V1.5H2.75ZM7.504 1.5V14.5H17.25C17.94 14.5 18.5 13.94 18.5 13.25V2.75C18.5 2.06 17.94 1.5 17.25 1.5H7.504Z" fill="white"/>
</svg>
