<svg width="22" height="21" viewBox="0 0 22 21" fill="none" xmlns="http://www.w3.org/2000/svg">
<path d="M17.25 5.02352C17.25 5.35504 17.1183 5.67298 16.8839 5.9074C16.6494 6.14182 16.3315 6.27352 16 6.27352C15.6685 6.27352 15.3505 6.14182 15.1161 5.9074C14.8817 5.67298 14.75 5.35504 14.75 5.02352C14.75 4.692 14.8817 4.37405 15.1161 4.13963C15.3505 3.90521 15.6685 3.77352 16 3.77352C16.3315 3.77352 16.6494 3.90521 16.8839 4.13963C17.1183 4.37405 17.25 4.692 17.25 5.02352Z" fill="#A7B1CF"/>
<path d="M14.5 0.0735168C12.7631 0.0745765 11.0977 0.765004 9.8696 1.99314C8.64146 3.22127 7.95103 4.88667 7.94997 6.62352C7.94997 7.01052 7.99998 7.38352 8.05998 7.72752C8.06877 7.77082 8.067 7.8156 8.05481 7.85808C8.04263 7.90055 8.02039 7.93946 7.98997 7.97152L1.75497 14.2075C1.23918 14.723 0.949263 15.4223 0.948975 16.1515V18.3235C0.948975 19.2895 1.73297 20.0735 2.69897 20.0735H5.19897C5.6631 20.0735 6.10822 19.8891 6.43641 19.561C6.7646 19.2328 6.94897 18.7876 6.94897 18.3235V17.0735H8.69997C9.38997 17.0735 9.94997 16.5135 9.94997 15.8235V14.0735H11.7C12.0237 14.0737 12.3348 13.9484 12.568 13.7238C12.8011 13.4992 12.9381 13.193 12.95 12.8695C13.446 12.9975 13.97 13.0735 14.5 13.0735C16.2368 13.0725 17.9022 12.382 19.1304 11.1539C20.3585 9.92576 21.0489 8.26036 21.05 6.52352C21.05 2.89252 18.097 0.0735168 14.5 0.0735168ZM9.44997 6.62352C9.45103 5.2845 9.98343 4.00063 10.9303 3.0538C11.8771 2.10697 13.161 1.57458 14.5 1.57352C17.302 1.57352 19.55 3.75452 19.55 6.52352C19.5489 7.86253 19.0165 9.14641 18.0697 10.0932C17.1229 11.0401 15.839 11.5725 14.5 11.5735C13.82 11.5735 13.12 11.4025 12.495 11.1335C12.3808 11.0845 12.2563 11.0646 12.1325 11.0756C12.0088 11.0866 11.8897 11.1282 11.786 11.1966C11.6823 11.265 11.5972 11.3581 11.5384 11.4675C11.4795 11.577 11.4488 11.6993 11.449 11.8235V12.5735H9.69997C9.00997 12.5735 8.44997 13.1335 8.44997 13.8235V15.5735H6.69997C6.00997 15.5735 5.44997 16.1335 5.44997 16.8235V18.3235C5.44997 18.3898 5.42364 18.4534 5.37675 18.5003C5.32987 18.5472 5.26628 18.5735 5.19997 18.5735H2.69997C2.63367 18.5735 2.57008 18.5472 2.5232 18.5003C2.47631 18.4534 2.44997 18.3898 2.44997 18.3235V16.1515C2.44997 15.8205 2.58197 15.5015 2.81597 15.2675L9.05197 9.03252C9.25269 8.83006 9.40166 8.58221 9.48626 8.30996C9.57086 8.03771 9.5886 7.74908 9.53797 7.46852C9.48432 7.18992 9.45487 6.9072 9.44997 6.62352Z" fill="#A7B1CF"/>
</svg>
