<svg width="22" height="21" viewBox="0 0 22 21" fill="none" xmlns="http://www.w3.org/2000/svg">
<path d="M17.25 4.99999C17.25 5.33151 17.1183 5.64945 16.8839 5.88387C16.6494 6.11829 16.3315 6.24999 16 6.24999C15.6685 6.24999 15.3505 6.11829 15.1161 5.88387C14.8817 5.64945 14.75 5.33151 14.75 4.99999C14.75 4.66847 14.8817 4.35052 15.1161 4.1161C15.3505 3.88168 15.6685 3.74999 16 3.74999C16.3315 3.74999 16.6494 3.88168 16.8839 4.1161C17.1183 4.35052 17.25 4.66847 17.25 4.99999Z" fill="white"/>
<path d="M14.5 0.0499878C12.7631 0.0510475 11.0977 0.741475 9.8696 1.96961C8.64146 3.19774 7.95103 4.86314 7.94997 6.59999C7.94997 6.98699 7.99998 7.35999 8.05998 7.70399C8.06877 7.74729 8.067 7.79207 8.05481 7.83455C8.04263 7.87702 8.02039 7.91593 7.98997 7.94799L1.75497 14.184C1.23918 14.6995 0.949263 15.3988 0.948975 16.128V18.3C0.948975 19.266 1.73297 20.05 2.69897 20.05H5.19897C5.6631 20.05 6.10822 19.8656 6.43641 19.5374C6.7646 19.2092 6.94897 18.7641 6.94897 18.3V17.05H8.69997C9.38997 17.05 9.94997 16.49 9.94997 15.8V14.05H11.7C12.0237 14.0502 12.3348 13.9248 12.568 13.7003C12.8011 13.4757 12.9381 13.1695 12.95 12.846C13.446 12.974 13.97 13.05 14.5 13.05C16.2368 13.0489 17.9022 12.3585 19.1304 11.1304C20.3585 9.90223 21.0489 8.23683 21.05 6.49999C21.05 2.86899 18.097 0.0499878 14.5 0.0499878ZM9.44997 6.59999C9.45103 5.26097 9.98343 3.9771 10.9303 3.03027C11.8771 2.08344 13.161 1.55105 14.5 1.54999C17.302 1.54999 19.55 3.73099 19.55 6.49999C19.5489 7.83901 19.0165 9.12288 18.0697 10.0697C17.1229 11.0165 15.839 11.5489 14.5 11.55C13.82 11.55 13.12 11.379 12.495 11.11C12.3808 11.061 12.2563 11.041 12.1325 11.0521C12.0088 11.0631 11.8897 11.1046 11.786 11.173C11.6823 11.2415 11.5972 11.3346 11.5384 11.444C11.4795 11.5534 11.4488 11.6757 11.449 11.8V12.55H9.69997C9.00997 12.55 8.44997 13.11 8.44997 13.8V15.55H6.69997C6.00997 15.55 5.44997 16.11 5.44997 16.8V18.3C5.44997 18.3663 5.42364 18.4299 5.37675 18.4768C5.32987 18.5236 5.26628 18.55 5.19997 18.55H2.69997C2.63367 18.55 2.57008 18.5236 2.5232 18.4768C2.47631 18.4299 2.44997 18.3663 2.44997 18.3V16.128C2.44997 15.797 2.58197 15.478 2.81597 15.244L9.05197 9.00899C9.25269 8.80653 9.40166 8.55868 9.48626 8.28643C9.57086 8.01418 9.5886 7.72555 9.53797 7.44499C9.48432 7.16639 9.45487 6.88367 9.44997 6.59999Z" fill="white"/>
</svg>
