<svg width="24" height="24" viewBox="0 0 24 24" fill="none" xmlns="http://www.w3.org/2000/svg">
<g opacity="0.5">
<path fill-rule="evenodd" clip-rule="evenodd" d="M12 4.00031C10.6156 4.00031 9.26219 4.41084 8.11105 5.17999C6.95991 5.94915 6.06271 7.04238 5.53288 8.32144C5.00306 9.6005 4.86441 11.0079 5.13448 12.3658C5.40454 13.7236 6.07115 14.9709 7.05003 15.9498C7.05006 15.9499 7.04999 15.9498 7.05003 15.9498L11.294 20.1928C11.3867 20.2856 11.4972 20.3596 11.6184 20.4099C11.7395 20.4601 11.8694 20.4859 12.0005 20.4859C12.1316 20.4859 12.2615 20.4601 12.3827 20.4099C12.5038 20.3596 12.6139 20.286 12.7065 20.1933L16.9499 15.9499C16.9499 15.9499 16.9499 15.9499 16.9499 15.9499C17.9288 14.9709 18.5955 13.7237 18.8655 12.3658C19.1356 11.0079 18.997 9.6005 18.4671 8.32144C17.9373 7.04238 17.0401 5.94915 15.889 5.17999C14.7378 4.41084 13.3845 4.00031 12 4.00031ZM6.99992 3.51705C8.47995 2.52813 10.22 2.00031 12 2.00031C13.78 2.00031 15.5201 2.52813 17.0001 3.51705C18.4801 4.50596 19.6337 5.91154 20.3149 7.55605C20.9961 9.20056 21.1743 11.0101 20.8271 12.7559C20.4799 14.5018 19.6228 16.1054 18.3641 17.3641L14.1215 21.6068C14.1213 21.6069 14.1216 21.6067 14.1215 21.6068C13.8431 21.8853 13.5123 22.1066 13.1485 22.2574C12.7845 22.4083 12.3945 22.4859 12.0005 22.4859C11.6066 22.4859 11.2165 22.4083 10.8525 22.2574C10.4886 22.1066 10.158 21.8855 9.87955 21.6068L5.63598 17.3642C4.37735 16.1055 3.52013 14.5018 3.1729 12.7559C2.82567 11.0101 3.00393 9.20056 3.68513 7.55605C4.36633 5.91154 5.51989 4.50596 6.99992 3.51705ZM12 9.00001C11.4696 9.00001 10.9609 9.21073 10.5858 9.5858C10.2107 9.96087 10 10.4696 10 11C10 11.5304 10.2107 12.0392 10.5858 12.4142C10.9609 12.7893 11.4696 13 12 13C12.5304 13 13.0391 12.7893 13.4142 12.4142C13.7893 12.0392 14 11.5304 14 11C14 10.4696 13.7893 9.96087 13.4142 9.5858C13.0391 9.21073 12.5304 9.00001 12 9.00001ZM9.17158 8.17159C9.92172 7.42144 10.9391 7.00001 12 7.00001C13.0609 7.00001 14.0783 7.42144 14.8284 8.17159C15.5786 8.92173 16 9.93915 16 11C16 12.0609 15.5786 13.0783 14.8284 13.8284C14.0783 14.5786 13.0609 15 12 15C10.9391 15 9.92172 14.5786 9.17158 13.8284C8.42143 13.0783 8 12.0609 8 11C8 9.93915 8.42143 8.92173 9.17158 8.17159Z" fill="white"/>
</g>
</svg>
