<svg width="16" height="20" viewBox="0 0 16 20" fill="none" xmlns="http://www.w3.org/2000/svg">
<path d="M8 4.28588C7.2808 4.28588 6.57774 4.49535 5.97974 4.8878C5.38175 5.28025 4.91567 5.83805 4.64044 6.49067C4.36521 7.14329 4.2932 7.86141 4.43351 8.55423C4.57382 9.24704 4.92015 9.88343 5.4287 10.3829C5.93726 10.8824 6.5852 11.2226 7.29058 11.3604C7.99597 11.4982 8.72712 11.4275 9.39158 11.1571C10.056 10.8868 10.624 10.429 11.0235 9.8417C11.4231 9.25436 11.6364 8.56384 11.6364 7.85745C11.634 6.91093 11.2501 6.00386 10.5686 5.33457C9.88722 4.66528 8.96369 4.28824 8 4.28588ZM8 10.0004C7.56848 10.0004 7.14665 9.87471 6.78785 9.63924C6.42905 9.40377 6.1494 9.06909 5.98426 8.67752C5.81913 8.28594 5.77592 7.85507 5.86011 7.43938C5.94429 7.02369 6.15209 6.64186 6.45722 6.34216C6.76235 6.04246 7.15112 5.83837 7.57435 5.75568C7.99758 5.673 8.43627 5.71544 8.83495 5.87763C9.23362 6.03982 9.57437 6.31449 9.81412 6.66689C10.0539 7.0193 10.1818 7.43361 10.1818 7.85745C10.1794 8.42507 9.94879 8.96877 9.54013 9.37014C9.13148 9.77151 8.57792 9.99804 8 10.0004ZM8 0C5.87901 0.00236325 3.84557 0.830958 2.3458 2.304C0.846034 3.77705 0.00240612 5.77425 0 7.85745C0 10.6611 1.31818 13.6345 3.81818 16.4471C4.94196 17.7211 6.20398 18.8708 7.58182 19.8758C7.70569 19.9568 7.85118 20 8 20C8.14882 20 8.29431 19.9568 8.41818 19.8758C9.80004 18.8723 11.0652 17.7225 12.1909 16.4471C14.6818 13.6345 16 10.6611 16 7.85745C15.9976 5.77425 15.154 3.77705 13.6542 2.304C12.1544 0.830958 10.121 0.00236325 8 0ZM8 18.3936C6.5 17.2328 1.45455 12.9648 1.45455 7.85745C1.45455 6.15242 2.14415 4.51722 3.37166 3.31159C4.59918 2.10595 6.26404 1.42863 8 1.42863C9.73596 1.42863 11.4008 2.10595 12.6283 3.31159C13.8558 4.51722 14.5455 6.15242 14.5455 7.85745C14.5455 12.9648 9.5 17.2328 8 18.3936Z" fill="#2BC23A"/>
</svg>
