<svg width="32" height="33" viewBox="0 0 32 33" fill="none" xmlns="http://www.w3.org/2000/svg">
<path d="M12.0206 4.65189C11.6631 3.39832 10.3525 2.65741 9.17782 3.2079C7.51222 3.98848 5.99688 5.07305 4.71171 6.41325C2.88118 8.32218 1.58212 10.6825 0.945109 13.2569C0.308094 15.8313 0.355565 18.5291 1.08275 21.0792C1.80994 23.6293 3.19122 25.9418 5.08776 27.7843C6.9843 29.6268 9.32928 30.9343 11.887 31.5755C14.4447 32.2167 17.1251 32.1689 19.6586 31.437C22.1922 30.705 24.4897 29.3147 26.3202 27.4058C27.6054 26.0656 28.6286 24.5029 29.3446 22.7999C29.8496 21.5988 29.0675 20.3067 27.8102 19.9915C26.5529 19.6763 25.3023 20.466 24.7139 21.628C24.252 22.5404 23.6566 23.3829 22.9441 24.1259C21.6855 25.4383 20.106 26.3942 18.3641 26.8974C16.6222 27.4006 14.7795 27.4335 13.021 26.9926C11.2625 26.5518 9.65031 25.6529 8.3464 24.3861C7.0425 23.1194 6.09285 21.5295 5.5929 19.7763C5.09294 18.023 5.0603 16.1682 5.49826 14.3983C5.93622 12.6283 6.82934 11.0056 8.08786 9.69317C8.80038 8.95014 9.6158 8.32141 10.5053 7.82439C11.6382 7.1914 12.378 5.90546 12.0206 4.65189Z" fill="url(#paint0_radial_2_1044)"/>
<path d="M28.9091 16.9718C30.2374 17.1715 31.5022 16.291 31.5 14.9937C31.4974 13.4823 31.2586 11.9753 30.7877 10.5245C30.0734 8.3239 28.844 6.31135 27.1948 4.64256C25.5455 2.97377 23.5205 1.69347 21.2765 0.9007C19.7971 0.378046 18.2486 0.0765356 16.6843 0.00246229C15.3416 -0.0611184 14.3703 1.11636 14.5141 2.40621C14.658 3.69607 15.8688 4.60138 17.2035 4.75673C18.0201 4.85179 18.8254 5.03764 19.6029 5.31232C21.1457 5.85736 22.5379 6.73759 23.6718 7.88491C24.8057 9.03223 25.6509 10.4159 26.142 11.9289C26.3895 12.6914 26.5438 13.4764 26.6035 14.2681C26.7011 15.562 27.5808 16.772 28.9091 16.9718Z" fill="url(#paint1_radial_2_1044)"/>
<path fill-rule="evenodd" clip-rule="evenodd" d="M21.0944 10.8898C21.9428 11.7381 21.9428 13.1136 21.0944 13.962L16.4393 18.6172C15.5909 19.4656 14.2154 19.4656 13.367 18.6172C12.5186 17.7688 12.5186 16.3933 13.367 15.5449L18.0222 10.8898C18.8706 10.0414 20.246 10.0414 21.0944 10.8898Z" fill="url(#paint2_linear_2_1044)"/>
<defs>
<radialGradient id="paint0_radial_2_1044" cx="0" cy="0" r="1" gradientUnits="userSpaceOnUse" gradientTransform="translate(15.516 16.9095) rotate(90) scale(15.114 15.016)">
<stop stop-color="#61FFFF"/>
<stop offset="1" stop-color="#3D44E4"/>
</radialGradient>
<radialGradient id="paint1_radial_2_1044" cx="0" cy="0" r="1" gradientUnits="userSpaceOnUse" gradientTransform="translate(15.9208 15.0186) rotate(90) scale(16.5376 17.1372)">
<stop stop-color="#61FFF6"/>
<stop offset="1" stop-color="#2BC23A"/>
</radialGradient>
<linearGradient id="paint2_linear_2_1044" x1="13.0411" y1="18.9431" x2="19.8071" y2="12.0551" gradientUnits="userSpaceOnUse">
<stop stop-color="#BE1111"/>
<stop offset="1" stop-color="#E87240"/>
</linearGradient>
</defs>
</svg>
