<svg width="150" height="34" viewBox="0 0 150 34" fill="none" xmlns="http://www.w3.org/2000/svg">
<path d="M12.3037 4.93847C11.922 3.60837 10.5222 2.82222 9.26774 3.40632C7.48891 4.23456 5.87056 5.38534 4.49802 6.80737C2.54305 8.83284 1.15569 11.3372 0.475367 14.0688C-0.204952 16.8004 -0.154253 19.663 0.622368 22.3687C1.39899 25.0745 2.87417 27.5282 4.89964 29.4832C6.9251 31.4382 9.42949 32.8255 12.1611 33.5058C14.8927 34.1862 17.7552 34.1355 20.461 33.3588C23.1668 32.5822 25.6205 31.107 27.5755 29.0816C28.948 27.6595 30.0407 26.0015 30.8055 24.1944C31.3448 22.92 30.5096 21.549 29.1668 21.2146V21.2146C27.824 20.8802 26.4884 21.7181 25.86 22.951C25.3666 23.9191 24.7307 24.813 23.9698 25.6014C22.6257 26.994 20.9388 28.0082 19.0785 28.5421C17.2182 29.076 15.2502 29.1109 13.3722 28.6432C11.4941 28.1754 9.77234 27.2216 8.3798 25.8775C6.98726 24.5335 5.97305 22.8465 5.43911 20.9862C4.90517 19.126 4.87031 17.1579 5.33804 15.2799C5.80577 13.4019 6.75961 11.6801 8.10368 10.2875C8.86463 9.49914 9.73549 8.83202 10.6855 8.30466C11.8954 7.63302 12.6855 6.26858 12.3037 4.93847V4.93847Z" fill="url(#paint0_radial)"/>
<path d="M30.6895 18.1035C32.0568 18.3165 33.3587 17.3773 33.3564 15.9935C33.3537 14.3813 33.1079 12.7739 32.6232 11.2263C31.8879 8.87896 30.6224 6.7322 28.9247 4.95213C27.227 3.17206 25.1426 1.80639 22.8327 0.96076C21.3098 0.403255 19.7159 0.0816391 18.1056 0.00262648C16.7235 -0.0651939 15.7236 1.1908 15.8717 2.56666V2.56666C16.0198 3.94253 17.2662 4.90821 18.64 5.07392C19.4807 5.17532 20.3096 5.37356 21.11 5.66656C22.6981 6.24794 24.1312 7.18686 25.2983 8.41069C26.4655 9.63452 27.3355 11.1104 27.8411 12.7243C28.0959 13.5376 28.2546 14.375 28.3161 15.2195C28.4166 16.5997 29.3222 17.8904 30.6895 18.1035V18.1035Z" fill="url(#paint1_radial)"/>
<path fill-rule="evenodd" clip-rule="evenodd" d="M22.4352 11.546C23.312 12.4227 23.312 13.8443 22.4352 14.7211L17.6242 19.5321C16.7474 20.4089 15.3259 20.4089 14.4491 19.5321C13.5723 18.6553 13.5723 17.2338 14.4491 16.357L19.2601 11.546C20.1369 10.6692 21.5584 10.6692 22.4352 11.546Z" fill="url(#paint2_linear)"/>
<path d="M53.1425 12.2848C53.2926 12.2014 53.4844 12.1347 53.7179 12.0847C53.9681 12.018 54.2349 11.9846 54.5185 11.9846C55.4358 11.9846 55.9861 12.2515 56.1696 12.7852C56.4364 13.6358 56.6866 14.428 56.9201 15.1618C57.1703 15.8957 57.4038 16.6128 57.6206 17.3133C57.8374 17.9971 58.0459 18.6726 58.246 19.3397C58.4629 20.0068 58.6713 20.699 58.8715 21.4162H58.9966C59.2134 20.3154 59.4135 19.248 59.597 18.2139C59.7971 17.1799 59.9889 16.1458 60.1724 15.1118C60.3725 14.0777 60.556 13.0354 60.7228 11.9846C60.8895 10.9172 61.0563 9.80812 61.2231 8.65732C61.54 8.47386 61.9236 8.38213 62.3739 8.38213C62.7742 8.38213 63.0994 8.47386 63.3496 8.65732C63.6164 8.82411 63.7498 9.0993 63.7498 9.4829C63.7498 9.81646 63.6998 10.3168 63.5997 10.9839C63.5163 11.6344 63.3996 12.3849 63.2495 13.2355C63.1161 14.0694 62.9493 14.9617 62.7492 15.9123C62.549 16.863 62.3405 17.797 62.1237 18.7143C61.9069 19.6316 61.6817 20.4989 61.4483 21.3161C61.2314 22.1166 61.023 22.7921 60.8228 23.3425C60.6394 23.4759 60.3808 23.5927 60.0473 23.6927C59.7304 23.7761 59.3802 23.8178 58.9966 23.8178C58.5129 23.8178 58.1043 23.7511 57.7707 23.6177C57.4371 23.4676 57.2287 23.2674 57.1453 23.0173C56.9952 22.617 56.8117 22.125 56.5949 21.5412C56.3948 20.9408 56.1779 20.2987 55.9444 19.6149C55.7276 18.9144 55.5025 18.1806 55.269 17.4134C55.0522 16.6462 54.8353 15.879 54.6185 15.1118C54.4184 15.8623 54.2016 16.6378 53.9681 17.4384C53.7346 18.2223 53.5011 18.9811 53.2676 19.715C53.0508 20.4488 52.834 21.1326 52.6171 21.7664C52.417 22.4002 52.2335 22.9339 52.0668 23.3675C51.9 23.4843 51.6581 23.5927 51.3413 23.6927C51.041 23.7761 50.6991 23.8178 50.3155 23.8178C49.8319 23.8178 49.4149 23.7428 49.0647 23.5927C48.7311 23.4426 48.5143 23.2508 48.4142 23.0173C48.2641 22.6837 48.0973 22.2 47.9139 21.5663C47.7304 20.9325 47.5303 20.2153 47.3135 19.4148C47.1133 18.5975 46.9049 17.7303 46.688 16.813C46.4712 15.879 46.2627 14.9533 46.0626 14.036C45.8791 13.1021 45.704 12.2014 45.5372 11.3342C45.3705 10.4669 45.237 9.68303 45.137 8.98255C45.2871 8.83244 45.4872 8.69902 45.7374 8.58227C46.0042 8.44885 46.2878 8.38213 46.588 8.38213C47.3718 8.38213 47.8388 8.77407 47.9889 9.55795C48.2058 10.7421 48.4142 11.8429 48.6144 12.8602C48.8145 13.8776 49.0063 14.8616 49.1898 15.8123C49.3732 16.7463 49.5567 17.6719 49.7401 18.5892C49.9236 19.5065 50.1237 20.4488 50.3406 21.4162H50.4406C50.6575 20.6823 50.8576 19.9985 51.041 19.3647C51.2412 18.7143 51.4413 18.0472 51.6415 17.3633C51.8583 16.6629 52.0834 15.9123 52.3169 15.1118C52.5671 14.2946 52.8423 13.3522 53.1425 12.2848Z" fill="white"/>
<path d="M77.2234 17.8637C77.2234 18.8144 77.0817 19.6733 76.7981 20.4405C76.5146 21.2077 76.1143 21.8581 75.5973 22.3918C75.097 22.9255 74.4799 23.3425 73.746 23.6427C73.0122 23.9262 72.1949 24.068 71.2943 24.068C70.3937 24.068 69.5765 23.9262 68.8426 23.6427C68.1088 23.3425 67.4834 22.9255 66.9663 22.3918C66.466 21.8581 66.074 21.2077 65.7905 20.4405C65.507 19.6733 65.3652 18.8144 65.3652 17.8637C65.3652 16.913 65.507 16.0541 65.7905 15.2869C66.074 14.5197 66.4743 13.8693 66.9913 13.3356C67.5084 12.8019 68.1338 12.3932 68.8676 12.1097C69.6015 11.8095 70.4104 11.6594 71.2943 11.6594C72.1783 11.6594 72.9872 11.8095 73.721 12.1097C74.4548 12.3932 75.0803 12.8102 75.5973 13.3606C76.1143 13.8943 76.5146 14.5447 76.7981 15.3119C77.0817 16.0624 77.2234 16.913 77.2234 17.8637ZM71.2943 13.7609C70.2936 13.7609 69.5014 14.1194 68.9177 14.8366C68.3339 15.5538 68.0421 16.5628 68.0421 17.8637C68.0421 19.1646 68.3256 20.1736 68.8927 20.8908C69.4597 21.5913 70.2603 21.9415 71.2943 21.9415C72.3284 21.9415 73.1289 21.5913 73.696 20.8908C74.263 20.1736 74.5466 19.1646 74.5466 17.8637C74.5466 16.5795 74.2547 15.5788 73.671 14.8616C73.1039 14.1278 72.3117 13.7609 71.2943 13.7609Z" fill="white"/>
<path d="M82.3901 23.6677C82.2733 23.7177 82.1066 23.7594 81.8897 23.7928C81.6896 23.8428 81.4644 23.8679 81.2143 23.8679C80.7306 23.8679 80.372 23.7761 80.1385 23.5927C79.905 23.4092 79.7883 23.1007 79.7883 22.667V14.4613C79.7883 14.0444 79.8717 13.7108 80.0385 13.4606C80.2052 13.1938 80.4721 12.9436 80.839 12.7101C81.3227 12.4099 81.9398 12.1597 82.6903 11.9596C83.4408 11.7595 84.2664 11.6594 85.167 11.6594C86.6347 11.6594 87.3685 12.0764 87.3685 12.9103C87.3685 13.1104 87.3352 13.3022 87.2685 13.4857C87.2018 13.6524 87.1267 13.8026 87.0433 13.936C86.8765 13.9026 86.668 13.8693 86.4179 13.8359C86.1677 13.8026 85.9008 13.7859 85.6173 13.7859C84.9502 13.7859 84.3414 13.8609 83.7911 14.011C83.2407 14.1445 82.7737 14.3196 82.3901 14.5364V23.6677Z" fill="white"/>
<path d="M91.9379 23.6677C91.8212 23.7177 91.6544 23.7594 91.4376 23.7928C91.2374 23.8428 91.0123 23.8679 90.7621 23.8679C90.2784 23.8679 89.9198 23.7761 89.6863 23.5927C89.4529 23.4092 89.3361 23.1007 89.3361 22.667V7.48151C89.4529 7.44815 89.6196 7.40646 89.8365 7.35642C90.0533 7.30639 90.2868 7.28137 90.5369 7.28137C91.0206 7.28137 91.3708 7.3731 91.5877 7.55656C91.8212 7.74002 91.9379 8.04857 91.9379 8.4822V16.863L97.0915 11.7845C97.6252 11.8012 98.0421 11.9263 98.3423 12.1597C98.6592 12.3932 98.8177 12.6935 98.8177 13.0604C98.8177 13.3606 98.7176 13.6274 98.5175 13.8609C98.3173 14.0944 98.0255 14.3779 97.6419 14.7115L94.3146 17.6385L99.4681 22.3418C99.4181 22.8255 99.268 23.2091 99.0178 23.4926C98.7843 23.7594 98.4507 23.8929 98.0171 23.8929C97.6836 23.8929 97.3833 23.8095 97.1165 23.6427C96.8663 23.4759 96.5911 23.2257 96.2909 22.8922L91.9379 18.289V23.6677Z" fill="white"/>
<path d="M104.718 18.4891V23.6677C104.585 23.7177 104.41 23.7594 104.193 23.7928C103.976 23.8428 103.734 23.8679 103.467 23.8679C102.95 23.8679 102.575 23.7761 102.342 23.5927C102.125 23.3925 102.016 23.0673 102.016 22.617V9.70805C102.016 9.42452 102.091 9.20771 102.242 9.0576C102.408 8.89082 102.633 8.76573 102.917 8.68234C103.434 8.49888 104.051 8.37379 104.768 8.30708C105.485 8.24037 106.161 8.20701 106.795 8.20701C108.963 8.20701 110.564 8.66566 111.598 9.58297C112.649 10.5003 113.174 11.7428 113.174 13.3105C113.174 14.8783 112.649 16.1375 111.598 17.0882C110.564 18.0221 109.013 18.4891 106.945 18.4891H104.718ZM106.77 16.3126C107.92 16.3126 108.821 16.0624 109.472 15.5621C110.139 15.0618 110.472 14.3112 110.472 13.3105C110.472 12.3099 110.155 11.576 109.522 11.109C108.904 10.642 108.012 10.4085 106.845 10.4085C106.461 10.4085 106.078 10.4252 105.694 10.4586C105.327 10.4919 104.993 10.5336 104.693 10.5837V16.3126H106.77Z" fill="white"/>
<path d="M119.892 22.0416C120.476 22.0416 120.984 21.9832 121.418 21.8665C121.852 21.7497 122.16 21.6246 122.344 21.4912V18.314L119.617 18.5892C118.849 18.6726 118.274 18.8477 117.89 19.1146C117.507 19.3647 117.315 19.7567 117.315 20.2904C117.315 20.8408 117.524 21.2744 117.94 21.5913C118.357 21.8915 119.008 22.0416 119.892 22.0416ZM119.842 11.6594C121.393 11.6594 122.627 12.0013 123.544 12.6851C124.462 13.3522 124.92 14.4113 124.92 15.8623V21.6913C124.92 22.0749 124.829 22.3752 124.645 22.592C124.478 22.7921 124.245 22.9839 123.945 23.1674C123.511 23.4175 122.952 23.6344 122.268 23.8178C121.585 24.0013 120.792 24.093 119.892 24.093C118.274 24.093 117.006 23.7761 116.089 23.1423C115.189 22.5086 114.738 21.5746 114.738 20.3404C114.738 19.2396 115.088 18.3974 115.789 17.8137C116.506 17.2299 117.532 16.8713 118.866 16.7379L122.344 16.3877V15.8373C122.344 15.1035 122.102 14.5697 121.618 14.2362C121.151 13.9026 120.492 13.7358 119.642 13.7358C118.975 13.7358 118.332 13.8276 117.715 14.011C117.098 14.1945 116.548 14.403 116.064 14.6365C115.897 14.503 115.756 14.3446 115.639 14.1611C115.522 13.961 115.464 13.7442 115.464 13.5107C115.464 13.2272 115.53 12.9937 115.664 12.8102C115.814 12.6267 116.039 12.4683 116.339 12.3349C116.806 12.1014 117.34 11.9346 117.94 11.8345C118.541 11.7178 119.175 11.6594 119.842 11.6594Z" fill="white"/>
<path d="M133.77 13.7859C133.236 13.7859 132.744 13.8776 132.294 14.0611C131.844 14.2278 131.452 14.4864 131.118 14.8366C130.801 15.1868 130.543 15.6205 130.343 16.1375C130.159 16.6378 130.067 17.2216 130.067 17.8887C130.067 19.2063 130.409 20.2153 131.093 20.9158C131.777 21.5996 132.669 21.9415 133.77 21.9415C134.404 21.9415 134.946 21.8581 135.396 21.6913C135.846 21.5246 136.238 21.3244 136.572 21.0909C136.789 21.2244 136.964 21.3828 137.097 21.5663C137.231 21.7497 137.297 21.9749 137.297 22.2417C137.297 22.7588 136.956 23.1924 136.272 23.5426C135.605 23.8929 134.721 24.068 133.62 24.068C132.703 24.068 131.86 23.9429 131.093 23.6927C130.343 23.4426 129.692 23.059 129.142 22.5419C128.591 22.0249 128.158 21.3828 127.841 20.6156C127.541 19.8317 127.391 18.9228 127.391 17.8887C127.391 16.8547 127.549 15.9457 127.866 15.1618C128.199 14.3779 128.641 13.7275 129.192 13.2105C129.759 12.6935 130.418 12.3099 131.168 12.0597C131.919 11.7928 132.711 11.6594 133.545 11.6594C134.095 11.6594 134.587 11.7094 135.021 11.8095C135.471 11.9096 135.855 12.0513 136.172 12.2348C136.489 12.4016 136.73 12.6017 136.897 12.8352C137.081 13.052 137.172 13.2855 137.172 13.5357C137.172 13.7692 137.106 13.986 136.972 14.1862C136.855 14.3696 136.705 14.5114 136.522 14.6114C136.172 14.3946 135.78 14.2028 135.346 14.036C134.929 13.8693 134.404 13.7859 133.77 13.7859Z" fill="white"/>
<path d="M141.519 19.1896C141.753 20.1403 142.203 20.8491 142.87 21.3161C143.554 21.7664 144.421 21.9916 145.472 21.9916C146.172 21.9916 146.814 21.8831 147.398 21.6663C147.982 21.4495 148.449 21.216 148.799 20.9658C149.266 21.2327 149.5 21.608 149.5 22.0916C149.5 22.3752 149.391 22.642 149.174 22.8922C148.958 23.1257 148.657 23.3341 148.274 23.5176C147.907 23.6844 147.465 23.8178 146.948 23.9179C146.448 24.018 145.905 24.068 145.322 24.068C144.354 24.068 143.47 23.9346 142.67 23.6677C141.886 23.4009 141.211 23.0006 140.643 22.4669C140.076 21.9332 139.634 21.2744 139.318 20.4905C139.017 19.7066 138.867 18.7977 138.867 17.7636C138.867 16.7629 139.017 15.8873 139.318 15.1368C139.618 14.3696 140.026 13.7358 140.543 13.2355C141.06 12.7185 141.669 12.3265 142.37 12.0597C143.07 11.7928 143.821 11.6594 144.621 11.6594C145.422 11.6594 146.147 11.7928 146.798 12.0597C147.465 12.3099 148.032 12.6684 148.499 13.1354C148.983 13.5857 149.35 14.1278 149.6 14.7615C149.867 15.3953 150 16.0875 150 16.838C150 17.2549 149.9 17.5635 149.7 17.7636C149.5 17.9471 149.208 18.0722 148.824 18.1389L141.519 19.1896ZM144.621 13.6858C143.704 13.6858 142.937 13.9944 142.32 14.6114C141.719 15.2285 141.402 16.1125 141.369 17.2633L147.523 16.3877C147.457 15.6372 147.181 15.0034 146.698 14.4864C146.214 13.9527 145.522 13.6858 144.621 13.6858Z" fill="white"/>
<defs>
<radialGradient id="paint0_radial" cx="0" cy="0" r="1" gradientUnits="userSpaceOnUse" gradientTransform="translate(16.0367 17.9445) rotate(90) scale(16.0367)">
<stop stop-color="#61FFFF"/>
<stop offset="1" stop-color="#3D44E4"/>
</radialGradient>
<radialGradient id="paint1_radial" cx="0" cy="0" r="1" gradientUnits="userSpaceOnUse" gradientTransform="translate(17.3197 16.0201) rotate(90) scale(17.6404)">
<stop stop-color="#61FFF6"/>
<stop offset="1" stop-color="#2BC23A"/>
</radialGradient>
<linearGradient id="paint2_linear" x1="14.1122" y1="19.8689" x2="21.1048" y2="12.7503" gradientUnits="userSpaceOnUse">
<stop stop-color="#BE1111"/>
<stop offset="1" stop-color="#E87240"/>
</linearGradient>
</defs>
</svg>
