<svg width="18" height="18" viewBox="0 0 18 18" fill="none" xmlns="http://www.w3.org/2000/svg">
<path d="M9 10.8C9.47739 10.8 9.93523 10.6104 10.2728 10.2728C10.6104 9.93523 10.8 9.47739 10.8 9C10.8 8.52261 10.6104 8.06477 10.2728 7.72721C9.93523 7.38964 9.47739 7.2 9 7.2C8.52261 7.2 8.06477 7.38964 7.72721 7.72721C7.38964 8.06477 7.2 8.52261 7.2 9C7.2 9.47739 7.38964 9.93523 7.72721 10.2728C8.06477 10.6104 8.52261 10.8 9 10.8ZM3.6 9C3.6 7.56783 4.16893 6.19432 5.18162 5.18162C6.19432 4.16893 7.56783 3.6 9 3.6C10.4322 3.6 11.8057 4.16893 12.8184 5.18162C13.8311 6.19432 14.4 7.56783 14.4 9C14.4 10.4322 13.8311 11.8057 12.8184 12.8184C11.8057 13.8311 10.4322 14.4 9 14.4C7.56783 14.4 6.19432 13.8311 5.18162 12.8184C4.16893 11.8057 3.6 10.4322 3.6 9ZM9 5.4C8.04522 5.4 7.12955 5.77928 6.45442 6.45442C5.77928 7.12955 5.4 8.04522 5.4 9C5.4 9.95478 5.77928 10.8705 6.45442 11.5456C7.12955 12.2207 8.04522 12.6 9 12.6C9.95478 12.6 10.8705 12.2207 11.5456 11.5456C12.2207 10.8705 12.6 9.95478 12.6 9C12.6 8.04522 12.2207 7.12955 11.5456 6.45442C10.8705 5.77928 9.95478 5.4 9 5.4ZM0 9C0 4.0293 4.0293 0 9 0C13.9707 0 18 4.0293 18 9C18 13.9707 13.9707 18 9 18C4.0293 18 0 13.9707 0 9ZM9 1.8C7.09044 1.8 5.25909 2.55857 3.90883 3.90883C2.55857 5.25909 1.8 7.09044 1.8 9C1.8 10.9096 2.55857 12.7409 3.90883 14.0912C5.25909 15.4414 7.09044 16.2 9 16.2C10.9096 16.2 12.7409 15.4414 14.0912 14.0912C15.4414 12.7409 16.2 10.9096 16.2 9C16.2 7.09044 15.4414 5.25909 14.0912 3.90883C12.7409 2.55857 10.9096 1.8 9 1.8Z" fill="#A7B1CF"/>
</svg>
