<svg width="20" height="15" viewBox="0 0 20 15" fill="none" xmlns="http://www.w3.org/2000/svg">
<path d="M9.78 5.24353C9.63783 5.11105 9.44978 5.03893 9.25548 5.04235C9.06118 5.04578 8.87579 5.1245 8.73838 5.26191C8.60097 5.39932 8.52225 5.58471 8.51883 5.77901C8.5154 5.97331 8.58752 6.16135 8.72 6.30353L9.44 7.02353L8.72 7.74353C8.64631 7.81219 8.58721 7.89499 8.54622 7.98699C8.50523 8.07899 8.48319 8.17831 8.48141 8.27901C8.47963 8.37971 8.49816 8.47974 8.53588 8.57313C8.5736 8.66652 8.62974 8.75135 8.70096 8.82257C8.77218 8.89379 8.85702 8.94993 8.9504 8.98765C9.04379 9.02537 9.14382 9.0439 9.24452 9.04212C9.34523 9.04035 9.44454 9.0183 9.53654 8.97731C9.62854 8.93632 9.71134 8.87722 9.78 8.80353L10.5 8.08353L11.22 8.80353C11.3608 8.94409 11.5517 9.02296 11.7507 9.02277C11.9497 9.02258 12.1404 8.94336 12.281 8.80253C12.4216 8.6617 12.5004 8.4708 12.5002 8.27182C12.5001 8.07285 12.4208 7.8821 12.28 7.74153L11.561 7.02353L12.281 6.30353C12.3526 6.23431 12.4097 6.15153 12.449 6.06C12.4882 5.96848 12.5089 5.87006 12.5097 5.77047C12.5105 5.67089 12.4915 5.57214 12.4537 5.47999C12.416 5.38783 12.3602 5.30412 12.2898 5.23373C12.2193 5.16335 12.1356 5.1077 12.0434 5.07003C11.9512 5.03236 11.8524 5.01343 11.7528 5.01434C11.6533 5.01526 11.5549 5.03599 11.4634 5.07534C11.3719 5.11469 11.2892 5.17187 11.22 5.24353L10.5 5.96353L9.78 5.24353Z" fill="#7C86A8"/>
<path d="M3.22 5.24353C3.36062 5.10308 3.55125 5.02419 3.75 5.02419C3.94875 5.02419 4.13937 5.10308 4.28 5.24353L5 5.96353L5.72 5.24353C5.78866 5.16984 5.87146 5.11074 5.96346 5.06975C6.05546 5.02876 6.15477 5.00672 6.25547 5.00494C6.35618 5.00316 6.45621 5.02169 6.54959 5.05941C6.64298 5.09713 6.72782 5.15327 6.79903 5.22449C6.87025 5.29571 6.9264 5.38054 6.96412 5.47393C7.00184 5.56732 7.02036 5.66735 7.01859 5.76805C7.01681 5.86876 6.99477 5.96807 6.95378 6.06007C6.91279 6.15207 6.85368 6.23487 6.78 6.30353L6.061 7.02353L6.781 7.74153C6.85073 7.8112 6.90606 7.89392 6.94382 7.98496C6.98158 8.07601 7.00104 8.17361 7.00109 8.27218C7.00114 8.37075 6.98177 8.46836 6.94409 8.55944C6.90641 8.65053 6.85116 8.7333 6.7815 8.80303C6.71183 8.87276 6.62911 8.92809 6.53806 8.96585C6.44701 9.00362 6.34942 9.02308 6.25085 9.02312C6.15228 9.02317 6.05467 9.0038 5.96358 8.96612C5.8725 8.92845 5.78973 8.8732 5.72 8.80353L5 8.08353L4.28 8.80353C4.13782 8.93601 3.94977 9.00813 3.75547 9.00471C3.56117 9.00128 3.37579 8.92256 3.23837 8.78515C3.10096 8.64774 3.02225 8.46235 3.01882 8.26805C3.01539 8.07375 3.08752 7.88571 3.22 7.74353L3.94 7.02353L3.22 6.30353C3.07955 6.1629 3.00066 5.97228 3.00066 5.77353C3.00066 5.57478 3.07955 5.38416 3.22 5.24353Z" fill="#7C86A8"/>
<path d="M14.5 8.52353C14.3011 8.52353 14.1103 8.60255 13.9697 8.7432C13.829 8.88385 13.75 9.07462 13.75 9.27353C13.75 9.47244 13.829 9.66321 13.9697 9.80386C14.1103 9.94451 14.3011 10.0235 14.5 10.0235H16.25C16.4489 10.0235 16.6397 9.94451 16.7803 9.80386C16.921 9.66321 17 9.47244 17 9.27353C17 9.07462 16.921 8.88385 16.7803 8.7432C16.6397 8.60255 16.4489 8.52353 16.25 8.52353H14.5Z" fill="#7C86A8"/>
<path d="M3.25 0.0235291C2.38805 0.0235291 1.5614 0.365939 0.951903 0.975432C0.34241 1.58493 0 2.41158 0 3.27353V10.7735C0 11.6355 0.34241 12.4621 0.951903 13.0716C1.5614 13.6811 2.38805 14.0235 3.25 14.0235H16.75C17.1768 14.0235 17.5994 13.9395 17.9937 13.7761C18.388 13.6128 18.7463 13.3734 19.0481 13.0716C19.3499 12.7698 19.5893 12.4116 19.7526 12.0173C19.9159 11.6229 20 11.2003 20 10.7735V3.27353C20 2.84673 19.9159 2.42412 19.7526 2.02981C19.5893 1.6355 19.3499 1.27722 19.0481 0.975432C18.7463 0.673642 18.388 0.434249 17.9937 0.270921C17.5994 0.107593 17.1768 0.0235291 16.75 0.0235291H3.25ZM1.5 3.27353C1.5 2.30653 2.283 1.52353 3.25 1.52353H16.75C17.717 1.52353 18.5 2.30653 18.5 3.27353V10.7735C18.5 11.2377 18.3156 11.6828 17.9874 12.011C17.6592 12.3392 17.2141 12.5235 16.75 12.5235H3.25C2.78587 12.5235 2.34075 12.3392 2.01256 12.011C1.68437 11.6828 1.5 11.2377 1.5 10.7735V3.27353Z" fill="#7C86A8"/>
</svg>
