<svg width="18" height="19" viewBox="0 0 18 19" fill="none" xmlns="http://www.w3.org/2000/svg">
<path d="M5.75 6.22644C5.75 6.49166 5.64464 6.74601 5.45711 6.93355C5.26957 7.12108 5.01522 7.22644 4.75 7.22644C4.48478 7.22644 4.23043 7.12108 4.04289 6.93355C3.85536 6.74601 3.75 6.49166 3.75 6.22644C3.75 5.96122 3.85536 5.70687 4.04289 5.51933C4.23043 5.3318 4.48478 5.22644 4.75 5.22644C5.01522 5.22644 5.26957 5.3318 5.45711 5.51933C5.64464 5.70687 5.75 5.96122 5.75 6.22644Z" fill="white"/>
<path d="M7.5 6.22644C7.5 6.02753 7.57902 5.83676 7.71967 5.69611C7.86032 5.55546 8.05109 5.47644 8.25 5.47644H13.75C13.9489 5.47644 14.1397 5.55546 14.2803 5.69611C14.421 5.83676 14.5 6.02753 14.5 6.22644C14.5 6.42535 14.421 6.61612 14.2803 6.75677C14.1397 6.89742 13.9489 6.97644 13.75 6.97644H8.25C8.05109 6.97644 7.86032 6.89742 7.71967 6.75677C7.57902 6.61612 7.5 6.42535 7.5 6.22644Z" fill="white"/>
<path d="M7.5 9.97644C7.5 9.77753 7.57902 9.58676 7.71967 9.44611C7.86032 9.30546 8.05109 9.22644 8.25 9.22644H13.75C13.9489 9.22644 14.1397 9.30546 14.2803 9.44611C14.421 9.58676 14.5 9.77753 14.5 9.97644C14.5 10.1754 14.421 10.3661 14.2803 10.5068C14.1397 10.6474 13.9489 10.7264 13.75 10.7264H8.25C8.05109 10.7264 7.86032 10.6474 7.71967 10.5068C7.57902 10.3661 7.5 10.1754 7.5 9.97644Z" fill="white"/>
<path d="M8.25 12.9764C8.05109 12.9764 7.86032 13.0555 7.71967 13.1961C7.57902 13.3368 7.5 13.5275 7.5 13.7264C7.5 13.9254 7.57902 14.1161 7.71967 14.2568C7.86032 14.3974 8.05109 14.4764 8.25 14.4764H13.75C13.9489 14.4764 14.1397 14.3974 14.2803 14.2568C14.421 14.1161 14.5 13.9254 14.5 13.7264C14.5 13.5275 14.421 13.3368 14.2803 13.1961C14.1397 13.0555 13.9489 12.9764 13.75 12.9764H8.25Z" fill="white"/>
<path d="M4.75 10.9764C5.01522 10.9764 5.26957 10.8711 5.45711 10.6835C5.64464 10.496 5.75 10.2417 5.75 9.97644C5.75 9.71122 5.64464 9.45687 5.45711 9.26933C5.26957 9.0818 5.01522 8.97644 4.75 8.97644C4.48478 8.97644 4.23043 9.0818 4.04289 9.26933C3.85536 9.45687 3.75 9.71122 3.75 9.97644C3.75 10.2417 3.85536 10.496 4.04289 10.6835C4.23043 10.8711 4.48478 10.9764 4.75 10.9764Z" fill="white"/>
<path d="M5.75 13.7264C5.75 13.9917 5.64464 14.246 5.45711 14.4335C5.26957 14.6211 5.01522 14.7264 4.75 14.7264C4.48478 14.7264 4.23043 14.6211 4.04289 14.4335C3.85536 14.246 3.75 13.9917 3.75 13.7264C3.75 13.4612 3.85536 13.2069 4.04289 13.0193C4.23043 12.8318 4.48478 12.7264 4.75 12.7264C5.01522 12.7264 5.26957 12.8318 5.45711 13.0193C5.64464 13.2069 5.75 13.4612 5.75 13.7264Z" fill="white"/>
<path d="M2.25 0.97644C1.65326 0.97644 1.08097 1.21349 0.65901 1.63545C0.237053 2.05741 0 2.6297 0 3.22644V16.7264C0 17.3232 0.237053 17.8955 0.65901 18.3174C1.08097 18.7394 1.65326 18.9764 2.25 18.9764H15.75C16.3467 18.9764 16.919 18.7394 17.341 18.3174C17.7629 17.8955 18 17.3232 18 16.7264V3.22644C18 2.6297 17.7629 2.05741 17.341 1.63545C16.919 1.21349 16.3467 0.97644 15.75 0.97644H2.25ZM1.5 3.22644C1.5 3.02753 1.57902 2.83676 1.71967 2.69611C1.86032 2.55546 2.05109 2.47644 2.25 2.47644H15.75C15.9489 2.47644 16.1397 2.55546 16.2803 2.69611C16.421 2.83676 16.5 3.02753 16.5 3.22644V16.7264C16.5 16.9254 16.421 17.1161 16.2803 17.2568C16.1397 17.3974 15.9489 17.4764 15.75 17.4764H2.25C2.05109 17.4764 1.86032 17.3974 1.71967 17.2568C1.57902 17.1161 1.5 16.9254 1.5 16.7264V3.22644Z" fill="white"/>
</svg>
