<svg width="18" height="18" viewBox="0 0 18 18" fill="none" xmlns="http://www.w3.org/2000/svg">
<path d="M5.75 5.25C5.75 5.51522 5.64464 5.76957 5.45711 5.95711C5.26957 6.14464 5.01522 6.25 4.75 6.25C4.48478 6.25 4.23043 6.14464 4.04289 5.95711C3.85536 5.76957 3.75 5.51522 3.75 5.25C3.75 4.98478 3.85536 4.73043 4.04289 4.54289C4.23043 4.35536 4.48478 4.25 4.75 4.25C5.01522 4.25 5.26957 4.35536 5.45711 4.54289C5.64464 4.73043 5.75 4.98478 5.75 5.25Z" fill="#A7B1CF"/>
<path d="M7.5 5.25C7.5 5.05109 7.57902 4.86032 7.71967 4.71967C7.86032 4.57902 8.05109 4.5 8.25 4.5H13.75C13.9489 4.5 14.1397 4.57902 14.2803 4.71967C14.421 4.86032 14.5 5.05109 14.5 5.25C14.5 5.44891 14.421 5.63968 14.2803 5.78033C14.1397 5.92098 13.9489 6 13.75 6H8.25C8.05109 6 7.86032 5.92098 7.71967 5.78033C7.57902 5.63968 7.5 5.44891 7.5 5.25Z" fill="#A7B1CF"/>
<path d="M7.5 9C7.5 8.80109 7.57902 8.61032 7.71967 8.46967C7.86032 8.32902 8.05109 8.25 8.25 8.25H13.75C13.9489 8.25 14.1397 8.32902 14.2803 8.46967C14.421 8.61032 14.5 8.80109 14.5 9C14.5 9.19891 14.421 9.38968 14.2803 9.53033C14.1397 9.67098 13.9489 9.75 13.75 9.75H8.25C8.05109 9.75 7.86032 9.67098 7.71967 9.53033C7.57902 9.38968 7.5 9.19891 7.5 9Z" fill="#A7B1CF"/>
<path d="M8.25 12C8.05109 12 7.86032 12.079 7.71967 12.2197C7.57902 12.3603 7.5 12.5511 7.5 12.75C7.5 12.9489 7.57902 13.1397 7.71967 13.2803C7.86032 13.421 8.05109 13.5 8.25 13.5H13.75C13.9489 13.5 14.1397 13.421 14.2803 13.2803C14.421 13.1397 14.5 12.9489 14.5 12.75C14.5 12.5511 14.421 12.3603 14.2803 12.2197C14.1397 12.079 13.9489 12 13.75 12H8.25Z" fill="#A7B1CF"/>
<path d="M4.75 10C5.01522 10 5.26957 9.89464 5.45711 9.70711C5.64464 9.51957 5.75 9.26522 5.75 9C5.75 8.73478 5.64464 8.48043 5.45711 8.29289C5.26957 8.10536 5.01522 8 4.75 8C4.48478 8 4.23043 8.10536 4.04289 8.29289C3.85536 8.48043 3.75 8.73478 3.75 9C3.75 9.26522 3.85536 9.51957 4.04289 9.70711C4.23043 9.89464 4.48478 10 4.75 10Z" fill="#A7B1CF"/>
<path d="M5.75 12.75C5.75 13.0152 5.64464 13.2696 5.45711 13.4571C5.26957 13.6446 5.01522 13.75 4.75 13.75C4.48478 13.75 4.23043 13.6446 4.04289 13.4571C3.85536 13.2696 3.75 13.0152 3.75 12.75C3.75 12.4848 3.85536 12.2304 4.04289 12.0429C4.23043 11.8554 4.48478 11.75 4.75 11.75C5.01522 11.75 5.26957 11.8554 5.45711 12.0429C5.64464 12.2304 5.75 12.4848 5.75 12.75Z" fill="#A7B1CF"/>
<path d="M2.25 0C1.65326 0 1.08097 0.237053 0.65901 0.65901C0.237053 1.08097 0 1.65326 0 2.25V15.75C0 16.3467 0.237053 16.919 0.65901 17.341C1.08097 17.7629 1.65326 18 2.25 18H15.75C16.3467 18 16.919 17.7629 17.341 17.341C17.7629 16.919 18 16.3467 18 15.75V2.25C18 1.65326 17.7629 1.08097 17.341 0.65901C16.919 0.237053 16.3467 0 15.75 0H2.25ZM1.5 2.25C1.5 2.05109 1.57902 1.86032 1.71967 1.71967C1.86032 1.57902 2.05109 1.5 2.25 1.5H15.75C15.9489 1.5 16.1397 1.57902 16.2803 1.71967C16.421 1.86032 16.5 2.05109 16.5 2.25V15.75C16.5 15.9489 16.421 16.1397 16.2803 16.2803C16.1397 16.421 15.9489 16.5 15.75 16.5H2.25C2.05109 16.5 1.86032 16.421 1.71967 16.2803C1.57902 16.1397 1.5 15.9489 1.5 15.75V2.25Z" fill="#A7B1CF"/>
</svg>
