<svg width="16" height="19" viewBox="0 0 16 19" fill="none" xmlns="http://www.w3.org/2000/svg">
<path d="M3 18.5C2.45 18.5 1.97933 18.3043 1.588 17.913C1.19667 17.5217 1.00067 17.0507 1 16.5V3.5C0.716667 3.5 0.479333 3.404 0.288 3.212C0.0966668 3.02 0.000666667 2.78267 0 2.5C0 2.21667 0.0960001 1.97933 0.288 1.788C0.48 1.59667 0.717333 1.50067 1 1.5H5C5 1.21667 5.096 0.979333 5.288 0.788C5.48 0.596667 5.71733 0.500667 6 0.5H10C10.2833 0.5 10.521 0.596 10.713 0.788C10.905 0.98 11.0007 1.21733 11 1.5H15C15.2833 1.5 15.521 1.596 15.713 1.788C15.905 1.98 16.0007 2.21733 16 2.5C16 2.78333 15.904 3.021 15.712 3.213C15.52 3.405 15.2827 3.50067 15 3.5V16.5C15 17.05 14.8043 17.521 14.413 17.913C14.0217 18.305 13.5507 18.5007 13 18.5H3ZM13 3.5H3V16.5H13V3.5ZM6 14.5C6.28333 14.5 6.521 14.404 6.713 14.212C6.905 14.02 7.00067 13.7827 7 13.5V6.5C7 6.21667 6.904 5.97933 6.712 5.788C6.52 5.59667 6.28267 5.50067 6 5.5C5.71667 5.5 5.47933 5.596 5.288 5.788C5.09667 5.98 5.00067 6.21733 5 6.5V13.5C5 13.7833 5.096 14.021 5.288 14.213C5.48 14.405 5.71733 14.5007 6 14.5ZM10 14.5C10.2833 14.5 10.521 14.404 10.713 14.212C10.905 14.02 11.0007 13.7827 11 13.5V6.5C11 6.21667 10.904 5.97933 10.712 5.788C10.52 5.59667 10.2827 5.50067 10 5.5C9.71667 5.5 9.47933 5.596 9.288 5.788C9.09667 5.98 9.00067 6.21733 9 6.5V13.5C9 13.7833 9.096 14.021 9.288 14.213C9.48 14.405 9.71733 14.5007 10 14.5Z" fill="#BE1111"/>
</svg>
