<svg width="16" height="21" viewBox="0 0 16 21" fill="none" xmlns="http://www.w3.org/2000/svg">
<path d="M8.5 8.27353C8.5 8.07462 8.57902 7.88385 8.71967 7.7432C8.86032 7.60255 9.05109 7.52353 9.25 7.52353H12.75C12.9489 7.52353 13.1397 7.60255 13.2803 7.7432C13.421 7.88385 13.5 8.07462 13.5 8.27353C13.5 8.47244 13.421 8.66321 13.2803 8.80386C13.1397 8.94451 12.9489 9.02353 12.75 9.02353H9.25C9.05109 9.02353 8.86032 8.94451 8.71967 8.80386C8.57902 8.66321 8.5 8.47244 8.5 8.27353ZM9.25 13.0235C9.05109 13.0235 8.86032 13.1025 8.71967 13.2432C8.57902 13.3839 8.5 13.5746 8.5 13.7735C8.5 13.9724 8.57902 14.1632 8.71967 14.3039C8.86032 14.4445 9.05109 14.5235 9.25 14.5235H12.75C12.9489 14.5235 13.1397 14.4445 13.2803 14.3039C13.421 14.1632 13.5 13.9724 13.5 13.7735C13.5 13.5746 13.421 13.3839 13.2803 13.2432C13.1397 13.1025 12.9489 13.0235 12.75 13.0235H9.25ZM6.78 7.80353C6.85369 7.73487 6.91279 7.65207 6.95378 7.56007C6.99477 7.46807 7.01682 7.36875 7.01859 7.26805C7.02037 7.16735 7.00184 7.06732 6.96412 6.97393C6.9264 6.88054 6.87026 6.79571 6.79904 6.72449C6.72782 6.65327 6.64299 6.59713 6.5496 6.55941C6.45621 6.52169 6.35618 6.50316 6.25548 6.50494C6.15478 6.50671 6.05546 6.52876 5.96346 6.56975C5.87146 6.61074 5.78866 6.66984 5.72 6.74353L4.25 8.21353L3.78 7.74353C3.63783 7.61105 3.44978 7.53893 3.25548 7.54235C3.06118 7.54578 2.87579 7.62449 2.73838 7.76191C2.60097 7.89932 2.52225 8.08471 2.51883 8.27901C2.5154 8.47331 2.58752 8.66135 2.72 8.80353L3.72 9.80353C3.86063 9.94398 4.05125 10.0229 4.25 10.0229C4.44875 10.0229 4.63937 9.94398 4.78 9.80353L6.78 7.80353ZM6.78 12.2435C6.92045 12.3842 6.99934 12.5748 6.99934 12.7735C6.99934 12.9723 6.92045 13.1629 6.78 13.3035L4.78 15.3035C4.63937 15.444 4.44875 15.5229 4.25 15.5229C4.05125 15.5229 3.86063 15.444 3.72 15.3035L2.72 14.3035C2.64631 14.2349 2.58721 14.1521 2.54622 14.0601C2.50523 13.9681 2.48319 13.8688 2.48141 13.7681C2.47963 13.6673 2.49816 13.5673 2.53588 13.4739C2.5736 13.3805 2.62974 13.2957 2.70096 13.2245C2.77218 13.1533 2.85701 13.0971 2.9504 13.0594C3.04379 13.0217 3.14382 13.0032 3.24452 13.0049C3.34523 13.0067 3.44454 13.0288 3.53654 13.0697C3.62854 13.1107 3.71134 13.1698 3.78 13.2435L4.25 13.7135L5.72 12.2435C5.86063 12.1031 6.05125 12.0242 6.25 12.0242C6.44875 12.0242 6.63937 12.1031 6.78 12.2435ZM11.994 2.10753C11.9521 1.54105 11.6975 1.01139 11.2813 0.624848C10.865 0.238307 10.318 0.0234958 9.75 0.0235291H6.25C5.69656 0.0235458 5.16255 0.227536 4.75004 0.596501C4.33754 0.965465 4.07549 1.47352 4.014 2.02353H2.25C1.65326 2.02353 1.08097 2.26058 0.65901 2.68254C0.237053 3.1045 0 3.67679 0 4.27353V17.7735C0 18.3703 0.237053 18.9426 0.65901 19.3645C1.08097 19.7865 1.65326 20.0235 2.25 20.0235H13.75C14.0455 20.0235 14.3381 19.9653 14.611 19.8523C14.884 19.7392 15.1321 19.5735 15.341 19.3645C15.5499 19.1556 15.7157 18.9075 15.8287 18.6346C15.9418 18.3616 16 18.069 16 17.7735V4.27353C16 3.97805 15.9418 3.68547 15.8287 3.41249C15.7157 3.13951 15.5499 2.89147 15.341 2.68254C15.1321 2.47361 14.884 2.30787 14.611 2.1948C14.3381 2.08173 14.0455 2.02353 13.75 2.02353H11.986L11.994 2.10753ZM11.994 2.11953L12 2.27353C12 2.22153 11.998 2.17053 11.995 2.11953H11.994ZM6.25 4.52353H9.75C10.53 4.52353 11.217 4.12653 11.621 3.52353H13.75C13.9489 3.52353 14.1397 3.60255 14.2803 3.7432C14.421 3.88385 14.5 4.07462 14.5 4.27353V17.7735C14.5 17.9724 14.421 18.1632 14.2803 18.3039C14.1397 18.4445 13.9489 18.5235 13.75 18.5235H2.25C2.05109 18.5235 1.86032 18.4445 1.71967 18.3039C1.57902 18.1632 1.5 17.9724 1.5 17.7735V4.27353C1.5 4.07462 1.57902 3.88385 1.71967 3.7432C1.86032 3.60255 2.05109 3.52353 2.25 3.52353H4.379C4.783 4.12653 5.47 4.52353 6.25 4.52353ZM6.25 1.52353H9.75C9.94891 1.52353 10.1397 1.60255 10.2803 1.7432C10.421 1.88385 10.5 2.07462 10.5 2.27353C10.5 2.47244 10.421 2.66321 10.2803 2.80386C10.1397 2.94451 9.94891 3.02353 9.75 3.02353H6.25C6.05109 3.02353 5.86032 2.94451 5.71967 2.80386C5.57902 2.66321 5.5 2.47244 5.5 2.27353C5.5 2.07462 5.57902 1.88385 5.71967 1.7432C5.86032 1.60255 6.05109 1.52353 6.25 1.52353Z" fill="white"/>
</svg>
