<svg width="20" height="16" viewBox="0 0 20 16" fill="none" xmlns="http://www.w3.org/2000/svg">
<path d="M12.807 5.249C12.674 5.10117 12.4877 5.01223 12.2891 5.00173C12.0905 4.99123 11.8959 5.06003 11.748 5.193L9.248 7.443C9.17001 7.51332 9.10766 7.59924 9.06498 7.69519C9.0223 7.79114 9.00025 7.89499 9.00025 8C9.00025 8.10501 9.0223 8.20886 9.06498 8.30481C9.10766 8.40076 9.17001 8.48668 9.248 8.557L11.748 10.807C11.8959 10.9401 12.0905 11.0091 12.2892 10.9987C12.4879 10.9883 12.6744 10.8994 12.8075 10.7515C12.9406 10.6036 13.0096 10.409 12.9992 10.2103C12.9888 10.0116 12.8999 9.82514 12.752 9.692L11.704 8.75H15.25C15.3485 8.75 15.446 8.7306 15.537 8.69291C15.628 8.65522 15.7107 8.59997 15.7803 8.53033C15.85 8.46069 15.9052 8.37801 15.9429 8.28701C15.9806 8.19602 16 8.09849 16 8C16 7.90151 15.9806 7.80398 15.9429 7.71299C15.9052 7.62199 15.85 7.53931 15.7803 7.46967C15.7107 7.40003 15.628 7.34478 15.537 7.30709C15.446 7.2694 15.3485 7.25 15.25 7.25H11.704L12.752 6.308C12.8997 6.17484 12.9884 5.98847 12.9988 5.78989C13.0091 5.5913 12.9401 5.39674 12.807 5.249ZM0 13.251C0.000265154 13.9802 0.290113 14.6794 0.80581 15.1949C1.32151 15.7104 2.02083 16 2.75 16H17.25C17.6111 16 17.9687 15.9289 18.3024 15.7907C18.636 15.6525 18.9392 15.4499 19.1945 15.1945C19.4499 14.9392 19.6525 14.636 19.7907 14.3024C19.9289 13.9687 20 13.6111 20 13.25V2.75C20 2.02065 19.7103 1.32118 19.1945 0.805456C18.6788 0.289731 17.9793 0 17.25 0H2.75C2.02065 0 1.32118 0.289731 0.805456 0.805456C0.289731 1.32118 0 2.02065 0 2.75V13.25V13.251ZM2.75 14.501C2.06 14.501 1.5 13.941 1.5 13.251V2.749C1.5 2.059 2.06 1.499 2.75 1.499H6.004V14.5H2.75V14.501ZM7.504 14.501V1.5H17.25C17.94 1.5 18.5 2.06 18.5 2.75V13.25C18.5 13.94 17.94 14.5 17.25 14.5H7.504V14.501Z" fill="white"/>
</svg>
