<svg width="21" height="20" viewBox="0 0 21 20" fill="none" xmlns="http://www.w3.org/2000/svg">
<path d="M8.49999 5.77453C8.49986 4.78878 8.75316 3.81956 9.23556 2.95991C9.71795 2.10027 10.4132 1.37908 11.2547 0.865581C12.0961 0.352085 13.0554 0.0635293 14.0405 0.0276207C15.0256 -0.00828788 16.0034 0.209657 16.88 0.660528C16.9849 0.714684 17.0755 0.792836 17.1445 0.888626C17.2135 0.984415 17.2589 1.09514 17.277 1.21178C17.2951 1.32843 17.2855 1.44771 17.2488 1.55992C17.2121 1.67213 17.1495 1.7741 17.066 1.85753L14.301 4.62353L15.361 5.68353L18.14 2.90553C18.2229 2.82256 18.3242 2.76021 18.4357 2.72349C18.5471 2.68678 18.6656 2.67672 18.7816 2.69413C18.8977 2.71154 19.008 2.75593 19.1038 2.82373C19.1995 2.89154 19.278 2.98086 19.333 3.08453C19.8512 4.0623 20.0763 5.16885 19.9812 6.27137C19.8861 7.37389 19.4748 8.42554 18.7968 9.30013C18.1188 10.1747 17.2028 10.8351 16.1588 11.202C15.1148 11.5689 13.9871 11.6267 12.911 11.3685L5.54599 18.9865C4.98373 19.5683 4.2134 19.9028 3.40446 19.9166C2.59552 19.9304 1.81424 19.6223 1.23249 19.06C0.650737 18.4978 0.316168 17.7274 0.302384 16.9185C0.295559 16.518 0.367694 16.12 0.51467 15.7473C0.661647 15.3747 0.880586 15.0346 1.15899 14.7465L8.63399 7.01253C8.54476 6.60591 8.49983 6.19082 8.49999 5.77453ZM14.25 1.52453C13.5857 1.52428 12.9307 1.67972 12.3374 1.9784C11.7441 2.27708 11.229 2.71067 10.8336 3.24438C10.4381 3.77809 10.1733 4.39706 10.0603 5.05163C9.94732 5.7062 9.98934 6.37813 10.183 7.01353C10.222 7.14154 10.2261 7.27766 10.1948 7.40778C10.1635 7.53791 10.098 7.65728 10.005 7.75353L2.23699 15.7885C2.09542 15.935 1.98409 16.1078 1.90933 16.2973C1.83458 16.4867 1.79787 16.6891 1.8013 16.8927C1.80824 17.304 1.97827 17.6956 2.27399 17.9815C2.56971 18.2674 2.96688 18.4242 3.37815 18.4172C3.78942 18.4103 4.18109 18.2402 4.46699 17.9445L12.143 10.0035C12.2411 9.90196 12.3659 9.83016 12.503 9.79637C12.6401 9.76258 12.7839 9.76818 12.918 9.81253C13.6372 10.0503 14.407 10.0915 15.1475 9.93193C15.8881 9.77231 16.5725 9.41765 17.1299 8.90468C17.6874 8.3917 18.0976 7.73906 18.3181 7.0143C18.5386 6.28955 18.5613 5.51903 18.384 4.78253L15.892 7.27453C15.8223 7.34422 15.7396 7.39951 15.6486 7.43723C15.5576 7.47495 15.46 7.49437 15.3615 7.49437C15.263 7.49437 15.1654 7.47495 15.0744 7.43723C14.9833 7.39951 14.9006 7.34422 14.831 7.27453L12.71 5.15353C12.5695 5.0129 12.4906 4.82228 12.4906 4.62353C12.4906 4.42478 12.5695 4.23415 12.71 4.09353L15.176 1.62653C14.872 1.55884 14.5615 1.52464 14.25 1.52453Z" fill="#A7B1CF"/>
</svg>
