<svg width="21" height="20" viewBox="0 0 21 20" fill="none" xmlns="http://www.w3.org/2000/svg">
<path d="M8.49999 5.75103C8.49986 4.76528 8.75316 3.79606 9.23556 2.93642C9.71795 2.07677 10.4132 1.35558 11.2547 0.842083C12.0961 0.328586 13.0554 0.0400308 14.0405 0.00412218C15.0256 -0.0317864 16.0034 0.186158 16.88 0.637029C16.9849 0.691186 17.0755 0.769337 17.1445 0.865127C17.2135 0.960917 17.2589 1.07164 17.277 1.18829C17.2951 1.30493 17.2855 1.42421 17.2488 1.53642C17.2121 1.64863 17.1495 1.7506 17.066 1.83403L14.301 4.60003L15.361 5.66003L18.14 2.88203C18.2229 2.79906 18.3242 2.73671 18.4357 2.69999C18.5471 2.66328 18.6656 2.65322 18.7816 2.67063C18.8977 2.68804 19.008 2.73243 19.1038 2.80023C19.1995 2.86804 19.278 2.95736 19.333 3.06103C19.8512 4.03881 20.0763 5.14535 19.9812 6.24787C19.8861 7.35039 19.4748 8.40204 18.7968 9.27663C18.1188 10.1512 17.2028 10.8116 16.1588 11.1785C15.1148 11.5454 13.9871 11.6032 12.911 11.345L5.54599 18.963C4.98373 19.5448 4.2134 19.8793 3.40446 19.8931C2.59552 19.9069 1.81424 19.5988 1.23249 19.0365C0.650737 18.4743 0.316168 17.7039 0.302384 16.895C0.295559 16.4945 0.367694 16.0965 0.51467 15.7238C0.661647 15.3512 0.880586 15.0111 1.15899 14.723L8.63399 6.98903C8.54476 6.58241 8.49983 6.16732 8.49999 5.75103ZM14.25 1.50103C13.5857 1.50078 12.9307 1.65623 12.3374 1.9549C11.7441 2.25358 11.229 2.68717 10.8336 3.22088C10.4381 3.75459 10.1733 4.37356 10.0603 5.02813C9.94732 5.6827 9.98934 6.35464 10.183 6.99003C10.222 7.11804 10.2261 7.25416 10.1948 7.38429C10.1635 7.51441 10.098 7.63378 10.005 7.73003L2.23699 15.765C2.09542 15.9115 1.98409 16.0843 1.90933 16.2738C1.83458 16.4632 1.79787 16.6656 1.8013 16.8692C1.80824 17.2805 1.97827 17.6721 2.27399 17.958C2.56971 18.2439 2.96688 18.4007 3.37815 18.3937C3.78942 18.3868 4.18109 18.2167 4.46699 17.921L12.143 9.98003C12.2411 9.87846 12.3659 9.80666 12.503 9.77287C12.6401 9.73908 12.7839 9.74468 12.918 9.78903C13.6372 10.0268 14.407 10.068 15.1475 9.90843C15.8881 9.74881 16.5725 9.39416 17.1299 8.88118C17.6874 8.36821 18.0976 7.71556 18.3181 6.9908C18.5386 6.26605 18.5613 5.49553 18.384 4.75903L15.892 7.25103C15.8223 7.32072 15.7396 7.37601 15.6486 7.41373C15.5576 7.45145 15.46 7.47087 15.3615 7.47087C15.263 7.47087 15.1654 7.45145 15.0744 7.41373C14.9833 7.37601 14.9006 7.32072 14.831 7.25103L12.71 5.13003C12.5695 4.9894 12.4906 4.79878 12.4906 4.60003C12.4906 4.40128 12.5695 4.21065 12.71 4.07003L15.176 1.60303C14.872 1.53534 14.5615 1.50114 14.25 1.50103Z" fill="white"/>
</svg>
