<svg width="20" height="17" viewBox="0 0 20 17" fill="none" xmlns="http://www.w3.org/2000/svg">
<path d="M10.748 0.0253906L10.747 0.027391H18.245C19.212 0.027391 19.995 0.811391 19.995 1.77739V14.2734C19.995 14.7375 19.8106 15.1826 19.4824 15.5108C19.1542 15.839 18.7091 16.0234 18.245 16.0234H9.248L9.247 16.0214H1.75C1.5201 16.0214 1.29246 15.9761 1.08007 15.8881C0.867688 15.8001 0.674725 15.6711 0.51221 15.5085C0.349694 15.3459 0.220811 15.1528 0.132924 14.9404C0.045037 14.728 -0.000131084 14.5003 2.85741e-07 14.2704V1.77539C2.85741e-07 0.808391 0.784 0.0253906 1.75 0.0253906H10.748ZM18.245 1.52739H10.748V14.5234H18.245C18.3113 14.5234 18.3749 14.4971 18.4218 14.4502C18.4687 14.4033 18.495 14.3397 18.495 14.2734V1.77839C18.495 1.71209 18.4687 1.6485 18.4218 1.60161C18.3749 1.55473 18.3113 1.52739 18.245 1.52739ZM9.248 1.52539H1.75C1.6837 1.52539 1.62011 1.55173 1.57322 1.59861C1.52634 1.6455 1.5 1.70909 1.5 1.77539V14.2704C1.5 14.4084 1.612 14.5204 1.75 14.5204H9.248V1.52539ZM16.75 2.52439C16.9489 2.52439 17.1397 2.60341 17.2803 2.74406C17.421 2.88471 17.5 3.07548 17.5 3.27439C17.5 3.4733 17.421 3.66407 17.2803 3.80472C17.1397 3.94537 16.9489 4.02439 16.75 4.02439H12.248C12.0491 4.02439 11.8583 3.94537 11.7177 3.80472C11.577 3.66407 11.498 3.4733 11.498 3.27439C11.498 3.07548 11.577 2.88471 11.7177 2.74406C11.8583 2.60341 12.0491 2.52439 12.248 2.52439H16.75Z" fill="white"/>
</svg>
