<svg width="22" height="20" viewBox="0 0 22 20" fill="none" xmlns="http://www.w3.org/2000/svg">
<path d="M9.90998 0.805528C10.4076 0.530008 10.991 0.453164 11.543 0.590458C12.095 0.727752 12.5745 1.069 12.885 1.54553L12.968 1.68353L20.727 15.6925C20.9102 16.0236 21.0069 16.3955 21.0082 16.7739C21.0096 17.1522 20.9155 17.5248 20.7347 17.8572C20.5538 18.1896 20.2921 18.4709 19.9737 18.6753C19.6553 18.8797 19.2905 19.0005 18.913 19.0265L18.759 19.0325H3.24298C2.86502 19.0325 2.49315 18.9373 2.1617 18.7557C1.83024 18.574 1.54989 18.3118 1.3465 17.9933C1.14312 17.6747 1.02327 17.31 0.998012 16.9329C0.972753 16.5558 1.0429 16.1784 1.20198 15.8355L1.27398 15.6925L9.03098 1.68353C9.2355 1.3143 9.53975 1.01005 9.90898 0.805528H9.90998ZM19.415 16.4185L11.655 2.41053C11.5944 2.30138 11.5074 2.20909 11.4021 2.14204C11.2968 2.07499 11.1764 2.03529 11.0518 2.02655C10.9273 2.01781 10.8025 2.0403 10.6889 2.09199C10.5752 2.14367 10.4763 2.22292 10.401 2.32253L10.344 2.41053L2.58698 16.4185C2.52751 16.5257 2.49519 16.6457 2.49286 16.7683C2.49052 16.8908 2.51825 17.012 2.5736 17.1213C2.62895 17.2306 2.71025 17.3247 2.81038 17.3954C2.91051 17.466 3.02642 17.511 3.14798 17.5265L3.24298 17.5325H18.759C18.8814 17.5324 19.002 17.5024 19.1102 17.4449C19.2183 17.3875 19.3108 17.3044 19.3795 17.203C19.4481 17.1016 19.4909 16.9849 19.5041 16.8632C19.5172 16.7414 19.5004 16.6183 19.455 16.5045L19.415 16.4185L11.655 2.41053L19.415 16.4185ZM11 14.0255C11.1338 14.0213 11.267 14.044 11.3919 14.0923C11.5167 14.1405 11.6306 14.2134 11.7267 14.3065C11.8229 14.3997 11.8993 14.5112 11.9515 14.6344C12.0037 14.7577 12.0306 14.8902 12.0306 15.024C12.0306 15.1579 12.0037 15.2904 11.9515 15.4136C11.8993 15.5369 11.8229 15.6484 11.7267 15.7415C11.6306 15.8347 11.5167 15.9075 11.3919 15.9558C11.267 16.0041 11.1338 16.0268 11 16.0225C10.7406 16.0143 10.4947 15.9055 10.3141 15.7192C10.1335 15.5328 10.0326 15.2835 10.0326 15.024C10.0326 14.7645 10.1335 14.5153 10.3141 14.3289C10.4947 14.1425 10.7406 14.0337 11 14.0255ZM10.995 6.52353C11.1762 6.52326 11.3515 6.58865 11.4882 6.70759C11.625 6.82653 11.7141 6.99099 11.739 7.17053L11.746 7.27253L11.75 11.7745C11.7522 11.966 11.6811 12.1511 11.5513 12.2918C11.4214 12.4326 11.2426 12.5183 11.0516 12.5315C10.8606 12.5446 10.6717 12.4842 10.5238 12.3627C10.3759 12.2411 10.2801 12.0675 10.256 11.8775L10.25 11.7755L10.246 7.27353C10.246 7.07462 10.325 6.88385 10.4656 6.7432C10.6063 6.60255 10.7971 6.52353 10.996 6.52353H10.995Z" fill="#A7B1CF"/>
</svg>
