<svg width="22" height="20" viewBox="0 0 22 20" fill="none" xmlns="http://www.w3.org/2000/svg">
<path d="M9.90998 0.781975C10.4076 0.506454 10.991 0.42961 11.543 0.566904C12.095 0.704199 12.5745 1.04544 12.885 1.52197L12.968 1.65997L20.727 15.669C20.9102 16 21.0069 16.372 21.0082 16.7503C21.0096 17.1287 20.9155 17.5013 20.7347 17.8336C20.5538 18.166 20.2921 18.4474 19.9737 18.6518C19.6553 18.8562 19.2905 18.977 18.913 19.003L18.759 19.009H3.24298C2.86502 19.009 2.49315 18.9138 2.1617 18.7321C1.83024 18.5505 1.54989 18.2883 1.3465 17.9697C1.14312 17.6511 1.02327 17.2865 0.998012 16.9093C0.972753 16.5322 1.0429 16.1548 1.20198 15.812L1.27398 15.669L9.03098 1.65997C9.2355 1.29075 9.53975 0.986494 9.90898 0.781975H9.90998ZM19.415 16.395L11.655 2.38697C11.5944 2.27783 11.5074 2.18554 11.4021 2.11849C11.2968 2.05144 11.1764 2.01174 11.0518 2.003C10.9273 1.99426 10.8025 2.01675 10.6889 2.06844C10.5752 2.12012 10.4763 2.19936 10.401 2.29897L10.344 2.38697L2.58698 16.395C2.52751 16.5021 2.49519 16.6222 2.49286 16.7447C2.49052 16.8672 2.51825 16.9884 2.5736 17.0978C2.62895 17.2071 2.71025 17.3012 2.81038 17.3718C2.91051 17.4425 3.02642 17.4875 3.14798 17.503L3.24298 17.509H18.759C18.8814 17.5089 19.002 17.4788 19.1102 17.4214C19.2183 17.3639 19.3108 17.2809 19.3795 17.1795C19.4481 17.078 19.4909 16.9614 19.5041 16.8396C19.5172 16.7178 19.5004 16.5947 19.455 16.481L19.415 16.395L11.655 2.38697L19.415 16.395ZM11 14.002C11.1338 13.9977 11.267 14.0204 11.3919 14.0687C11.5167 14.117 11.6306 14.1899 11.7267 14.283C11.8229 14.3761 11.8993 14.4876 11.9515 14.6109C12.0037 14.7341 12.0306 14.8666 12.0306 15.0005C12.0306 15.1343 12.0037 15.2668 11.9515 15.3901C11.8993 15.5133 11.8229 15.6248 11.7267 15.718C11.6306 15.8111 11.5167 15.884 11.3919 15.9322C11.267 15.9805 11.1338 16.0032 11 15.999C10.7406 15.9908 10.4947 15.882 10.3141 15.6956C10.1335 15.5093 10.0326 15.26 10.0326 15.0005C10.0326 14.741 10.1335 14.4917 10.3141 14.3053C10.4947 14.119 10.7406 14.0102 11 14.002ZM10.995 6.49997C11.1762 6.49971 11.3515 6.56509 11.4882 6.68404C11.625 6.80298 11.7141 6.96743 11.739 7.14698L11.746 7.24897L11.75 11.751C11.7522 11.9425 11.6811 12.1275 11.5513 12.2683C11.4214 12.409 11.2426 12.4947 11.0516 12.5079C10.8606 12.5211 10.6717 12.4607 10.5238 12.3391C10.3759 12.2175 10.2801 12.0439 10.256 11.854L10.25 11.752L10.246 7.24997C10.246 7.05106 10.325 6.8603 10.4656 6.71965C10.6063 6.57899 10.7971 6.49997 10.996 6.49997H10.995Z" fill="white"/>
</svg>
