<svg width="14" height="14" viewBox="0 0 14 14" fill="none" xmlns="http://www.w3.org/2000/svg">
<path d="M5.66732 2.9987H8.33398C8.33398 2.64508 8.19351 2.30594 7.94346 2.05589C7.69341 1.80584 7.35427 1.66536 7.00065 1.66536C6.64703 1.66536 6.30789 1.80584 6.05784 2.05589C5.80779 2.30594 5.66732 2.64508 5.66732 2.9987ZM4.33398 2.9987C4.33398 2.29145 4.61494 1.61318 5.11503 1.11308C5.61513 0.612983 6.29341 0.332031 7.00065 0.332031C7.70789 0.332031 8.38617 0.612983 8.88627 1.11308C9.38637 1.61318 9.66732 2.29145 9.66732 2.9987H13.0007C13.1775 2.9987 13.347 3.06894 13.4721 3.19396C13.5971 3.31898 13.6673 3.48855 13.6673 3.66536C13.6673 3.84218 13.5971 4.01174 13.4721 4.13677C13.347 4.26179 13.1775 4.33203 13.0007 4.33203H12.4127L11.822 11.2254C11.7652 11.891 11.4606 12.5111 10.9686 12.9629C10.4765 13.4148 9.83271 13.6654 9.16465 13.6654H4.83665C4.16859 13.6654 3.52483 13.4148 3.03275 12.9629C2.54067 12.5111 2.2361 11.891 2.17932 11.2254L1.58865 4.33203H1.00065C0.82384 4.33203 0.654271 4.26179 0.529246 4.13677C0.404222 4.01174 0.333984 3.84218 0.333984 3.66536C0.333984 3.48855 0.404222 3.31898 0.529246 3.19396C0.654271 3.06894 0.82384 2.9987 1.00065 2.9987H4.33398ZM9.00065 6.9987C9.00065 6.82189 8.93041 6.65232 8.80539 6.52729C8.68036 6.40227 8.51079 6.33203 8.33398 6.33203C8.15717 6.33203 7.9876 6.40227 7.86258 6.52729C7.73756 6.65232 7.66732 6.82189 7.66732 6.9987V9.66536C7.66732 9.84218 7.73756 10.0117 7.86258 10.1368C7.9876 10.2618 8.15717 10.332 8.33398 10.332C8.51079 10.332 8.68036 10.2618 8.80539 10.1368C8.93041 10.0117 9.00065 9.84218 9.00065 9.66536V6.9987ZM5.66732 6.33203C5.84413 6.33203 6.0137 6.40227 6.13872 6.52729C6.26375 6.65232 6.33398 6.82189 6.33398 6.9987V9.66536C6.33398 9.84218 6.26375 10.0117 6.13872 10.1368C6.0137 10.2618 5.84413 10.332 5.66732 10.332C5.49051 10.332 5.32094 10.2618 5.19591 10.1368C5.07089 10.0117 5.00065 9.84218 5.00065 9.66536V6.9987C5.00065 6.82189 5.07089 6.65232 5.19591 6.52729C5.32094 6.40227 5.49051 6.33203 5.66732 6.33203ZM3.50732 11.112C3.53572 11.445 3.6881 11.7551 3.93428 11.981C4.18046 12.207 4.50251 12.3322 4.83665 12.332H9.16465C9.49857 12.3319 9.82028 12.2065 10.0662 11.9806C10.3121 11.7547 10.4643 11.4447 10.4927 11.112L11.074 4.33203H2.92732L3.50865 11.112H3.50732Z" fill="white"/>
</svg>
