<svg width="16" height="16" viewBox="0 0 16 16" fill="none" xmlns="http://www.w3.org/2000/svg">
<path d="M8.00016 6.66667C8.7675 6.66667 9.3335 6.10133 9.3335 5.33333C9.3335 4.56533 8.7675 4 8.00016 4C7.2335 4 6.66683 4.56533 6.66683 5.33333C6.66683 6.10133 7.2335 6.66667 8.00016 6.66667ZM8.00016 7.33333C6.5275 7.33333 5.3335 8.408 5.3335 9.73333V9.99067H10.6668V9.73333C10.6668 8.408 9.47283 7.33333 8.00016 7.33333Z" fill="#A7B1CF"/>
<path d="M12.6667 1.33334H3.33333C2.598 1.33334 2 1.93134 2 2.66667V11.3333C2 12.0687 2.598 12.6667 3.33333 12.6667H6L8 14.6667L10 12.6667H12.6667C13.402 12.6667 14 12.0687 14 11.3333V2.66667C14 1.93134 13.402 1.33334 12.6667 1.33334ZM9.33333 11.3333L8 12.6667L6.66667 11.3333H3.33333V2.66667H12.6667L12.668 11.3333H9.33333Z" fill="#A7B1CF"/>
</svg>
