<svg width="16" height="21" viewBox="0 0 16 21" fill="none" xmlns="http://www.w3.org/2000/svg">
<path d="M0.5 0.75V6H2V2.25H14V6H15.5V0.75H0.5ZM2 7.5L3.5 10.5L2 13.5H3.5L4.25 12L5 13.5H6.5L5 10.5L6.5 7.5H5L4.25 9L3.5 7.5H2ZM7.25 7.5V13.5H10.25V12H8.75V7.5H7.25ZM12.875 7.5C11.8377 7.5 11 8.33775 11 9.375C11 10.4123 11.8377 11.25 12.875 11.25C13.0377 11.25 13.25 11.4623 13.25 11.625C13.25 11.85 13.16 12 12.875 12C12.599 12 12.557 11.94 12.5465 11.9295C12.5368 11.9198 12.5 11.8695 12.5 11.6955H11C11 12.12 11.1222 12.5955 11.4688 12.9608C11.8153 13.3268 12.326 13.5007 12.875 13.5007C13.94 13.5007 14.75 12.6007 14.75 11.6257C14.75 10.5885 13.9123 9.75075 12.875 9.75075C12.7123 9.75075 12.5 9.5385 12.5 9.37575C12.5 9.213 12.7123 9.00075 12.875 9.00075C13.0752 9.00075 13.136 9.048 13.1795 9.0945C13.2245 9.141 13.25 9.222 13.25 9.3045H14.75C14.75 8.86425 14.5887 8.4105 14.258 8.06325C13.9265 7.716 13.4255 7.50075 12.875 7.50075V7.5ZM0.5 15V20.25H15.5V15H14V18.75H2V15H0.5Z" fill="#060C1F"/>
</svg>
