<svg width="36" height="36" viewBox="0 0 36 36" fill="none" xmlns="http://www.w3.org/2000/svg">
<rect width="36" height="36" rx="8" fill="#ECF9EF"/>
<path d="M15.9998 19.6L21.8998 13.7C22.0831 13.5167 22.3165 13.425 22.5998 13.425C22.8831 13.425 23.1165 13.5167 23.2998 13.7C23.4831 13.8834 23.5748 14.1167 23.5748 14.4C23.5748 14.6834 23.4831 14.9167 23.2998 15.1L16.6998 21.7C16.4998 21.9 16.2665 22 15.9998 22C15.7331 22 15.4998 21.9 15.2998 21.7L12.6998 19.1C12.5165 18.9167 12.4248 18.6834 12.4248 18.4C12.4248 18.1167 12.5165 17.8834 12.6998 17.7C12.8831 17.5167 13.1165 17.425 13.3998 17.425C13.6831 17.425 13.9165 17.5167 14.0998 17.7L15.9998 19.6Z" fill="#39BF5E"/>
</svg>
