<svg width="36" height="36" viewBox="0 0 36 36" fill="none" xmlns="http://www.w3.org/2000/svg">
<rect width="36" height="36" rx="8" fill="#BE1111" fill-opacity="0.1"/>
<path d="M17.9999 19.4L15.0829 22.325C14.8989 22.5084 14.6642 22.6 14.3789 22.6C14.0936 22.6 13.8589 22.5084 13.6749 22.325C13.4916 22.1417 13.3999 21.9084 13.3999 21.625C13.3999 21.3417 13.4916 21.1084 13.6749 20.925L16.5999 18L13.6749 15.108C13.4916 14.924 13.3999 14.6894 13.3999 14.404C13.3999 14.1194 13.4916 13.8847 13.6749 13.7C13.8582 13.5167 14.0916 13.425 14.3749 13.425C14.6582 13.425 14.8916 13.5167 15.0749 13.7L17.9999 16.625L20.8919 13.7C21.0759 13.5167 21.3106 13.425 21.5959 13.425C21.8806 13.425 22.1152 13.5167 22.2999 13.7C22.4999 13.9 22.5999 14.1374 22.5999 14.412C22.5999 14.6867 22.4999 14.916 22.2999 15.1L19.3749 18L22.2999 20.917C22.4832 21.101 22.5749 21.3357 22.5749 21.621C22.5749 21.9064 22.4832 22.141 22.2999 22.325C22.0999 22.525 21.8626 22.625 21.5879 22.625C21.3132 22.625 21.0839 22.525 20.8999 22.325L17.9999 19.4Z" fill="#BE1111"/>
</svg>
