<svg width="32" height="32" viewBox="0 0 32 32" fill="none" xmlns="http://www.w3.org/2000/svg">
<rect width="32" height="32" rx="8" fill="#EEF0F7"/>
<path fill-rule="evenodd" clip-rule="evenodd" d="M18.3907 10.3904C18.6407 10.1404 18.9798 10 19.3333 10C19.6869 10 20.026 10.1404 20.276 10.3904L22.0001 12.1145C22.25 12.3645 22.3905 12.7037 22.3905 13.0572C22.3905 13.4108 22.2501 13.7498 22.0001 13.9999L14.0001 21.9999C14.0001 21.9999 14.0002 21.9999 14.0001 21.9999C13.7502 22.2499 13.411 22.3905 13.0575 22.3905H11.3333C10.9797 22.3905 10.6406 22.2501 10.3905 22C10.1405 21.75 10 21.4108 10 21.0572V19.3332C10.0001 18.9797 10.1406 18.6405 10.3906 18.3905C10.3906 18.3905 10.3906 18.3904 10.3906 18.3905L16.8619 11.9191C16.8619 11.9192 16.862 11.9191 16.8619 11.9191L18.3907 10.3904ZM19.3333 11.3334L18.2761 12.3905L20 14.1144L21.0572 13.0572L19.3333 11.3334ZM19.0572 15.0572L17.3333 13.3334L11.3334 19.3333L11.3333 21.0572L13.0572 21.0572L19.0572 15.0572Z" fill="#060C1F"/>
</svg>
