<svg width="32" height="32" viewBox="0 0 32 32" fill="none" xmlns="http://www.w3.org/2000/svg">
<path d="M15.9987 14.6666C17.1033 14.6666 17.9987 13.7712 17.9987 12.6666C17.9987 11.5621 17.1033 10.6666 15.9987 10.6666C14.8941 10.6666 13.9987 11.5621 13.9987 12.6666C13.9987 13.7712 14.8941 14.6666 15.9987 14.6666Z" fill="#39BF5E"/>
<path d="M15.9987 2.66663C13.1881 2.66649 10.491 3.77564 8.49369 5.75301C6.49634 7.73039 5.36014 10.4162 5.33203 13.2266C5.33203 20.5333 14.732 28.6666 15.132 29.0133C15.3735 29.2199 15.6809 29.3334 15.9987 29.3334C16.3165 29.3334 16.6239 29.2199 16.8654 29.0133C17.332 28.6666 26.6654 20.5333 26.6654 13.2266C26.6373 10.4162 25.5011 7.73039 23.5037 5.75301C21.5064 3.77564 18.8093 2.66649 15.9987 2.66663ZM15.9987 17.3333C15.0757 17.3333 14.1735 17.0596 13.406 16.5468C12.6386 16.034 12.0405 15.3052 11.6873 14.4525C11.3341 13.5998 11.2416 12.6614 11.4217 11.7562C11.6018 10.851 12.0462 10.0194 12.6989 9.36679C13.3515 8.71415 14.183 8.26969 15.0883 8.08963C15.9935 7.90956 16.9318 8.00198 17.7846 8.35519C18.6373 8.7084 19.3661 9.30654 19.8789 10.074C20.3917 10.8414 20.6654 11.7436 20.6654 12.6666C20.6654 13.9043 20.1737 15.0913 19.2985 15.9665C18.4234 16.8416 17.2364 17.3333 15.9987 17.3333Z" fill="#39BF5E"/>
</svg>
