<svg width="17" height="16" viewBox="0 0 17 16" fill="none" xmlns="http://www.w3.org/2000/svg">
<g clip-path="url(#clip0_8962_2231)">
<path d="M9.19912 2.09961L14.9551 12.0689C15.0429 12.221 15.0891 12.3934 15.0891 12.5689C15.0891 12.7445 15.0429 12.9169 14.9551 13.0689C14.8674 13.221 14.7411 13.3472 14.5891 13.435C14.4371 13.5227 14.2647 13.5689 14.0891 13.5689H2.57712C2.40159 13.5689 2.22915 13.5227 2.07713 13.435C1.92512 13.3472 1.79888 13.221 1.71112 13.0689C1.62335 12.9169 1.57715 12.7445 1.57715 12.5689C1.57715 12.3934 1.62336 12.221 1.71112 12.0689L7.46712 2.09961C7.85179 1.43294 8.81379 1.43294 9.19912 2.09961ZM8.33312 10.0009C8.15631 10.0009 7.98674 10.0712 7.86172 10.1962C7.73669 10.3212 7.66646 10.4908 7.66646 10.6676C7.66646 10.8444 7.73669 11.014 7.86172 11.139C7.98674 11.264 8.15631 11.3343 8.33312 11.3343C8.50993 11.3343 8.6795 11.264 8.80453 11.139C8.92955 11.014 8.99979 10.8444 8.99979 10.6676C8.99979 10.4908 8.92955 10.3212 8.80453 10.1962C8.6795 10.0712 8.50993 10.0009 8.33312 10.0009ZM8.33312 5.33428C8.16983 5.3343 8.01223 5.39425 7.89021 5.50275C7.76818 5.61126 7.69023 5.76078 7.67112 5.92294L7.66646 6.00094V8.66761C7.66665 8.83753 7.73171 9.00096 7.84836 9.12452C7.965 9.24808 8.12442 9.32243 8.29405 9.33239C8.46368 9.34235 8.63071 9.28716 8.76101 9.1781C8.89131 9.06904 8.97505 8.91434 8.99512 8.74561L8.99979 8.66761V6.00094C8.99979 5.82413 8.92955 5.65456 8.80453 5.52954C8.6795 5.40451 8.50993 5.33428 8.33312 5.33428Z" fill="#BE1111"/>
</g>
<defs>
<clipPath id="clip0_8962_2231">
<rect width="16" height="16" fill="white" transform="translate(0.333008)"/>
</clipPath>
</defs>
</svg>
